BesixdouzeCode-Bold.sfdir
StartChar: exclam
Encoding: 241 33 241
GlifName: exclam
Width: 1300
VWidth: 0
Flags: W
LayerCount: 2
Fore
SplineSet
652 1500 m 257,0,-1
NamedP: "mh01"
 652 444 l 257,1,-1
NamedP: "mh02"
 352 409 l 257,2,-1
NamedP: "av02"
 352 1500 l 257,3,-1
NamedP: "mh03"
 652 1500 l 257,0,-1
NamedP: "mh01"
338 149 m 257,4,5
NamedP: "ah01"
 338 183 338 183 351 212.5 c 128,-1,6
 364 242 364 242 386 264.5 c 128,-1,7
 408 287 408 287 437.5 300 c 128,-1,8
 467 313 467 313 501 313 c 257,9,10
NamedP: "av01"
 535 313 535 313 564.5 300 c 128,-1,11
 594 287 594 287 616 264.5 c 128,-1,12
 638 242 638 242 651 212.5 c 128,-1,13
 664 183 664 183 664 149 c 257,14,15
NamedP: "ah02"
 664 116 664 116 651.5 85.5 c 128,-1,16
 639 55 639 55 617 32.5 c 128,-1,17
 595 10 595 10 565.5 -3.5 c 128,-1,18
 536 -17 536 -17 502 -17 c 257,19,20
NamedP: "ab01"
 468 -17 468 -17 438 -3.5 c 128,-1,21
 408 10 408 10 386 32.5 c 128,-1,22
 364 55 364 55 351 85.5 c 128,-1,23
 338 116 338 116 338 149 c 257,4,5
NamedP: "ah01"
EndSplineSet
PickledDataWithLists: "(dp0
Vcom.adobe.type.autohint
p1
(c_codecs
encode
p2
(Vdata
p3
Vlatin1
p4
tp5
Rp6
g2
(V<data>\\u000a        <hintSetList>\\u000a          <hintset pointTag=\"mh01\">\\u000a            <hstem pos=\"-17\" width=\"330\"/>\\u000a            <hstem pos=\"1500\" width=\"-20\"/>\\u000a            <vstem pos=\"352\" width=\"300\"/>\\u000a          </hintset>\\u000a        </hintSetList>\\u000a      </data>
p7
g4
tp8
Rp9
Ntp10
sVcom.fontlab.ttprogram
p11
(g2
(Vdata
p12
g4
tp13
Rp14
g2
(V<data>\\u000a        <ttProgram>\\u000a          <ttc align=\"round\" code=\"alignh\" point=\"ah01\"/>\\u000a          <ttc align=\"round\" code=\"alignh\" point=\"ah02\"/>\\u000a          <ttc code=\"mdeltah\" delta=\"2\" point=\"mh01\" ppm1=\"20\" ppm2=\"20\"/>\\u000a          <ttc code=\"mdeltah\" delta=\"2\" point=\"mh02\" ppm1=\"20\" ppm2=\"20\"/>\\u000a          <ttc code=\"mdeltah\" delta=\"1\" point=\"mh03\" ppm1=\"20\" ppm2=\"20\"/>\\u000a          <ttc code=\"mdeltah\" delta=\"5\" point=\"ah01\" ppm1=\"20\" ppm2=\"20\"/>\\u000a          <ttc code=\"mdeltah\" delta=\"3\" point=\"ah02\" ppm1=\"20\" ppm2=\"20\"/>\\u000a          <ttc align=\"round\" code=\"alignv\" point=\"av01\"/>\\u000a          <ttc align=\"round\" code=\"alignv\" point=\"av02\"/>\\u000a          <ttc code=\"alignt\" point=\"mh03\" zone=\"t: 1\"/>\\u000a          <ttc code=\"alignb\" point=\"ab01\" zone=\"b: 0\"/>\\u000a          <ttc code=\"singlev\" point1=\"mh03\" point2=\"mh02\" round=\"true\"/>\\u000a        </ttProgram>\\u000a      </data>
p15
g4
tp16
Rp17
Ntp18
s."
EndChar
StartChar: quotedbl
Encoding: 396 34 396
GlifName: quotedbl
Width: 1300
VWidth: 0
Flags: W
LayerCount: 2
Fore
SplineSet
861 1500 m 257,0,-1
NamedP: "sh01"
 861 1367 l 257,1,2
 861 1349 861 1349 860.5 1324.5 c 128,-1,3
 860 1300 860 1300 859 1273 c 128,-1,4
 858 1246 858 1246 856 1218.5 c 128,-1,5
 854 1191 854 1191 851 1168 c 257,6,-1
 828 1013 l 257,7,-1
 648 1013 l 257,8,-1
NamedP: "sv01"
 625 1168 l 257,9,10
 622 1191 622 1191 620 1218.5 c 128,-1,11
 618 1246 618 1246 617 1273 c 128,-1,12
 616 1300 616 1300 615.5 1324.5 c 128,-1,13
 615 1349 615 1349 615 1367 c 257,14,-1
 615 1500 l 257,15,-1
NamedP: "ah02"
 861 1500 l 257,0,-1
NamedP: "sh01"
561 1500 m 257,16,-1
NamedP: "sh02"
 561 1367 l 257,17,18
 561 1349 561 1349 560.5 1324.5 c 128,-1,19
 560 1300 560 1300 559 1273 c 128,-1,20
 558 1246 558 1246 556 1218.5 c 128,-1,21
 554 1191 554 1191 551 1168 c 257,22,-1
 528 1013 l 257,23,-1
 348 1013 l 257,24,-1
NamedP: "sv02"
 325 1168 l 257,25,26
 322 1191 322 1191 320 1218.5 c 128,-1,27
 318 1246 318 1246 317 1273 c 128,-1,28
 316 1300 316 1300 315.5 1324.5 c 128,-1,29
 315 1349 315 1349 315 1367 c 257,30,-1
 315 1500 l 257,31,-1
NamedP: "ah01"
 561 1500 l 257,16,-1
NamedP: "sh02"
EndSplineSet
PickledDataWithLists: "(dp0
Vcom.adobe.type.autohint
p1
(c_codecs
encode
p2
(Vdata
p3
Vlatin1
p4
tp5
Rp6
g2
(V<data>\\u000a        <hintSetList>\\u000a          <hintset pointTag=\"sh01\">\\u000a            <hstem pos=\"1013\" width=\"487\"/>\\u000a            <vstem pos=\"315\" width=\"246\"/>\\u000a            <vstem pos=\"615\" width=\"246\"/>\\u000a          </hintset>\\u000a        </hintSetList>\\u000a      </data>
p7
g4
tp8
Rp9
Ntp10
sVcom.fontlab.ttprogram
p11
(g2
(Vdata
p12
g4
tp13
Rp14
g2
(V<data>\\u000a        <ttProgram>\\u000a          <ttc align=\"round\" code=\"alignh\" point=\"ah01\"/>\\u000a          <ttc align=\"round\" code=\"alignh\" point=\"ah02\"/>\\u000a          <ttc code=\"singleh\" point1=\"ah02\" point2=\"sh01\" stem=\"eq X: ecart du B\"/>\\u000a          <ttc code=\"singleh\" point1=\"ah01\" point2=\"sh02\" stem=\"eq X: ecart du B\"/>\\u000a          <ttc code=\"alignt\" point=\"sh02\" zone=\"t: 1\"/>\\u000a          <ttc code=\"alignt\" point=\"sh01\" zone=\"t: 1\"/>\\u000a          <ttc code=\"singlev\" point1=\"sh01\" point2=\"sv01\" round=\"true\"/>\\u000a          <ttc code=\"singlev\" point1=\"sh02\" point2=\"sv02\" round=\"true\"/>\\u000a        </ttProgram>\\u000a      </data>
p15
g4
tp16
Rp17
Ntp18
s."
EndChar
StartChar: dollar
Encoding: 213 36 213
GlifName: dollar
Width: 1300
VWidth: 0
Flags: W
LayerCount: 2
Fore
SplineSet
500 -14 m 257,0,1
 394 -6 394 -6 302.5 27.5 c 128,-1,2
 211 61 211 61 117 121 c 257,3,-1
 255 348 l 257,4,5
 277 333 277 333 305.5 316 c 128,-1,6
 334 299 334 299 366 283 c 128,-1,7
 398 267 398 267 432.5 253.5 c 128,-1,8
 467 240 467 240 500 233 c 257,9,-1
 500 712 l 257,10,11
 431 745 431 745 364.5 781 c 128,-1,12
 298 817 298 817 246 862 c 128,-1,13
 194 907 194 907 162 964.5 c 128,-1,14
 130 1022 130 1022 130 1097 c 257,15,16
 130 1179 130 1179 159.5 1245.5 c 128,-1,17
 189 1312 189 1312 239.5 1363 c 128,-1,18
 290 1414 290 1414 357.5 1448.5 c 128,-1,19
 425 1483 425 1483 500 1500 c 257,20,-1
 500 1681 l 257,21,-1
 800 1719 l 257,22,-1
 800 1499 l 257,23,24
 875 1482 875 1482 946 1450 c 128,-1,25
 1017 1418 1017 1418 1090 1369 c 257,26,-1
 940 1178 l 257,27,28
 898 1202 898 1202 863.5 1220 c 128,-1,29
 829 1238 829 1238 800 1252 c 257,30,-1
 800 866 l 257,31,32
 865 835 865 835 927 797 c 128,-1,33
 989 759 989 759 1037.5 709.5 c 128,-1,34
 1086 660 1086 660 1115.5 596 c 128,-1,35
 1145 532 1145 532 1145 448 c 257,36,37
 1145 363 1145 363 1117.5 293.5 c 128,-1,38
 1090 224 1090 224 1042 170 c 128,-1,39
 994 116 994 116 929.5 77.5 c 128,-1,40
 865 39 865 39 790 16 c 257,41,-1
 790 -190 l 257,42,-1
 500 -190 l 257,43,-1
 500 -14 l 257,0,1
859 430 m 257,44,45
 859 484 859 484 826 524 c 128,-1,46
 793 564 793 564 742 596 c 257,47,-1
 742 249 l 257,48,49
 766 258 766 258 787.5 272.5 c 128,-1,50
 809 287 809 287 825 308.5 c 128,-1,51
 841 330 841 330 850 360 c 128,-1,52
 859 390 859 390 859 430 c 257,44,45
436 1125 m 257,53,54
NamedP: "hr01"
 436 1096 436 1096 445.5 1073 c 128,-1,55
 455 1050 455 1050 471.5 1031.5 c 128,-1,56
 488 1013 488 1013 510 998.5 c 128,-1,57
 532 984 532 984 558 972 c 257,58,-1
 558 1268 l 257,59,60
 533 1260 533 1260 511 1248.5 c 128,-1,61
 489 1237 489 1237 472.5 1219.5 c 128,-1,62
 456 1202 456 1202 446 1179 c 128,-1,63
 436 1156 436 1156 436 1125 c 257,53,54
NamedP: "hr01"
EndSplineSet
PickledDataWithLists: "(dp0
Vcom.adobe.type.autohint
p1
(c_codecs
encode
p2
(Vdata
p3
Vlatin1
p4
tp5
Rp6
g2
(V<data>\\u000a        <hintSetList>\\u000a          <hintset pointTag=\"hr01\">\\u000a            <hstem pos=\"-169\" width=\"-21\"/>\\u000a            <hstem pos=\"-169\" width=\"-21\"/>\\u000a            <hstem pos=\"1719\" width=\"-20\"/>\\u000a            <hstem pos=\"1719\" width=\"-20\"/>\\u000a            <vstem pos=\"130\" width=\"306\"/>\\u000a            <vstem pos=\"130\" width=\"306\"/>\\u000a            <vstem pos=\"500\" width=\"242\"/>\\u000a            <vstem pos=\"558\" width=\"242\"/>\\u000a            <vstem pos=\"859\" width=\"286\"/>\\u000a            <vstem pos=\"859\" width=\"286\"/>\\u000a          </hintset>\\u000a        </hintSetList>\\u000a      </data>
p7
g4
tp8
Rp9
Ntp10
s."
EndChar
StartChar: parenleft
Encoding: 365 40 365
GlifName: parenleft
Width: 1300
VWidth: 0
Flags: W
LayerCount: 2
Fore
SplineSet
379 1158 m 257,0,1
NamedP: "hr00"
 379 1251 379 1251 389 1331.5 c 128,-1,2
 399 1412 399 1412 434.5 1472 c 128,-1,3
 470 1532 470 1532 537.5 1566 c 128,-1,4
 605 1600 605 1600 719 1600 c 257,5,6
NamedP: "av01"
 744 1600 744 1600 772.5 1596.5 c 128,-1,7
 801 1593 801 1593 829.5 1586 c 128,-1,8
 858 1579 858 1579 884 1568.5 c 128,-1,9
 910 1558 910 1558 931 1545 c 257,10,-1
NamedP: "ah01"
 841 1431 l 257,11,12
 823 1431 823 1431 798.5 1426 c 128,-1,13
 774 1421 774 1421 752 1400.5 c 128,-1,14
 730 1380 730 1380 715 1339 c 128,-1,15
 700 1298 700 1298 700 1227 c 257,16,-1
 700 -46 l 257,17,18
 700 -120 700 -120 715.5 -160 c 128,-1,19
 731 -200 731 -200 752 -219 c 128,-1,20
 773 -238 773 -238 795.5 -241.5 c 128,-1,21
 818 -245 818 -245 833 -245 c 257,22,-1
 931 -365 l 257,23,24
NamedP: "ah02"
 910 -378 910 -378 884 -388.5 c 128,-1,25
 858 -399 858 -399 829.5 -406 c 128,-1,26
 801 -413 801 -413 772.5 -416.5 c 128,-1,27
 744 -420 744 -420 719 -420 c 257,28,29
NamedP: "av02"
 605 -420 605 -420 537.5 -383.5 c 128,-1,30
 470 -347 470 -347 434.5 -284 c 128,-1,31
 399 -221 399 -221 389 -138 c 128,-1,32
 379 -55 379 -55 379 38 c 257,33,-1
 379 1158 l 257,0,1
NamedP: "hr00"
EndSplineSet
PickledDataWithLists: "(dp0
Vcom.adobe.type.autohint
p1
(c_codecs
encode
p2
(Vdata
p3
Vlatin1
p4
tp5
Rp6
g2
(V<data>\\u000a        <hintSetList>\\u000a          <hintset pointTag=\"hr00\">\\u000a            <hstem pos=\"-399\" width=\"-21\"/>\\u000a            <hstem pos=\"1600\" width=\"-20\"/>\\u000a            <vstem pos=\"379\" width=\"321\"/>\\u000a          </hintset>\\u000a        </hintSetList>\\u000a      </data>
p7
g4
tp8
Rp9
Ntp10
sVcom.fontlab.ttprogram
p11
(g2
(Vdata
p12
g4
tp13
Rp14
g2
(V<data>\\u000a        <ttProgram>\\u000a          <ttc align=\"round\" code=\"alignh\" point=\"ah01\"/>\\u000a          <ttc align=\"round\" code=\"alignh\" point=\"ah02\"/>\\u000a          <ttc align=\"round\" code=\"alignv\" point=\"av01\"/>\\u000a          <ttc align=\"round\" code=\"alignv\" point=\"av02\"/>\\u000a        </ttProgram>\\u000a      </data>
p15
g4
tp16
Rp17
Ntp18
s."
EndChar
StartChar: parenright
Encoding: 366 41 366
GlifName: parenright
Width: 1300
VWidth: 0
Flags: W
LayerCount: 2
Fore
SplineSet
1020 38 m 257,0,1
NamedP: "hr00"
 1020 -55 1020 -55 1010 -138 c 128,-1,2
 1000 -221 1000 -221 964.5 -284 c 128,-1,3
 929 -347 929 -347 861.5 -383.5 c 128,-1,4
 794 -420 794 -420 680 -420 c 257,5,6
NamedP: "av02"
 654 -420 654 -420 626 -416.5 c 128,-1,7
 598 -413 598 -413 569.5 -406 c 128,-1,8
 541 -399 541 -399 515 -388.5 c 128,-1,9
 489 -378 489 -378 468 -365 c 257,10,-1
NamedP: "ah02"
 566 -245 l 257,11,12
 581 -245 581 -245 603.5 -241.5 c 128,-1,13
 626 -238 626 -238 647 -219 c 128,-1,14
 668 -200 668 -200 683.5 -160 c 128,-1,15
 699 -120 699 -120 699 -46 c 257,16,-1
 699 1227 l 257,17,18
 699 1298 699 1298 684 1339 c 128,-1,19
 669 1380 669 1380 647 1400.5 c 128,-1,20
 625 1421 625 1421 600.5 1426 c 128,-1,21
 576 1431 576 1431 558 1431 c 257,22,-1
 468 1545 l 257,23,24
NamedP: "ah01"
 489 1558 489 1558 515 1568.5 c 128,-1,25
 541 1579 541 1579 569.5 1586 c 128,-1,26
 598 1593 598 1593 626 1596.5 c 128,-1,27
 654 1600 654 1600 680 1600 c 257,28,29
NamedP: "av01"
 794 1600 794 1600 861.5 1566 c 128,-1,30
 929 1532 929 1532 964.5 1472 c 128,-1,31
 1000 1412 1000 1412 1010 1331.5 c 128,-1,32
 1020 1251 1020 1251 1020 1158 c 257,33,-1
 1020 38 l 257,0,1
NamedP: "hr00"
EndSplineSet
PickledDataWithLists: "(dp0
Vcom.adobe.type.autohint
p1
(c_codecs
encode
p2
(Vdata
p3
Vlatin1
p4
tp5
Rp6
g2
(V<data>\\u000a        <hintSetList>\\u000a          <hintset pointTag=\"hr00\">\\u000a            <hstem pos=\"-399\" width=\"-21\"/>\\u000a            <hstem pos=\"1600\" width=\"-20\"/>\\u000a            <vstem pos=\"699\" width=\"321\"/>\\u000a          </hintset>\\u000a        </hintSetList>\\u000a      </data>
p7
g4
tp8
Rp9
Ntp10
sVcom.fontlab.ttprogram
p11
(g2
(Vdata
p12
g4
tp13
Rp14
g2
(V<data>\\u000a        <ttProgram>\\u000a          <ttc align=\"round\" code=\"alignh\" point=\"ah01\"/>\\u000a          <ttc align=\"round\" code=\"alignh\" point=\"ah02\"/>\\u000a          <ttc align=\"round\" code=\"alignv\" point=\"av01\"/>\\u000a          <ttc align=\"round\" code=\"alignv\" point=\"av02\"/>\\u000a        </ttProgram>\\u000a      </data>
p15
g4
tp16
Rp17
Ntp18
s."
EndChar
StartChar: asterisk
Encoding: 125 42 125
GlifName: asterisk
Width: 1300
VWidth: 0
Flags: W
LayerCount: 2
Fore
SplineSet
744 1037 m 257,0,-1
NamedP: "hr00"
 967 1037 l 257,1,-1
 1105 1083 l 257,2,-1
 1011 1294 l 257,3,-1
 867 1247 l 257,4,-1
 720 1117 l 257,5,-1
 797 1309 l 257,6,-1
 797 1470 l 257,7,-1
 568 1446 l 257,8,-1
 568 1315 l 257,9,-1
 635 1120 l 257,10,-1
 476 1259 l 257,11,-1
 291 1309 l 257,12,-1
 247 1090 l 257,13,-1
 398 1041 l 257,14,-1
 608 1041 l 257,15,-1
 447 950 l 257,16,-1
 325 781 l 257,17,-1
 524 656 l 257,18,-1
 625 800 l 257,19,-1
 675 990 l 257,20,-1
 730 800 l 257,21,-1
 842 654 l 257,22,-1
 1010 805 l 257,23,-1
 918 926 l 257,24,-1
 744 1037 l 257,0,-1
NamedP: "hr00"
EndSplineSet
PickledDataWithLists: "(dp0
Vcom.adobe.type.autohint
p1
(c_codecs
encode
p2
(Vdata
p3
Vlatin1
p4
tp5
Rp6
g2
(V<data>\\u000a        <hintSetList>\\u000a          <hintset pointTag=\"hr00\">\\u000a            <hstem pos=\"675\" width=\"-21\"/>\\u000a            <hstem pos=\"1470\" width=\"-20\"/>\\u000a            <vstem pos=\"568\" width=\"229\"/>\\u000a          </hintset>\\u000a        </hintSetList>\\u000a      </data>
p7
g4
tp8
Rp9
Ntp10
s."
EndChar
StartChar: hyphen
Encoding: 283 45 283
GlifName: hyphen
Width: 1300
VWidth: 0
Flags: W
LayerCount: 2
Fore
SplineSet
335 624 m 257,0,-1
NamedP: "hr00"
 962 624 l 257,1,-1
 962 400 l 257,2,-1
 335 400 l 257,3,-1
 335 624 l 257,0,-1
NamedP: "hr00"
EndSplineSet
PickledDataWithLists: "(dp0
Vcom.adobe.type.autohint
p1
(c_codecs
encode
p2
(Vdata
p3
Vlatin1
p4
tp5
Rp6
g2
(V<data>\\u000a        <hintSetList>\\u000a          <hintset pointTag=\"hr00\">\\u000a            <hstem pos=\"400\" width=\"224\"/>\\u000a          </hintset>\\u000a        </hintSetList>\\u000a      </data>
p7
g4
tp8
Rp9
Ntp10
s."
EndChar
StartChar: slash
Encoding: 448 47 448
GlifName: slash
Width: 1300
VWidth: 0
Flags: W
LayerCount: 2
Fore
SplineSet
453 -100 m 257,0,-1
NamedP: "hr00"
 101 -100 l 257,1,-1
 810 1600 l 257,2,-1
 1153 1600 l 257,3,-1
 453 -100 l 257,0,-1
NamedP: "hr00"
EndSplineSet
PickledDataWithLists: "(dp0
Vcom.adobe.type.autohint
p1
(c_codecs
encode
p2
(Vdata
p3
Vlatin1
p4
tp5
Rp6
g2
(V<data>\\u000a        <hintSetList>\\u000a          <hintset pointTag=\"hr00\">\\u000a            <hstem pos=\"-79\" width=\"-21\"/>\\u000a            <hstem pos=\"1600\" width=\"-20\"/>\\u000a          </hintset>\\u000a        </hintSetList>\\u000a      </data>
p7
g4
tp8
Rp9
Ntp10
s."
EndChar
StartChar: zero
Encoding: 585 48 585
GlifName: zero
Width: 1300
VWidth: 0
Flags: W
LayerCount: 2
Fore
SplineSet
628 -16 m 261,0,1
NamedP: "hr00"
 535 -16 535 -16 457 16.5 c 132,-1,2
 379 49 379 49 317 105 c 132,-1,3
 255 161 255 161 208 236 c 132,-1,4
 161 311 161 311 130 396 c 132,-1,5
 99 481 99 481 83.5 572 c 132,-1,6
 68 663 68 663 68 750 c 261,7,8
 68 840 68 840 81 931.5 c 132,-1,9
 94 1023 94 1023 122.5 1108.5 c 132,-1,10
 151 1194 151 1194 195.5 1268 c 132,-1,11
 240 1342 240 1342 302 1397.5 c 132,-1,12
 364 1453 364 1453 445 1484.5 c 132,-1,13
 526 1516 526 1516 628 1516 c 261,14,15
 721 1516 721 1516 799 1483.5 c 132,-1,16
 877 1451 877 1451 939 1395 c 132,-1,17
 1001 1339 1001 1339 1048 1264 c 132,-1,18
 1095 1189 1095 1189 1126 1104 c 132,-1,19
 1157 1019 1157 1019 1172.5 928 c 132,-1,20
 1188 837 1188 837 1188 750 c 261,21,22
 1188 660 1188 660 1174.5 568.5 c 132,-1,23
 1161 477 1161 477 1133 391.5 c 132,-1,24
 1105 306 1105 306 1060.5 232 c 132,-1,25
 1016 158 1016 158 953.5 102.5 c 132,-1,26
 891 47 891 47 810 15.5 c 132,-1,27
 729 -16 729 -16 628 -16 c 261,0,1
NamedP: "hr00"
396 791 m 261,28,29
 396 740 396 740 400.5 678 c 132,-1,30
 405 616 405 616 415.5 553.5 c 132,-1,31
 426 491 426 491 444 432 c 132,-1,32
 462 373 462 373 488.5 327 c 132,-1,33
 515 281 515 281 551 253.5 c 132,-1,34
 587 226 587 226 635 226 c 261,35,36
 677 226 677 226 710 246.5 c 132,-1,37
 743 267 743 267 768 302.5 c 132,-1,38
 793 338 793 338 810.5 385.5 c 132,-1,39
 828 433 828 433 839 487 c 132,-1,40
 850 541 850 541 855 597.5 c 132,-1,41
 860 654 860 654 860 709 c 261,42,43
 860 760 860 760 855.5 822 c 132,-1,44
 851 884 851 884 840.5 946.5 c 132,-1,45
 830 1009 830 1009 812 1068 c 132,-1,46
 794 1127 794 1127 767.5 1172.5 c 132,-1,47
 741 1218 741 1218 704.5 1245.5 c 132,-1,48
 668 1273 668 1273 620 1273 c 261,49,50
 578 1273 578 1273 545 1252.5 c 132,-1,51
 512 1232 512 1232 487 1196.5 c 132,-1,52
 462 1161 462 1161 444.5 1113.5 c 132,-1,53
 427 1066 427 1066 416.5 1012.5 c 132,-1,54
 406 959 406 959 401 902 c 132,-1,55
 396 845 396 845 396 791 c 261,28,29
EndSplineSet
PickledDataWithLists: "(dp0
Vcom.adobe.type.autohint
p1
(c_codecs
encode
p2
(Vdata
p3
Vlatin1
p4
tp5
Rp6
g2
(V<data>\\u000a        <hintSetList>\\u000a          <hintset pointTag=\"hr00\">\\u000a            <hstem pos=\"-16\" width=\"242\"/>\\u000a            <hstem pos=\"1273\" width=\"243\"/>\\u000a            <vstem pos=\"68\" width=\"328\"/>\\u000a            <vstem pos=\"860\" width=\"328\"/>\\u000a          </hintset>\\u000a        </hintSetList>\\u000a      </data>
p7
g4
tp8
Rp9
Ntp10
s."
EndChar
StartChar: two
Encoding: 534 50 534
GlifName: two
Width: 1300
VWidth: 0
Flags: W
LayerCount: 2
Fore
SplineSet
1122 0 m 257,0,-1
NamedP: "hr00"
 1122 200 l 257,1,-1
 480 200 l 257,2,3
 506 236 506 236 563 303.5 c 0,4,5
 620 371 620 371 702 465.5 c 0,6,7
 784 560 784 560 835 621 c 256,8,9
 853 643 853 643 899 696.5 c 0,10,11
 945 750 945 750 963.5 773 c 0,12,13
 982 796 982 796 1014.5 842 c 0,14,15
 1047 888 1047 888 1060.5 919.5 c 0,16,17
 1074 951 1074 951 1085.5 996 c 0,18,19
 1097 1041 1097 1041 1097 1086 c 256,20,21
 1097 1166 1097 1166 1064 1242.5 c 0,22,23
 1031 1319 1031 1319 972 1380.5 c 0,24,25
 913 1442 913 1442 820.5 1479.5 c 0,26,27
 728 1517 728 1517 618 1517 c 256,28,29
 430 1517 430 1517 303 1429 c 0,30,31
 176 1341 176 1341 116 1183 c 257,32,-1
 349 1096 l 257,33,34
 453 1300 453 1300 603 1300 c 256,35,36
 681 1300 681 1300 730.5 1238 c 0,37,38
 780 1176 780 1176 780 1097 c 256,39,40
 780 1073 780 1073 776.5 1052.5 c 0,41,42
 773 1032 773 1032 770.5 1016.5 c 0,43,44
 768 1001 768 1001 755 980 c 0,45,46
 742 959 742 959 736.5 948.5 c 0,47,48
 731 938 731 938 708 911.5 c 0,49,50
 685 885 685 885 676 874.5 c 0,51,52
 667 864 667 864 632.5 827.5 c 0,53,54
 598 791 598 791 583 775 c 256,55,56
 461 643 461 643 328.5 482.5 c 0,57,58
 196 322 196 322 112 190 c 257,59,-1
 112 0 l 257,60,-1
 1122 0 l 257,0,-1
NamedP: "hr00"
EndSplineSet
PickledDataWithLists: "(dp0
Vcom.adobe.type.autohint
p1
(c_codecs
encode
p2
(Vdata
p3
Vlatin1
p4
tp5
Rp6
g2
(V<data>\\u000a        <hintSetList>\\u000a          <hintset pointTag=\"hr00\">\\u000a            <hstem pos=\"0\" width=\"200\"/>\\u000a            <hstem pos=\"1300\" width=\"217\"/>\\u000a            <vstem pos=\"780\" width=\"317\"/>\\u000a          </hintset>\\u000a        </hintSetList>\\u000a      </data>
p7
g4
tp8
Rp9
Ntp10
s."
EndChar
StartChar: four
Encoding: 260 52 260
GlifName: four
Width: 1300
VWidth: 0
Flags: W
LayerCount: 2
Fore
SplineSet
1200 500 m 257,0,-1
NamedP: "hr00"
 1001 500 l 257,1,-1
 1001 800 l 257,2,-1
 680 780 l 257,3,-1
 680 500 l 257,4,-1
 389 500 l 257,5,-1
 563 763 l 257,6,-1
 894 1500 l 257,7,-1
 613 1520 l 257,8,-1
 120 500 l 257,9,-1
 120 300 l 257,10,-1
 680 300 l 257,11,-1
 680 0 l 257,12,-1
 1001 0 l 257,13,-1
 1001 300 l 257,14,-1
 1179 300 l 257,15,-1
 1200 500 l 257,0,-1
NamedP: "hr00"
EndSplineSet
PickledDataWithLists: "(dp0
Vcom.adobe.type.autohint
p1
(c_codecs
encode
p2
(Vdata
p3
Vlatin1
p4
tp5
Rp6
g2
(V<data>\\u000a        <hintSetList>\\u000a          <hintset pointTag=\"hr00\">\\u000a            <hstem pos=\"21\" width=\"-21\"/>\\u000a            <hstem pos=\"300\" width=\"200\"/>\\u000a            <hstem pos=\"1520\" width=\"-20\"/>\\u000a            <vstem pos=\"680\" width=\"321\"/>\\u000a          </hintset>\\u000a        </hintSetList>\\u000a      </data>
p7
g4
tp8
Rp9
Ntp10
s."
EndChar
StartChar: five
Encoding: 252 53 252
GlifName: five
Width: 1300
VWidth: 0
Flags: W
LayerCount: 2
Fore
SplineSet
521 1300 m 257,0,-1
NamedP: "hr00"
 1038 1300 l 257,1,-1
 1038 1500 l 257,2,-1
 172 1500 l 257,3,-1
 172 759 l 257,4,-1
 397 759 l 257,5,6
 491 822 491 822 611 822 c 256,7,8
 694 822 694 822 748.5 756.5 c 0,9,10
 803 691 803 691 803 606 c 256,11,12
 803 503 803 503 703.5 415 c 0,13,14
 604 327 604 327 460.5 278.5 c 0,15,16
 317 230 317 230 172 226 c 257,17,-1
 172 0 l 257,18,19
 304 0 304 0 437.5 25 c 0,20,21
 571 50 571 50 695.5 102.5 c 0,22,23
 820 155 820 155 917 228 c 0,24,25
 1014 301 1014 301 1072 404 c 0,26,27
 1130 507 1130 507 1130 626 c 256,28,29
 1130 811 1130 811 996 935 c 0,30,31
 862 1059 862 1059 637 1059 c 256,32,33
 573 1059 573 1059 521 1046 c 257,34,-1
 521 1300 l 257,0,-1
NamedP: "hr00"
EndSplineSet
PickledDataWithLists: "(dp0
Vcom.adobe.type.autohint
p1
(c_codecs
encode
p2
(Vdata
p3
Vlatin1
p4
tp5
Rp6
g2
(V<data>\\u000a        <hintSetList>\\u000a          <hintset pointTag=\"hr00\">\\u000a            <hstem pos=\"0\" width=\"226\"/>\\u000a            <hstem pos=\"822\" width=\"237\"/>\\u000a            <hstem pos=\"1300\" width=\"200\"/>\\u000a            <vstem pos=\"172\" width=\"349\"/>\\u000a            <vstem pos=\"803\" width=\"327\"/>\\u000a          </hintset>\\u000a        </hintSetList>\\u000a      </data>
p7
g4
tp8
Rp9
Ntp10
s."
EndChar
StartChar: seven
Encoding: 440 55 440
GlifName: seven
Width: 1300
VWidth: 0
Flags: W
LayerCount: 2
Fore
SplineSet
140 1272 m 257,0,-1
NamedP: "hr00"
 776 1272 l 257,1,2
 760 1229 760 1229 672 1086 c 256,3,4
 419 678 419 678 364 418 c 256,5,6
 340 309 340 309 340 0 c 257,7,-1
 677 0 l 257,8,9
 677 250 677 250 688 346 c 256,10,11
 697 417 697 417 724 497.5 c 0,12,13
 751 578 751 578 798.5 671 c 0,14,15
 846 764 846 764 879 822 c 0,16,17
 912 880 912 880 969 976 c 257,18,19
 1057 1118 1057 1118 1102 1205 c 0,20,21
 1147 1292 1147 1292 1147 1339 c 258,22,-1
 1147 1500 l 257,23,-1
 140 1500 l 257,24,-1
 140 1272 l 257,0,-1
NamedP: "hr00"
EndSplineSet
PickledDataWithLists: "(dp0
Vcom.adobe.type.autohint
p1
(c_codecs
encode
p2
(Vdata
p3
Vlatin1
p4
tp5
Rp6
g2
(V<data>\\u000a        <hintSetList>\\u000a          <hintset pointTag=\"hr00\">\\u000a            <hstem pos=\"21\" width=\"-21\"/>\\u000a            <hstem pos=\"1272\" width=\"228\"/>\\u000a          </hintset>\\u000a        </hintSetList>\\u000a      </data>
p7
g4
tp8
Rp9
Ntp10
s."
EndChar
StartChar: eight
Encoding: 225 56 225
GlifName: eight
Width: 1300
VWidth: 0
Flags: W
LayerCount: 2
Fore
SplineSet
616 1517 m 256,0,1
 554 1517 554 1517 491 1502.5 c 0,2,3
 428 1488 428 1488 367.5 1456.5 c 0,4,5
 307 1425 307 1425 260 1380.5 c 0,6,7
 213 1336 213 1336 184 1269.5 c 0,8,9
 155 1203 155 1203 155 1124 c 256,10,11
 155 975 155 975 370 848 c 257,12,13
 238 786 238 786 160 682 c 0,14,15
 82 578 82 578 82 441 c 256,16,17
NamedP: "180"
 82 354 82 354 111.5 279 c 0,18,19
 141 204 141 204 192.5 150.5 c 0,20,21
 244 97 244 97 312.5 58.5 c 0,22,23
 381 20 381 20 459.5 1.5 c 0,24,25
 538 -17 538 -17 622 -17 c 256,26,27
 732 -17 732 -17 831 10 c 0,28,29
 930 37 930 37 1010.5 89 c 0,30,31
 1091 141 1091 141 1139 228.5 c 0,32,33
 1187 316 1187 316 1187 427 c 256,34,35
 1187 562 1187 562 1100 668.5 c 0,36,37
 1013 775 1013 775 870 844 c 257,38,39
 1094 973 1094 973 1094 1134 c 256,40,41
NamedP: "176"
 1094 1309 1094 1309 960 1413 c 0,42,43
 826 1517 826 1517 616 1517 c 256,0,1
862 422 m 256,44,45
NamedP: "6"
 862 322 862 322 790.5 261 c 0,46,47
 719 200 719 200 623 200 c 256,48,49
 541 200 541 200 473.5 264 c 0,50,51
 406 328 406 328 406 421 c 256,52,53
 406 614 406 614 607 711 c 257,54,55
 862 592 862 592 862 422 c 256,44,45
NamedP: "6"
475 1156 m 256,56,57
NamedP: "5"
 475 1215 475 1215 525 1257.5 c 0,58,59
 575 1300 575 1300 634 1300 c 256,60,61
 682 1300 682 1300 728 1260.5 c 0,62,63
 774 1221 774 1221 774 1152 c 256,64,65
 774 1037 774 1037 643 964 c 257,66,67
 475 1042 475 1042 475 1156 c 256,56,57
NamedP: "5"
EndSplineSet
PickledDataWithLists: "(dp0
Vcom.adobe.type.autohint
p1
(c_codecs
encode
p2
(Vdata
p3
Vlatin1
p4
tp5
Rp6
g2
(V<data>\\u000a        <hintSetList>\\u000a          <hintset pointTag=\"hr01\">\\u000a            <hstem pos=\"-17\" width=\"217\"/>\\u000a            <hstem pos=\"1300\" width=\"217\"/>\\u000a            <vstem pos=\"82\" width=\"324\"/>\\u000a            <vstem pos=\"862\" width=\"325\"/>\\u000a          </hintset>\\u000a          <hintset pointTag=\"hr02\">\\u000a            <hstem pos=\"-17\" width=\"217\"/>\\u000a            <hstem pos=\"1300\" width=\"217\"/>\\u000a            <vstem pos=\"82\" width=\"324\"/>\\u000a            <vstem pos=\"774\" width=\"320\"/>\\u000a          </hintset>\\u000a          <hintset pointTag=\"hr03\">\\u000a            <hstem pos=\"-17\" width=\"217\"/>\\u000a            <hstem pos=\"1300\" width=\"217\"/>\\u000a            <vstem pos=\"82\" width=\"324\"/>\\u000a            <vstem pos=\"862\" width=\"325\"/>\\u000a          </hintset>\\u000a          <hintset pointTag=\"hr04\">\\u000a            <hstem pos=\"-17\" width=\"217\"/>\\u000a            <hstem pos=\"1300\" width=\"217\"/>\\u000a            <vstem pos=\"155\" width=\"320\"/>\\u000a            <vstem pos=\"774\" width=\"320\"/>\\u000a          </hintset>\\u000a        </hintSetList>\\u000a      </data>
p7
g4
tp8
Rp9
Ntp10
s."
EndChar
StartChar: semicolon
Encoding: 438 59 438
GlifName: semicolon
Width: 1300
VWidth: 0
Flags: W
LayerCount: 2
Fore
SplineSet
122 156 m 257,0,1
NamedP: "ah03"
 122 191 122 191 136 222.5 c 128,-1,2
 150 254 150 254 174.5 277.5 c 128,-1,3
 199 301 199 301 231.5 315 c 128,-1,4
 264 329 264 329 300 329 c 257,5,6
NamedP: "av03"
 334 329 334 329 366 316.5 c 128,-1,7
 398 304 398 304 423 279.5 c 128,-1,8
 448 255 448 255 463 219 c 128,-1,9
 478 183 478 183 478 136 c 257,10,11
NamedP: "ah04"
 478 73 478 73 470 12.5 c 128,-1,12
 462 -48 462 -48 437.5 -108.5 c 128,-1,13
 413 -169 413 -169 367.5 -232.5 c 128,-1,14
 322 -296 322 -296 247 -365 c 257,15,-1
NamedP: "av04"
 185 -337 l 257,16,17
 199 -311 199 -311 211 -283.5 c 128,-1,18
 223 -256 223 -256 234 -228 c 257,19,20
 252 -180 252 -180 267 -125.5 c 128,-1,21
 282 -71 282 -71 282 -17 c 257,22,23
NamedP: "ab01"
 252 -16 252 -16 223 -4.5 c 128,-1,24
 194 7 194 7 171.5 29 c 128,-1,25
 149 51 149 51 135.5 82.5 c 128,-1,26
 122 114 122 114 122 156 c 257,0,1
NamedP: "ah03"
103 700 m 257,27,28
NamedP: "ah01"
 103 741 103 741 118.5 777 c 128,-1,29
 134 813 134 813 161 840 c 128,-1,30
 188 867 188 867 223.5 882.5 c 128,-1,31
 259 898 259 898 300 898 c 257,32,33
NamedP: "av01"
 341 898 341 898 377 882.5 c 128,-1,34
 413 867 413 867 440 840 c 128,-1,35
 467 813 467 813 482.5 777 c 128,-1,36
 498 741 498 741 498 700 c 257,37,38
NamedP: "ah02"
 498 659 498 659 482.5 622.5 c 128,-1,39
 467 586 467 586 440.5 559 c 128,-1,40
 414 532 414 532 378 516 c 128,-1,41
 342 500 342 500 302 500 c 257,42,43
NamedP: "av02"
 261 500 261 500 224.5 516 c 128,-1,44
 188 532 188 532 161 559 c 128,-1,45
 134 586 134 586 118.5 622.5 c 128,-1,46
 103 659 103 659 103 700 c 257,27,28
NamedP: "ah01"
EndSplineSet
PickledDataWithLists: "(dp0
Vcom.adobe.type.autohint
p1
(c_codecs
encode
p2
(Vdata
p3
Vlatin1
p4
tp5
Rp6
g2
(V<data>\\u000a        <hintSetList/>\\u000a      </data>
p7
g4
tp8
Rp9
Ntp10
sVcom.fontlab.ttprogram
p11
(g2
(Vdata
p12
g4
tp13
Rp14
g2
(V<data>\\u000a        <ttProgram>\\u000a          <ttc align=\"round\" code=\"alignh\" point=\"ah01\"/>\\u000a          <ttc align=\"round\" code=\"alignh\" point=\"ah02\"/>\\u000a          <ttc align=\"round\" code=\"alignh\" point=\"ah03\"/>\\u000a          <ttc align=\"round\" code=\"alignh\" point=\"ah04\"/>\\u000a          <ttc align=\"round\" code=\"alignv\" point=\"av01\"/>\\u000a          <ttc align=\"round\" code=\"alignv\" point=\"av02\"/>\\u000a          <ttc align=\"round\" code=\"alignv\" point=\"av03\"/>\\u000a          <ttc align=\"round\" code=\"alignv\" point=\"av04\"/>\\u000a          <ttc code=\"alignb\" point=\"ab01\" zone=\"b: 0\"/>\\u000a        </ttProgram>\\u000a      </data>
p15
g4
tp16
Rp17
Ntp18
s."
EndChar
StartChar: A
Encoding: 1 65 1
GlifName: A_
Width: 1300
VWidth: 0
Flags: W
LayerCount: 2
Fore
SplineSet
50 0 m 257,0,-1
NamedP: "sh02"
 405 1284 l 257,1,-1
 441 1500 l 257,2,-1
 819 1520 l 257,3,-1
NamedP: "at01"
 1250 0 l 257,4,-1
NamedP: "sh04"
 916 0 l 257,5,-1
NamedP: "sh03"
 812 427 l 257,6,-1
NamedP: "dv01"
 470 427 l 257,7,-1
 369 0 l 257,8,-1
NamedP: "sh01"
 50 0 l 257,0,-1
NamedP: "sh02"
643 1331 m 257,9,-1
NamedP: "ah01"
 604 990 l 257,10,-1
 529 646 l 257,11,-1
NamedP: "ih01"
 753 646 l 257,12,-1
NamedP: "ih02"
 681 990 l 257,13,-1
 643 1331 l 257,9,-1
NamedP: "ah01"
EndSplineSet
PickledDataWithLists: "(dp0
Vcom.adobe.type.autohint
p1
(c_codecs
encode
p2
(Vdata
p3
Vlatin1
p4
tp5
Rp6
g2
(V<data>\\u000a        <hintSetList>\\u000a          <hintset pointTag=\"sh02\">\\u000a            <hstem pos=\"21\" width=\"-21\"/>\\u000a            <hstem pos=\"427\" width=\"219\"/>\\u000a            <hstem pos=\"1520\" width=\"-20\"/>\\u000a          </hintset>\\u000a        </hintSetList>\\u000a      </data>
p7
g4
tp8
Rp9
Ntp10
sVcom.fontlab.ttprogram
p11
(g2
(Vdata
p12
g4
tp13
Rp14
g2
(V<data>\\u000a        <ttProgram>\\u000a          <ttc align=\"round\" code=\"alignh\" point=\"ah01\"/>\\u000a          <ttc code=\"singleh\" point1=\"ah01\" point2=\"sh01\"/>\\u000a          <ttc code=\"singleh\" point1=\"sh01\" point2=\"sh02\" stem=\"eq X: dia Lite\"/>\\u000a          <ttc code=\"singleh\" point1=\"ah01\" point2=\"sh03\"/>\\u000a          <ttc code=\"singleh\" point1=\"sh03\" point2=\"sh04\" stem=\"eq X: dia Fat\"/>\\u000a          <ttc code=\"interpolateh\" point=\"ih01\" point1=\"ah01\" point2=\"sh01\"/>\\u000a          <ttc code=\"interpolateh\" point=\"ih02\" point1=\"ah01\" point2=\"sh03\"/>\\u000a          <ttc code=\"alignt\" point=\"at01\" zone=\"t: 1\"/>\\u000a          <ttc code=\"alignb\" point=\"sh02\" zone=\"b: 0\"/>\\u000a          <ttc code=\"alignb\" point=\"sh04\" zone=\"b: 0\"/>\\u000a          <ttc code=\"doublev\" point1=\"dv01\" point2=\"ih02\" stem=\"eq Y: 144\"/>\\u000a          <ttc code=\"interpolatev\" point=\"ah01\" point1=\"at01\" point2=\"sh02\"/>\\u000a        </ttProgram>\\u000a      </data>
p15
g4
tp16
Rp17
Ntp18
s."
EndChar
StartChar: F
Encoding: 26 70 26
GlifName: F_
Width: 1300
VWidth: 0
Flags: W
LayerCount: 2
Fore
SplineSet
551 0 m 257,0,-1
NamedP: "dh02"
 200 0 l 257,1,-1
NamedP: "dh01"
 200 1263 l 257,2,-1
 165 1500 l 257,3,-1
NamedP: "at01"
 1167 1500 l 257,4,-1
NamedP: "dh04"
 1140 1272 l 257,5,-1
NamedP: "sv01"
 536 1272 l 257,6,-1
 551 1134 l 257,7,-1
NamedP: "sh01"
 551 916 l 257,8,-1
 1064 916 l 257,9,-1
NamedP: "dh03"
 1064 703 l 257,10,-1
NamedP: "dv01"
 551 703 l 257,11,-1
 551 0 l 257,0,-1
NamedP: "dh02"
EndSplineSet
PickledDataWithLists: "(dp0
Vcom.adobe.type.autohint
p1
(c_codecs
encode
p2
(Vdata
p3
Vlatin1
p4
tp5
Rp6
g2
(V<data>\\u000a        <hintSetList>\\u000a          <hintset pointTag=\"dh02\">\\u000a            <hstem pos=\"21\" width=\"-21\"/>\\u000a            <hstem pos=\"703\" width=\"213\"/>\\u000a            <hstem pos=\"1272\" width=\"228\"/>\\u000a            <vstem pos=\"200\" width=\"351\"/>\\u000a          </hintset>\\u000a        </hintSetList>\\u000a      </data>
p7
g4
tp8
Rp9
Ntp10
sVcom.fontlab.ttprogram
p11
(g2
(Vdata
p12
g4
tp13
Rp14
g2
(V<data>\\u000a        <ttProgram>\\u000a          <ttc code=\"doubleh\" point1=\"dh01\" point2=\"dh02\" stem=\"eq X: 208\"/>\\u000a          <ttc code=\"doubleh\" point1=\"dh03\" point2=\"dh04\" stem=\"eq X: ecart du B\"/>\\u000a          <ttc code=\"singleh\" point1=\"dh02\" point2=\"sh01\"/>\\u000a          <ttc code=\"alignt\" point=\"at01\" zone=\"t: 1\"/>\\u000a          <ttc code=\"alignb\" point=\"dh02\" zone=\"b: 0\"/>\\u000a          <ttc code=\"doublev\" point1=\"dh03\" point2=\"dv01\" stem=\"eq Y: 144\"/>\\u000a          <ttc code=\"singlev\" point1=\"at01\" point2=\"sv01\" stem=\"eq Y: 162\"/>\\u000a        </ttProgram>\\u000a      </data>
p15
g4
tp16
Rp17
Ntp18
s."
EndChar
StartChar: G
Encoding: 27 71 27
GlifName: G_
Width: 1300
VWidth: 0
Flags: W
LayerCount: 2
Fore
SplineSet
1251 221 m 257,0,1
NamedP: "sh01"
 1206 171 1206 171 1150 127.5 c 128,-1,2
 1094 84 1094 84 1026 52 c 128,-1,3
 958 20 958 20 878.5 1.5 c 128,-1,4
 799 -17 799 -17 708 -17 c 257,5,6
NamedP: "ab01"
 553 -17 553 -17 430 45.5 c 128,-1,7
 307 108 307 108 221 215 c 128,-1,8
 135 322 135 322 89.5 465 c 128,-1,9
 44 608 44 608 44 769 c 257,10,11
NamedP: "sh02"
 44 870 44 870 62 964.5 c 128,-1,12
 80 1059 80 1059 117 1142.5 c 128,-1,13
 154 1226 154 1226 210.5 1294.5 c 128,-1,14
 267 1363 267 1363 343 1412.5 c 128,-1,15
 419 1462 419 1462 515.5 1489.5 c 128,-1,16
 612 1517 612 1517 730 1517 c 257,17,18
NamedP: "at01"
 860 1517 860 1517 977 1473 c 128,-1,19
 1094 1429 1094 1429 1182 1344 c 257,20,-1
NamedP: "ah02"
 1034 1170 l 257,21,22
NamedP: "mh01"
 1001 1192 1001 1192 965 1212 c 128,-1,23
NamedP: "mv01"
 929 1232 929 1232 891.5 1247 c 128,-1,24
NamedP: "mh02"
 854 1262 854 1262 817 1271 c 128,-1,25
 780 1280 780 1280 745 1280 c 257,26,27
NamedP: "sv01"
 650 1280 650 1280 583.5 1239.5 c 128,-1,28
NamedP: "mh03"
 517 1199 517 1199 475 1129.5 c 128,-1,29
 433 1060 433 1060 414 967.5 c 128,-1,30
 395 875 395 875 395 772 c 257,31,32
NamedP: "sh03"
 395 711 395 711 403.5 646.5 c 128,-1,33
 412 582 412 582 429.5 520.5 c 128,-1,34
 447 459 447 459 474.5 405 c 128,-1,35
 502 351 502 351 539.5 310 c 128,-1,36
 577 269 577 269 625 245 c 128,-1,37
 673 221 673 221 733 221 c 257,38,39
NamedP: "sv02"
 758 221 758 221 784.5 227 c 128,-1,40
 811 233 811 233 835.5 242.5 c 128,-1,41
 860 252 860 252 881.5 264 c 128,-1,42
 903 276 903 276 919 289 c 257,43,-1
NamedP: "ah01"
 919 616 l 257,44,-1
NamedP: "sv03"
 625 635 l 257,45,-1
 625 840 l 257,46,-1
 1251 840 l 257,47,-1
NamedP: "av01"
 1251 221 l 257,0,1
NamedP: "sh01"
EndSplineSet
PickledDataWithLists: "(dp0
Vcom.adobe.type.autohint
p1
(c_codecs
encode
p2
(Vdata
p3
Vlatin1
p4
tp5
Rp6
g2
(V<data>\\u000a        <hintSetList>\\u000a          <hintset pointTag=\"sh01\">\\u000a            <hstem pos=\"-17\" width=\"238\"/>\\u000a            <hstem pos=\"625\" width=\"215\"/>\\u000a            <hstem pos=\"1280\" width=\"237\"/>\\u000a            <vstem pos=\"44\" width=\"351\"/>\\u000a            <vstem pos=\"919\" width=\"332\"/>\\u000a          </hintset>\\u000a        </hintSetList>\\u000a      </data>
p7
g4
tp8
Rp9
Ntp10
sVcom.fontlab.ttprogram
p11
(g2
(Vdata
p12
g4
tp13
Rp14
g2
(V<data>\\u000a        <ttProgram>\\u000a          <ttc align=\"round\" code=\"alignh\" point=\"lsb\"/>\\u000a          <ttc align=\"round\" code=\"alignh\" point=\"ah01\"/>\\u000a          <ttc align=\"round\" code=\"alignh\" point=\"ah02\"/>\\u000a          <ttc code=\"singleh\" point1=\"ah01\" point2=\"sh01\" stem=\"eq X: 208\"/>\\u000a          <ttc code=\"singleh\" point1=\"lsb\" point2=\"sh02\" round=\"true\"/>\\u000a          <ttc code=\"mdeltah\" delta=\"-6\" point=\"ah02\" ppm1=\"20\" ppm2=\"20\"/>\\u000a          <ttc code=\"mdeltah\" delta=\"-5\" point=\"ah02\" ppm1=\"24\" ppm2=\"24\"/>\\u000a          <ttc code=\"mdeltah\" delta=\"-7\" point=\"ah02\" ppm1=\"27\" ppm2=\"27\"/>\\u000a          <ttc code=\"mdeltah\" delta=\"-8\" point=\"ah02\" ppm1=\"28\" ppm2=\"28\"/>\\u000a          <ttc code=\"mdeltah\" delta=\"-1\" point=\"mh01\" ppm1=\"20\" ppm2=\"20\"/>\\u000a          <ttc code=\"mdeltah\" delta=\"-1\" point=\"mh02\" ppm1=\"19\" ppm2=\"19\"/>\\u000a          <ttc code=\"mdeltah\" delta=\"5\" point=\"mh03\" ppm1=\"19\" ppm2=\"19\"/>\\u000a          <ttc code=\"singleh\" point1=\"sh02\" point2=\"sh03\" stem=\"eq X: 208\"/>\\u000a          <ttc code=\"singleh\" point1=\"sh01\" point2=\"rsb\" round=\"true\"/>\\u000a          <ttc align=\"round\" code=\"alignv\" point=\"av01\"/>\\u000a          <ttc code=\"alignt\" point=\"at01\" zone=\"t: 1\"/>\\u000a          <ttc code=\"alignb\" point=\"ab01\" zone=\"b: 0\"/>\\u000a          <ttc code=\"doublev\" point1=\"ah02\" point2=\"mh01\" stem=\"eq Y: 171\"/>\\u000a          <ttc code=\"mdeltav\" delta=\"1\" point=\"ah02\" ppm1=\"27\" ppm2=\"28\"/>\\u000a          <ttc code=\"mdeltav\" delta=\"-5\" point=\"mh01\" ppm1=\"27\" ppm2=\"27\"/>\\u000a          <ttc code=\"mdeltav\" delta=\"-6\" point=\"mh01\" ppm1=\"28\" ppm2=\"28\"/>\\u000a          <ttc code=\"mdeltav\" delta=\"-8\" point=\"mh01\" ppm1=\"20\" ppm2=\"20\"/>\\u000a          <ttc code=\"mdeltav\" delta=\"-2\" point=\"mv01\" ppm1=\"19\" ppm2=\"19\"/>\\u000a          <ttc code=\"mdeltav\" delta=\"-4\" point=\"mh02\" ppm1=\"19\" ppm2=\"19\"/>\\u000a          <ttc code=\"singlev\" point1=\"at01\" point2=\"sv01\" stem=\"eq Y: 171\"/>\\u000a          <ttc code=\"singlev\" point1=\"ab01\" point2=\"sv02\" stem=\"eq Y: 171\"/>\\u000a          <ttc code=\"singlev\" point1=\"av01\" point2=\"sv03\" stem=\"eq Y: 162\"/>\\u000a        </ttProgram>\\u000a      </data>
p15
g4
tp16
Rp17
Ntp18
s."
EndChar
StartChar: J
Encoding: 37 74 37
GlifName: J_
Width: 1300
VWidth: 0
Flags: W
LayerCount: 2
Fore
SplineSet
338 1500 m 257,0,-1
NamedP: "hr00"
 1110 1500 l 257,1,-1
NamedP: "ah01"
 1110 446 l 257,2,3
NamedP: "dh02"
 1110 261 1110 261 994 121 c 257,4,5
 967 88 967 88 927.5 62.5 c 128,-1,6
 888 37 888 37 840 19.5 c 128,-1,7
 792 2 792 2 736.5 -7.5 c 128,-1,8
 681 -17 681 -17 623 -17 c 257,9,10
NamedP: "ab01"
 526 -17 526 -17 452.5 0.5 c 128,-1,11
 379 18 379 18 323 48 c 128,-1,12
 267 78 267 78 224.5 117 c 128,-1,13
 182 156 182 156 146 200 c 257,14,-1
NamedP: "dv01"
 300 400 l 257,15,16
NamedP: "dv02"
 315 382 315 382 339 355.5 c 128,-1,17
 363 329 363 329 398 304.5 c 128,-1,18
 433 280 433 280 481 262 c 128,-1,19
 529 244 529 244 592 244 c 257,20,21
NamedP: "sv01"
 622 244 622 244 652 253.5 c 128,-1,22
 682 263 682 263 705.5 286 c 128,-1,23
 729 309 729 309 744 347.5 c 128,-1,24
 759 386 759 386 759 444 c 257,25,-1
NamedP: "dh01"
 759 1132 l 257,26,-1
 779 1266 l 257,27,-1
 358 1266 l 257,28,-1
NamedP: "sh01"
 338 1500 l 257,0,-1
NamedP: "hr00"
EndSplineSet
PickledDataWithLists: "(dp0
Vcom.adobe.type.autohint
p1
(c_codecs
encode
p2
(Vdata
p3
Vlatin1
p4
tp5
Rp6
g2
(V<data>\\u000a        <hintSetList>\\u000a          <hintset pointTag=\"hr00\">\\u000a            <hstem pos=\"-17\" width=\"261\"/>\\u000a            <hstem pos=\"1266\" width=\"234\"/>\\u000a            <vstem pos=\"759\" width=\"351\"/>\\u000a          </hintset>\\u000a        </hintSetList>\\u000a      </data>
p7
g4
tp8
Rp9
Ntp10
sVcom.fontlab.ttprogram
p11
(g2
(Vdata
p12
g4
tp13
Rp14
g2
(V<data>\\u000a        <ttProgram>\\u000a          <ttc align=\"round\" code=\"alignh\" point=\"ah01\"/>\\u000a          <ttc code=\"doubleh\" point1=\"dh01\" point2=\"dh02\" stem=\"eq X: 208\"/>\\u000a          <ttc code=\"singleh\" point1=\"ah01\" point2=\"sh01\" round=\"true\"/>\\u000a          <ttc code=\"singleh\" point1=\"dh02\" point2=\"rsb\" round=\"true\"/>\\u000a          <ttc code=\"alignt\" point=\"ah01\" zone=\"t: 1\"/>\\u000a          <ttc code=\"alignb\" point=\"ab01\" zone=\"b: 0\"/>\\u000a          <ttc code=\"doublev\" point1=\"dv01\" point2=\"dv02\" stem=\"eq Y: 171\"/>\\u000a          <ttc code=\"singlev\" point1=\"ab01\" point2=\"sv01\" stem=\"eq Y: 171\"/>\\u000a          <ttc code=\"singlev\" point1=\"ah01\" point2=\"sh01\" stem=\"eq Y: 171\"/>\\u000a        </ttProgram>\\u000a      </data>
p15
g4
tp16
Rp17
Ntp18
s."
EndChar
StartChar: O
Encoding: 48 79 48
GlifName: O_
Width: 1300
VWidth: 0
Flags: W
LayerCount: 2
Fore
SplineSet
649 -17 m 261,0,1
NamedP: "ab01"
 551 -17 551 -17 468.5 10.5 c 132,-1,2
 386 38 386 38 319.5 88.5 c 132,-1,3
 253 139 253 139 202.5 209 c 132,-1,4
 152 279 152 279 118 364.5 c 132,-1,5
 84 450 84 450 67 547.5 c 132,-1,6
 50 645 50 645 50 750 c 261,7,8
NamedP: "ah01"
 50 907 50 907 87 1047 c 132,-1,9
 124 1187 124 1187 198.5 1291 c 132,-1,10
 273 1395 273 1395 385.5 1456 c 132,-1,11
 498 1517 498 1517 649 1517 c 261,12,13
NamedP: "at01"
 796 1517 796 1517 907.5 1456 c 132,-1,14
 1019 1395 1019 1395 1094.5 1291 c 132,-1,15
 1170 1187 1170 1187 1208.5 1047 c 132,-1,16
 1247 907 1247 907 1247 750 c 261,17,18
NamedP: "ah02"
 1247 645 1247 645 1230.5 547.5 c 132,-1,19
 1214 450 1214 450 1181 364.5 c 132,-1,20
 1148 279 1148 279 1098.5 209 c 132,-1,21
 1049 139 1049 139 982.5 88.5 c 132,-1,22
 916 38 916 38 832.5 10.5 c 132,-1,23
 749 -17 749 -17 649 -17 c 261,0,1
NamedP: "ab01"
897 721 m 261,24,25
NamedP: "sh01"
 897 783 897 783 893.5 848 c 132,-1,26
 890 913 890 913 880.5 974.5 c 132,-1,27
 871 1036 871 1036 853.5 1090.5 c 132,-1,28
 836 1145 836 1145 807.5 1186 c 132,-1,29
 779 1227 779 1227 738.5 1250.5 c 132,-1,30
 698 1274 698 1274 643 1274 c 261,31,32
NamedP: "sv01"
 591 1274 591 1274 553 1252.5 c 132,-1,33
 515 1231 515 1231 488 1194.5 c 132,-1,34
 461 1158 461 1158 443.5 1109.5 c 132,-1,35
 426 1061 426 1061 416.5 1006.5 c 132,-1,36
 407 952 407 952 403.5 894.5 c 132,-1,37
 400 837 400 837 400 783 c 261,38,39
NamedP: "sh02"
 400 720 400 720 403.5 654.5 c 132,-1,40
 407 589 407 589 417 527 c 132,-1,41
 427 465 427 465 444.5 410.5 c 132,-1,42
 462 356 462 356 490 315 c 132,-1,43
 518 274 518 274 558.5 250 c 132,-1,44
 599 226 599 226 654 226 c 261,45,46
NamedP: "sv02"
 706 226 706 226 744 247.5 c 132,-1,47
 782 269 782 269 809 306.5 c 132,-1,48
 836 344 836 344 853 393 c 132,-1,49
 870 442 870 442 880 497 c 132,-1,50
 890 552 890 552 893.5 609.5 c 132,-1,51
 897 667 897 667 897 721 c 261,24,25
NamedP: "sh01"
EndSplineSet
PickledDataWithLists: "(dp0
Vcom.adobe.type.autohint
p1
(c_codecs
encode
p2
(Vdata
p3
Vlatin1
p4
tp5
Rp6
g2
(V<data>\\u000a        <hintSetList>\\u000a          <hintset pointTag=\"ab01\">\\u000a            <hstem pos=\"-17\" width=\"243\"/>\\u000a            <hstem pos=\"1274\" width=\"243\"/>\\u000a            <vstem pos=\"50\" width=\"350\"/>\\u000a            <vstem pos=\"897\" width=\"350\"/>\\u000a          </hintset>\\u000a        </hintSetList>\\u000a      </data>
p7
g4
tp8
Rp9
Ntp10
sVcom.fontlab.ttprogram
p11
(g2
(Vdata
p12
g4
tp13
Rp14
g2
(V<data>\\u000a        <ttProgram>\\u000a          <ttc align=\"round\" code=\"alignh\" point=\"ah01\"/>\\u000a          <ttc align=\"round\" code=\"alignh\" point=\"ah02\"/>\\u000a          <ttc code=\"singleh\" point1=\"ah02\" point2=\"sh01\" stem=\"eq X: 208\"/>\\u000a          <ttc code=\"singleh\" point1=\"ah01\" point2=\"sh02\" stem=\"eq X: 208\"/>\\u000a          <ttc code=\"alignt\" point=\"at01\" zone=\"t: 1\"/>\\u000a          <ttc code=\"alignb\" point=\"ab01\" zone=\"b: 0\"/>\\u000a          <ttc code=\"singlev\" point1=\"at01\" point2=\"sv01\" stem=\"eq Y: 171\"/>\\u000a          <ttc code=\"singlev\" point1=\"ab01\" point2=\"sv02\" stem=\"eq Y: 171\"/>\\u000a        </ttProgram>\\u000a      </data>
p15
g4
tp16
Rp17
Ntp18
s."
EndChar
StartChar: Q
Encoding: 62 81 62
GlifName: Q_
Width: 1300
VWidth: 0
Flags: W
LayerCount: 2
Fore
SplineSet
393 783 m 257,0,1
NamedP: "dh02"
 394 723 394 723 396 659.5 c 128,-1,2
 398 596 398 596 405.5 535.5 c 128,-1,3
 413 475 413 475 427.5 421 c 128,-1,4
 442 367 442 367 468 326.5 c 128,-1,5
 494 286 494 286 534 262.5 c 128,-1,6
 574 239 574 239 632 239 c 257,7,8
NamedP: "sv01"
 620 261 620 261 601.5 298 c 128,-1,9
 583 335 583 335 563.5 374 c 128,-1,10
 544 413 544 413 527 447.5 c 128,-1,11
 510 482 510 482 500 500 c 257,12,-1
NamedP: "mh01"
 727 601 l 257,13,-1
 877 300 l 257,14,-1
NamedP: "mv01"
 877 500 l 257,15,16
 887 548 887 548 896.5 609 c 128,-1,17
 906 670 906 670 906 751 c 257,18,19
NamedP: "dh03"
 906 813 906 813 901 876 c 128,-1,20
 896 939 896 939 884.5 997.5 c 128,-1,21
 873 1056 873 1056 853.5 1107.5 c 128,-1,22
 834 1159 834 1159 805 1197 c 128,-1,23
 776 1235 776 1235 736 1257 c 128,-1,24
 696 1279 696 1279 644 1279 c 257,25,26
NamedP: "sv02"
 595 1279 595 1279 557 1257.5 c 128,-1,27
 519 1236 519 1236 491 1199 c 128,-1,28
 463 1162 463 1162 444.5 1112.5 c 128,-1,29
 426 1063 426 1063 414.5 1008 c 128,-1,30
 403 953 403 953 398 895 c 128,-1,31
 393 837 393 837 393 783 c 257,0,1
NamedP: "dh02"
1200 -180 m 257,32,33
NamedP: "ah01"
 1104 -180 1104 -180 1033 -169.5 c 128,-1,34
 962 -159 962 -159 904.5 -129 c 128,-1,35
 847 -99 847 -99 798.5 -44 c 128,-1,36
 750 11 750 11 700 100 c 257,37,-1
 700 -11 l 257,38,39
 649 -17 649 -17 602 -17 c 257,40,41
NamedP: "ab01"
 465 -17 465 -17 362 46.5 c 128,-1,42
 259 110 259 110 190 216.5 c 128,-1,43
 121 323 121 323 86 461.5 c 128,-1,44
 51 600 51 600 51 750 c 257,45,46
NamedP: "dh01"
 51 907 51 907 88 1047 c 128,-1,47
 125 1187 125 1187 199.5 1291 c 128,-1,48
 274 1395 274 1395 386.5 1456 c 128,-1,49
 499 1517 499 1517 650 1517 c 257,50,51
NamedP: "at01"
 797 1517 797 1517 908.5 1461 c 128,-1,52
 1020 1405 1020 1405 1095.5 1306.5 c 128,-1,53
 1171 1208 1171 1208 1209.5 1073 c 128,-1,54
 1248 938 1248 938 1248 780 c 257,55,56
NamedP: "dh04"
 1248 688 1248 688 1232 592.5 c 128,-1,57
 1216 497 1216 497 1184 410 c 128,-1,58
 1152 323 1152 323 1103.5 249.5 c 128,-1,59
 1055 176 1055 176 990 127 c 257,60,61
NamedP: "av01"
 1008 97 1008 97 1033 81 c 128,-1,62
 1058 65 1058 65 1086 58.5 c 128,-1,63
 1114 52 1114 52 1143.5 51 c 128,-1,64
 1173 50 1173 50 1200 50 c 257,65,-1
 1200 -180 l 257,32,33
NamedP: "ah01"
EndSplineSet
PickledDataWithLists: "(dp0
Vcom.adobe.type.autohint
p1
(c_codecs
encode
p2
(Vdata
p3
Vlatin1
p4
tp5
Rp6
g2
(V<data>\\u000a        <hintSetList>\\u000a          <hintset pointTag=\"dh02\">\\u000a            <hstem pos=\"-159\" width=\"-21\"/>\\u000a            <hstem pos=\"-17\" width=\"256\"/>\\u000a            <hstem pos=\"1279\" width=\"238\"/>\\u000a            <vstem pos=\"51\" width=\"342\"/>\\u000a            <vstem pos=\"906\" width=\"342\"/>\\u000a          </hintset>\\u000a        </hintSetList>\\u000a      </data>
p7
g4
tp8
Rp9
Ntp10
sVcom.fontlab.ttprogram
p11
(g2
(Vdata
p12
g4
tp13
Rp14
g2
(V<data>\\u000a        <ttProgram>\\u000a          <ttc align=\"round\" code=\"alignh\" point=\"ah01\"/>\\u000a          <ttc code=\"doubleh\" point1=\"dh01\" point2=\"dh02\" stem=\"eq X: 208\"/>\\u000a          <ttc code=\"doubleh\" point1=\"dh03\" point2=\"dh04\" stem=\"eq X: 208\"/>\\u000a          <ttc code=\"mdeltah\" delta=\"3\" point=\"mh01\" ppm1=\"23\" ppm2=\"23\"/>\\u000a          <ttc code=\"singleh\" point1=\"dh04\" point2=\"rsb\" round=\"true\"/>\\u000a          <ttc align=\"round\" code=\"alignv\" point=\"ah01\"/>\\u000a          <ttc align=\"round\" code=\"alignv\" point=\"av01\"/>\\u000a          <ttc code=\"alignt\" point=\"at01\" zone=\"t: 1\"/>\\u000a          <ttc code=\"alignb\" point=\"ab01\" zone=\"b: 0\"/>\\u000a          <ttc code=\"singlev\" point1=\"ab01\" point2=\"sv01\" stem=\"eq Y: 171\"/>\\u000a          <ttc code=\"mdeltav\" delta=\"3\" point=\"mv01\" ppm1=\"23\" ppm2=\"23\"/>\\u000a          <ttc code=\"singlev\" point1=\"at01\" point2=\"sv02\" stem=\"eq Y: 171\"/>\\u000a        </ttProgram>\\u000a      </data>
p15
g4
tp16
Rp17
Ntp18
s."
EndChar
StartChar: U
Encoding: 73 85 73
GlifName: U_
Width: 1300
VWidth: 0
Flags: W
LayerCount: 2
Fore
SplineSet
1160 1500 m 257,0,-1
NamedP: "at02"
 1160 534 l 257,1,2
NamedP: "sh01"
 1160 395 1160 395 1123 291.5 c 128,-1,3
 1086 188 1086 188 1016 119.5 c 128,-1,4
 946 51 946 51 845.5 17 c 128,-1,5
 745 -17 745 -17 619 -17 c 257,6,7
NamedP: "ih01"
 483 -17 483 -17 389 26 c 128,-1,8
 295 69 295 69 236.5 148 c 128,-1,9
 178 227 178 227 152 337.5 c 128,-1,10
 126 448 126 448 126 582 c 257,11,-1
NamedP: "sh02"
 126 1263 l 257,12,-1
 92 1500 l 257,13,-1
 458 1520 l 257,14,-1
NamedP: "at01"
 458 564 l 257,15,16
NamedP: "sh03"
 458 483 458 483 464.5 419 c 128,-1,17
 471 355 471 355 491.5 311 c 128,-1,18
 512 267 512 267 549.5 244 c 128,-1,19
 587 221 587 221 650 221 c 257,20,21
NamedP: "ih02"
 700 221 700 221 734 239.5 c 128,-1,22
 768 258 768 258 789 295 c 128,-1,23
 810 332 810 332 819 387 c 128,-1,24
 828 442 828 442 828 516 c 257,25,-1
NamedP: "ah01"
 828 1500 l 257,26,-1
 1160 1500 l 257,0,-1
NamedP: "at02"
EndSplineSet
PickledDataWithLists: "(dp0
Vcom.adobe.type.autohint
p1
(c_codecs
encode
p2
(Vdata
p3
Vlatin1
p4
tp5
Rp6
g2
(V<data>\\u000a        <hintSetList>\\u000a          <hintset pointTag=\"at02\">\\u000a            <hstem pos=\"-17\" width=\"238\"/>\\u000a            <hstem pos=\"1520\" width=\"-20\"/>\\u000a            <vstem pos=\"126\" width=\"332\"/>\\u000a            <vstem pos=\"828\" width=\"332\"/>\\u000a          </hintset>\\u000a        </hintSetList>\\u000a      </data>
p7
g4
tp8
Rp9
Ntp10
sVcom.fontlab.ttprogram
p11
(g2
(Vdata
p12
g4
tp13
Rp14
g2
(V<data>\\u000a        <ttProgram>\\u000a          <ttc align=\"round\" code=\"alignh\" point=\"lsb\"/>\\u000a          <ttc align=\"round\" code=\"alignh\" point=\"ah01\"/>\\u000a          <ttc code=\"singleh\" point1=\"ah01\" point2=\"sh01\" stem=\"eq X: 208\"/>\\u000a          <ttc code=\"singleh\" point1=\"sh01\" point2=\"rsb\" round=\"true\"/>\\u000a          <ttc code=\"interpolateh\" point=\"ih01\" point1=\"lsb\" point2=\"rsb\"/>\\u000a          <ttc code=\"singleh\" point1=\"lsb\" point2=\"sh02\" round=\"true\"/>\\u000a          <ttc code=\"singleh\" point1=\"sh02\" point2=\"sh03\" stem=\"eq X: 208\"/>\\u000a          <ttc code=\"interpolateh\" point=\"ih02\" point1=\"lsb\" point2=\"rsb\"/>\\u000a          <ttc code=\"alignt\" point=\"at01\" zone=\"t: 1\"/>\\u000a          <ttc code=\"alignt\" point=\"at02\" zone=\"t: 1\"/>\\u000a          <ttc code=\"alignb\" point=\"ih01\" zone=\"b: 0\"/>\\u000a          <ttc code=\"singlev\" point1=\"ih01\" point2=\"ih02\" stem=\"eq Y: 171\"/>\\u000a        </ttProgram>\\u000a      </data>
p15
g4
tp16
Rp17
Ntp18
s."
EndChar
StartChar: backslash
Encoding: 132 92 132
GlifName: backslash
Width: 1300
VWidth: 0
Flags: W
LayerCount: 2
Fore
SplineSet
93 1600 m 257,0,-1
NamedP: "hr00"
 435 1600 l 257,1,-1
 1141 -100 l 257,2,-1
 788 -100 l 257,3,-1
 93 1600 l 257,0,-1
NamedP: "hr00"
EndSplineSet
PickledDataWithLists: "(dp0
Vcom.adobe.type.autohint
p1
(c_codecs
encode
p2
(Vdata
p3
Vlatin1
p4
tp5
Rp6
g2
(V<data>\\u000a        <hintSetList>\\u000a          <hintset pointTag=\"hr00\">\\u000a            <hstem pos=\"-79\" width=\"-21\"/>\\u000a            <hstem pos=\"1600\" width=\"-20\"/>\\u000a          </hintset>\\u000a        </hintSetList>\\u000a      </data>
p7
g4
tp8
Rp9
Ntp10
s."
EndChar
StartChar: bracketright
Encoding: 159 93 159
GlifName: bracketright
Width: 1300
VWidth: 0
Flags: W
LayerCount: 2
Fore
SplineSet
1041 -166 m 257,0,-1
NamedP: "hr00"
 1067 -398 l 257,1,-1
 367 -398 l 257,2,-1
 367 -179 l 257,3,-1
 716 -179 l 257,4,-1
 701 -31 l 257,5,-1
 701 1154 l 257,6,-1
 716 1302 l 257,7,-1
 367 1302 l 257,8,-1
 367 1520 l 257,9,-1
 1067 1520 l 257,10,-1
 1041 1288 l 257,11,-1
 1041 -166 l 257,0,-1
NamedP: "hr00"
EndSplineSet
PickledDataWithLists: "(dp0
Vcom.adobe.type.autohint
p1
(c_codecs
encode
p2
(Vdata
p3
Vlatin1
p4
tp5
Rp6
g2
(V<data>\\u000a        <hintSetList>\\u000a          <hintset pointTag=\"hr00\">\\u000a            <hstem pos=\"-398\" width=\"219\"/>\\u000a            <hstem pos=\"1302\" width=\"218\"/>\\u000a            <vstem pos=\"701\" width=\"340\"/>\\u000a          </hintset>\\u000a        </hintSetList>\\u000a      </data>
p7
g4
tp8
Rp9
Ntp10
s."
EndChar
StartChar: g
Encoding: 264 103 264
GlifName: g
Width: 1300
VWidth: 0
Flags: W
LayerCount: 2
Fore
SplineSet
828 16 m 257,0,1
NamedP: "ah02"
 796 2 796 2 747.5 -7.5 c 128,-1,2
 699 -17 699 -17 641 -17 c 257,3,4
NamedP: "ab02"
 574 -17 574 -17 509.5 3 c 128,-1,5
 445 23 445 23 387.5 60 c 128,-1,6
 330 97 330 97 282 148.5 c 128,-1,7
 234 200 234 200 199 262.5 c 128,-1,8
 164 325 164 325 144.5 396.5 c 128,-1,9
 125 468 125 468 125 545 c 257,10,11
NamedP: "sh01"
 125 662 125 662 164 766 c 128,-1,12
 203 870 203 870 276 948 c 128,-1,13
 349 1026 349 1026 452 1071.5 c 128,-1,14
 555 1117 555 1117 684 1117 c 257,15,16
NamedP: "at01"
 702 1117 702 1117 714 1116.5 c 128,-1,17
 726 1116 726 1116 736 1114 c 257,18,-1
 827 958 l 257,19,-1
NamedP: "sh02"
 827 1120 l 257,20,-1
NamedP: "at02"
 1153 1100 l 257,21,-1
 1153 -41 l 257,22,23
NamedP: "sh03"
 1153 -140 1153 -140 1115 -226.5 c 128,-1,24
 1077 -313 1077 -313 1007 -377.5 c 128,-1,25
 937 -442 937 -442 837.5 -479.5 c 128,-1,26
 738 -517 738 -517 614 -517 c 257,27,28
NamedP: "ab01"
 549 -517 549 -517 494.5 -506.5 c 128,-1,29
 440 -496 440 -496 393 -476 c 128,-1,30
 346 -456 346 -456 305 -426.5 c 128,-1,31
 264 -397 264 -397 225 -359 c 257,32,-1
 369 -192 l 257,33,34
 385 -206 385 -206 411 -223.5 c 128,-1,35
NamedP: "sh05"
 437 -241 437 -241 468.5 -256.5 c 128,-1,36
 500 -272 500 -272 535.5 -282.5 c 128,-1,37
 571 -293 571 -293 605 -293 c 257,38,39
NamedP: "sv03"
 647 -293 647 -293 687.5 -272.5 c 128,-1,40
 728 -252 728 -252 759 -216 c 128,-1,41
 790 -180 790 -180 809 -131.5 c 128,-1,42
 828 -83 828 -83 828 -27 c 257,43,-1
NamedP: "ah01"
 828 16 l 257,0,1
NamedP: "ah02"
827 820 m 257,44,45
NamedP: "sh06"
 799 852 799 852 761.5 876 c 128,-1,46
 724 900 724 900 679 900 c 257,47,48
NamedP: "sv02"
 619 900 619 900 576 864 c 128,-1,49
 533 828 533 828 505.5 773.5 c 128,-1,50
 478 719 478 719 465 655 c 128,-1,51
 452 591 452 591 452 534 c 257,52,53
NamedP: "sh04"
 452 463 452 463 470 402 c 128,-1,54
 488 341 488 341 517 296 c 128,-1,55
 546 251 546 251 582.5 225.5 c 128,-1,56
 619 200 619 200 656 200 c 257,57,58
NamedP: "sv01"
 715 200 715 200 755 225 c 128,-1,59
 795 250 795 250 827 287 c 257,60,-1
 827 820 l 257,44,45
NamedP: "sh06"
EndSplineSet
PickledDataWithLists: "(dp0
Vcom.adobe.type.autohint
p1
(c_codecs
encode
p2
(Vdata
p3
Vlatin1
p4
tp5
Rp6
g2
(V<data>\\u000a        <hintSetList>\\u000a          <hintset pointTag=\"sv02\">\\u000a            <hstem pos=\"-517\" width=\"224\"/>\\u000a            <hstem pos=\"-17\" width=\"217\"/>\\u000a            <hstem pos=\"900\" width=\"217\"/>\\u000a            <vstem pos=\"125\" width=\"327\"/>\\u000a            <vstem pos=\"827\" width=\"326\"/>\\u000a          </hintset>\\u000a        </hintSetList>\\u000a      </data>
p7
g4
tp8
Rp9
Ntp10
sVcom.fontlab.ttprogram
p11
(g2
(Vdata
p12
g4
tp13
Rp14
g2
(V<data>\\u000a        <ttProgram>\\u000a          <ttc align=\"round\" code=\"alignh\" point=\"lsb\"/>\\u000a          <ttc align=\"round\" code=\"alignh\" point=\"ah01\"/>\\u000a          <ttc align=\"round\" code=\"alignh\" point=\"ah02\"/>\\u000a          <ttc code=\"singleh\" point1=\"lsb\" point2=\"sh01\" round=\"true\"/>\\u000a          <ttc code=\"singleh\" point1=\"ah02\" point2=\"sh02\"/>\\u000a          <ttc code=\"singleh\" point1=\"ah01\" point2=\"sh03\" stem=\"eq X: 190\"/>\\u000a          <ttc code=\"singleh\" point1=\"sh01\" point2=\"sh04\" stem=\"eq X: 190\"/>\\u000a          <ttc code=\"singleh\" point1=\"sh04\" point2=\"sh05\" round=\"true\"/>\\u000a          <ttc code=\"singleh\" point1=\"ah02\" point2=\"sh06\"/>\\u000a          <ttc code=\"singleh\" point1=\"sh03\" point2=\"rsb\" round=\"true\"/>\\u000a          <ttc code=\"alignt\" point=\"at01\" zone=\"t: x\"/>\\u000a          <ttc code=\"alignt\" point=\"at02\" zone=\"t: x\"/>\\u000a          <ttc code=\"alignb\" point=\"ab01\" zone=\"b: -500\"/>\\u000a          <ttc code=\"alignb\" point=\"ab02\" zone=\"b: 0\"/>\\u000a          <ttc code=\"singlev\" point1=\"ab02\" point2=\"sv01\" stem=\"eq Y: 162\"/>\\u000a          <ttc code=\"interpolatev\" point=\"ah02\" point1=\"ab02\" point2=\"sv01\"/>\\u000a          <ttc code=\"singlev\" point1=\"at01\" point2=\"sv02\" stem=\"eq Y: 162\"/>\\u000a          <ttc code=\"interpolatev\" point=\"sh02\" point1=\"at01\" point2=\"sv02\"/>\\u000a          <ttc code=\"singlev\" point1=\"ab01\" point2=\"sv03\" stem=\"eq Y: 162\"/>\\u000a        </ttProgram>\\u000a      </data>
p15
g4
tp16
Rp17
Ntp18
s."
EndChar
StartChar: i
Encoding: 285 105 285
GlifName: i
Width: 1300
VWidth: 0
Flags: W
LayerCount: 2
Fore
SplineSet
455 1501 m 257,0,-1
NamedP: "sh01"
 792 1501 l 257,1,-1
NamedP: "sh02"
 792 1240 l 257,2,-1
NamedP: "sv01"
 455 1240 l 257,3,-1
 455 1501 l 257,0,-1
NamedP: "sh01"
534 916 m 257,4,-1
NamedP: "ah02"
 364 876 l 257,5,-1
 189 876 l 257,6,-1
 161 1100 l 257,7,-1
NamedP: "ah01"
 791 1100 l 257,8,-1
 791 423 l 257,9,10
NamedP: "dh02"
 791 382 791 382 801 347.5 c 128,-1,11
 811 313 811 313 829 288.5 c 128,-1,12
 847 264 847 264 872 250 c 128,-1,13
 897 236 897 236 927 236 c 257,14,15
NamedP: "av01"
 993 236 993 236 1043 258 c 128,-1,16
 1093 280 1093 280 1145 330 c 257,17,-1
NamedP: "av02"
 1204 98 l 257,18,19
NamedP: "ah03"
 1190 87 1190 87 1169 68 c 128,-1,20
 1148 49 1148 49 1113.5 30 c 128,-1,21
 1079 11 1079 11 1029 -3 c 128,-1,22
 979 -17 979 -17 908 -17 c 257,23,24
NamedP: "ab01"
 793 -17 793 -17 709.5 19 c 128,-1,25
 626 55 626 55 571.5 116.5 c 128,-1,26
 517 178 517 178 490.5 259.5 c 128,-1,27
 464 341 464 341 464 432 c 257,28,-1
NamedP: "dh01"
 464 826 l 257,29,-1
 534 916 l 257,4,-1
NamedP: "ah02"
EndSplineSet
PickledDataWithLists: "(dp0
Vcom.adobe.type.autohint
p1
(c_codecs
encode
p2
(Vdata
p3
Vlatin1
p4
tp5
Rp6
g2
(V<data>\\u000a        <hintSetList>\\u000a          <hintset pointTag=\"sh01\">\\u000a            <hstem pos=\"-17\" width=\"253\"/>\\u000a            <hstem pos=\"876\" width=\"224\"/>\\u000a            <hstem pos=\"1240\" width=\"261\"/>\\u000a            <vstem pos=\"464\" width=\"327\"/>\\u000a          </hintset>\\u000a        </hintSetList>\\u000a      </data>
p7
g4
tp8
Rp9
Ntp10
sVcom.fontlab.ttprogram
p11
(g2
(Vdata
p12
g4
tp13
Rp14
g2
(V<data>\\u000a        <ttProgram>\\u000a          <ttc align=\"round\" code=\"alignh\" point=\"ah01\"/>\\u000a          <ttc align=\"round\" code=\"alignh\" point=\"ah02\"/>\\u000a          <ttc align=\"round\" code=\"alignh\" point=\"ah03\"/>\\u000a          <ttc code=\"doubleh\" point1=\"dh01\" point2=\"dh02\" stem=\"eq X: 190\"/>\\u000a          <ttc code=\"singleh\" point1=\"dh01\" point2=\"sh01\"/>\\u000a          <ttc code=\"singleh\" point1=\"dh02\" point2=\"sh02\"/>\\u000a          <ttc align=\"round\" code=\"alignv\" point=\"av01\"/>\\u000a          <ttc align=\"round\" code=\"alignv\" point=\"ah02\"/>\\u000a          <ttc align=\"round\" code=\"alignv\" point=\"av02\"/>\\u000a          <ttc code=\"alignt\" point=\"sh01\" zone=\"t: 1\"/>\\u000a          <ttc code=\"alignb\" point=\"ab01\" zone=\"b: 0\"/>\\u000a          <ttc code=\"singlev\" point1=\"sh01\" point2=\"sv01\" round=\"true\"/>\\u000a          <ttc code=\"singlev\" point1=\"av02\" point2=\"ah03\" stem=\"eq Y: 162\"/>\\u000a        </ttProgram>\\u000a      </data>
p15
g4
tp16
Rp17
Ntp18
s."
EndChar
StartChar: j
Encoding: 298 106 298
GlifName: j
Width: 1300
VWidth: 0
Flags: W
LayerCount: 2
Fore
SplineSet
593 1501 m 257,0,-1
NamedP: "sh01"
 930 1501 l 257,1,-1
NamedP: "sh02"
 930 1240 l 257,2,-1
NamedP: "sv01"
 593 1240 l 257,3,-1
 593 1501 l 257,0,-1
NamedP: "sh01"
668 916 m 257,4,-1
NamedP: "ah01"
 498 876 l 257,5,-1
 323 876 l 257,6,-1
 295 1100 l 257,7,-1
NamedP: "ah02"
 925 1100 l 257,8,-1
 925 -68 l 257,9,10
NamedP: "dh02"
 925 -159 925 -159 898.5 -240.5 c 128,-1,11
 872 -322 872 -322 817.5 -383.5 c 128,-1,12
 763 -445 763 -445 679.5 -481 c 128,-1,13
 596 -517 596 -517 481 -517 c 257,14,15
NamedP: "ab01"
 410 -517 410 -517 360 -503 c 128,-1,16
 310 -489 310 -489 275.5 -470.5 c 128,-1,17
 241 -452 241 -452 219.5 -432.5 c 128,-1,18
 198 -413 198 -413 185 -402 c 257,19,-1
NamedP: "ah03"
 244 -170 l 257,20,21
NamedP: "av02"
 296 -220 296 -220 346 -242 c 128,-1,22
 396 -264 396 -264 462 -264 c 257,23,24
NamedP: "av01"
 492 -264 492 -264 517 -250 c 128,-1,25
 542 -236 542 -236 560 -211.5 c 128,-1,26
 578 -187 578 -187 588 -152.5 c 128,-1,27
 598 -118 598 -118 598 -77 c 257,28,-1
NamedP: "dh01"
 598 826 l 257,29,-1
 668 916 l 257,4,-1
NamedP: "ah01"
EndSplineSet
PickledDataWithLists: "(dp0
Vcom.adobe.type.autohint
p1
(c_codecs
encode
p2
(Vdata
p3
Vlatin1
p4
tp5
Rp6
g2
(V<data>\\u000a        <hintSetList>\\u000a          <hintset pointTag=\"sh01\">\\u000a            <hstem pos=\"-517\" width=\"253\"/>\\u000a            <hstem pos=\"876\" width=\"224\"/>\\u000a            <hstem pos=\"1240\" width=\"261\"/>\\u000a            <vstem pos=\"598\" width=\"327\"/>\\u000a          </hintset>\\u000a        </hintSetList>\\u000a      </data>
p7
g4
tp8
Rp9
Ntp10
sVcom.fontlab.ttprogram
p11
(g2
(Vdata
p12
g4
tp13
Rp14
g2
(V<data>\\u000a        <ttProgram>\\u000a          <ttc align=\"round\" code=\"alignh\" point=\"ah01\"/>\\u000a          <ttc align=\"round\" code=\"alignh\" point=\"ah02\"/>\\u000a          <ttc align=\"round\" code=\"alignh\" point=\"ah03\"/>\\u000a          <ttc code=\"doubleh\" point1=\"dh01\" point2=\"dh02\" stem=\"eq X: 190\"/>\\u000a          <ttc code=\"singleh\" point1=\"dh01\" point2=\"sh01\"/>\\u000a          <ttc code=\"singleh\" point1=\"dh02\" point2=\"sh02\"/>\\u000a          <ttc align=\"round\" code=\"alignv\" point=\"ah01\"/>\\u000a          <ttc align=\"round\" code=\"alignv\" point=\"av01\"/>\\u000a          <ttc align=\"round\" code=\"alignv\" point=\"av02\"/>\\u000a          <ttc code=\"alignt\" point=\"sh01\" zone=\"t: 1\"/>\\u000a          <ttc code=\"alignb\" point=\"ab01\" zone=\"b: -500\"/>\\u000a          <ttc code=\"singlev\" point1=\"sh01\" point2=\"sv01\"/>\\u000a          <ttc code=\"singlev\" point1=\"av02\" point2=\"ah03\" stem=\"eq Y: 162\"/>\\u000a        </ttProgram>\\u000a      </data>
p15
g4
tp16
Rp17
Ntp18
s."
EndChar
StartChar: k
Encoding: 299 107 299
GlifName: k
Width: 1300
VWidth: 0
Flags: W
LayerCount: 2
Fore
SplineSet
187 0 m 257,0,-1
NamedP: "ab01"
 187 1397 l 257,1,-1
NamedP: "sh01"
 165 1600 l 257,2,-1
 493 1631 l 257,3,-1
NamedP: "sh02"
 493 769 l 257,4,-1
NamedP: "sh03"
 758 1100 l 257,5,-1
NamedP: "ah01"
 1099 1100 l 257,6,-1
NamedP: "sh04"
 737 700 l 257,7,-1
 533 627 l 257,8,-1
NamedP: "iv01"
 722 564 l 257,9,-1
 1200 0 l 257,10,-1
NamedP: "sh05"
 852 0 l 257,11,-1
NamedP: "ah02"
 493 458 l 257,12,-1
NamedP: "sh06"
 493 0 l 257,13,-1
 187 0 l 257,0,-1
NamedP: "ab01"
EndSplineSet
PickledDataWithLists: "(dp0
Vcom.adobe.type.autohint
p1
(c_codecs
encode
p2
(Vdata
p3
Vlatin1
p4
tp5
Rp6
g2
(V<data>\\u000a        <hintSetList>\\u000a          <hintset pointTag=\"ab01\">\\u000a            <hstem pos=\"21\" width=\"-21\"/>\\u000a            <hstem pos=\"1100\" width=\"-20\"/>\\u000a            <hstem pos=\"1631\" width=\"-20\"/>\\u000a            <vstem pos=\"187\" width=\"306\"/>\\u000a          </hintset>\\u000a        </hintSetList>\\u000a      </data>
p7
g4
tp8
Rp9
Ntp10
sVcom.fontlab.ttprogram
p11
(g2
(Vdata
p12
g4
tp13
Rp14
g2
(V<data>\\u000a        <ttProgram>\\u000a          <ttc align=\"round\" code=\"alignh\" point=\"lsb\"/>\\u000a          <ttc align=\"round\" code=\"alignh\" point=\"ah01\"/>\\u000a          <ttc align=\"round\" code=\"alignh\" point=\"ah02\"/>\\u000a          <ttc code=\"singleh\" point1=\"lsb\" point2=\"sh01\"/>\\u000a          <ttc code=\"singleh\" point1=\"sh01\" point2=\"sh02\" stem=\"eq X: dia Fat\"/>\\u000a          <ttc code=\"singleh\" point1=\"sh02\" point2=\"sh03\"/>\\u000a          <ttc code=\"singleh\" point1=\"ah01\" point2=\"sh04\" stem=\"eq X: dia Lite\"/>\\u000a          <ttc code=\"singleh\" point1=\"ah02\" point2=\"sh05\" stem=\"eq X: dia Fat\"/>\\u000a          <ttc code=\"singleh\" point1=\"sh02\" point2=\"sh06\"/>\\u000a          <ttc align=\"round\" code=\"alignv\" point=\"sh02\"/>\\u000a          <ttc code=\"alignb\" point=\"ab01\" zone=\"b: 0\"/>\\u000a          <ttc code=\"alignb\" point=\"sh05\" zone=\"b: 0\"/>\\u000a          <ttc code=\"interpolatev\" point=\"iv01\" point1=\"ah01\" point2=\"ah02\"/>\\u000a          <ttc code=\"singlev\" point1=\"iv01\" point2=\"sh04\" round=\"true\"/>\\u000a        </ttProgram>\\u000a      </data>
p15
g4
tp16
Rp17
Ntp18
s."
EndChar
StartChar: l
Encoding: 301 108 301
GlifName: l
Width: 1300
VWidth: 0
Flags: W
LayerCount: 2
Fore
SplineSet
493 1382 m 257,0,-1
NamedP: "ah01"
 323 1342 l 257,1,-1
 147 1342 l 257,2,-1
 120 1566 l 257,3,-1
NamedP: "ah02"
 740 1566 l 257,4,-1
NamedP: "sh01"
 740 388 l 257,5,6
NamedP: "dh02"
 740 337 740 337 750 302.5 c 128,-1,7
 760 268 760 268 776.5 247 c 128,-1,8
 793 226 793 226 814 217 c 128,-1,9
 835 208 835 208 856 208 c 257,10,11
NamedP: "av01"
 884 208 884 208 907.5 216.5 c 128,-1,12
 931 225 931 225 951 238 c 128,-1,13
 971 251 971 251 987.5 267.5 c 128,-1,14
 1004 284 1004 284 1017 300 c 257,15,-1
NamedP: "av02"
 1125 107 l 257,16,17
NamedP: "ah03"
 1114 98 1114 98 1094 77.5 c 128,-1,18
 1074 57 1074 57 1040.5 36 c 128,-1,19
 1007 15 1007 15 957.5 -1 c 128,-1,20
 908 -17 908 -17 838 -17 c 257,21,22
NamedP: "ab01"
 730 -17 730 -17 652 17 c 128,-1,23
 574 51 574 51 523 109 c 128,-1,24
 472 167 472 167 447.5 245 c 128,-1,25
 423 323 423 323 423 410 c 257,26,-1
NamedP: "dh01"
 423 1292 l 257,27,-1
NamedP: "sh02"
 493 1382 l 257,0,-1
NamedP: "ah01"
EndSplineSet
PickledDataWithLists: "(dp0
Vcom.adobe.type.autohint
p1
(c_codecs
encode
p2
(Vdata
p3
Vlatin1
p4
tp5
Rp6
g2
(V<data>\\u000a        <hintSetList>\\u000a          <hintset pointTag=\"ah01\">\\u000a            <hstem pos=\"-17\" width=\"225\"/>\\u000a            <hstem pos=\"1342\" width=\"224\"/>\\u000a            <vstem pos=\"423\" width=\"317\"/>\\u000a          </hintset>\\u000a        </hintSetList>\\u000a      </data>
p7
g4
tp8
Rp9
Ntp10
sVcom.fontlab.ttprogram
p11
(g2
(Vdata
p12
g4
tp13
Rp14
g2
(V<data>\\u000a        <ttProgram>\\u000a          <ttc align=\"round\" code=\"alignh\" point=\"ah01\"/>\\u000a          <ttc align=\"round\" code=\"alignh\" point=\"ah02\"/>\\u000a          <ttc align=\"round\" code=\"alignh\" point=\"ah03\"/>\\u000a          <ttc code=\"doubleh\" point1=\"dh01\" point2=\"dh02\" stem=\"eq X: 190\"/>\\u000a          <ttc code=\"singleh\" point1=\"dh02\" point2=\"sh01\"/>\\u000a          <ttc code=\"singleh\" point1=\"dh01\" point2=\"sh02\"/>\\u000a          <ttc align=\"round\" code=\"alignv\" point=\"sh01\"/>\\u000a          <ttc align=\"round\" code=\"alignv\" point=\"ah02\"/>\\u000a          <ttc align=\"round\" code=\"alignv\" point=\"av01\"/>\\u000a          <ttc align=\"round\" code=\"alignv\" point=\"av02\"/>\\u000a          <ttc code=\"alignb\" point=\"ab01\" zone=\"b: 0\"/>\\u000a          <ttc code=\"singlev\" point1=\"av02\" point2=\"ah03\" stem=\"eq Y: 162\"/>\\u000a        </ttProgram>\\u000a      </data>
p15
g4
tp16
Rp17
Ntp18
s."
EndChar
StartChar: m
Encoding: 317 109 317
GlifName: m
Width: 1300
VWidth: 0
Flags: W
LayerCount: 2
Fore
SplineSet
365 0 m 257,0,-1
NamedP: "dh02"
 50 0 l 257,1,-1
NamedP: "dh01"
 50 1100 l 257,2,-1
 365 1120 l 257,3,-1
NamedP: "sh01"
 365 1000 l 257,4,-1
NamedP: "iv01"
 442 1100 l 257,5,6
 452 1106 452 1106 477.5 1111.5 c 128,-1,7
 503 1117 503 1117 522 1117 c 257,8,9
NamedP: "at01"
 571 1117 571 1117 605.5 1113.5 c 128,-1,10
 640 1110 640 1110 666 1101 c 128,-1,11
 692 1092 692 1092 711.5 1077 c 128,-1,12
 731 1062 731 1062 750 1039 c 257,13,14
NamedP: "ih01"
 769 1052 769 1052 795.5 1065.5 c 128,-1,15
 822 1079 822 1079 851.5 1090.5 c 128,-1,16
 881 1102 881 1102 912.5 1109.5 c 128,-1,17
 944 1117 944 1117 975 1117 c 257,18,19
NamedP: "at02"
 1072 1117 1072 1117 1128 1090 c 128,-1,20
 1184 1063 1184 1063 1213 1013.5 c 128,-1,21
 1242 964 1242 964 1250 893.5 c 128,-1,22
 1258 823 1258 823 1258 736 c 257,23,-1
 1258 0 l 257,24,-1
NamedP: "sh05"
 943 0 l 257,25,-1
NamedP: "sh04"
 943 727 l 257,26,27
 943 767 943 767 942 797 c 128,-1,28
 941 827 941 827 936.5 846.5 c 128,-1,29
 932 866 932 866 922.5 875.5 c 128,-1,30
 913 885 913 885 895 885 c 257,31,32
NamedP: "sv01"
 878 885 878 885 862.5 878 c 128,-1,33
 847 871 847 871 834.5 859 c 128,-1,34
 822 847 822 847 813.5 831.5 c 128,-1,35
 805 816 805 816 803 798 c 257,36,37
NamedP: "sh06"
 803 791 803 791 803 778.5 c 128,-1,38
 803 766 803 766 803.5 753.5 c 128,-1,39
 804 741 804 741 804 730 c 128,-1,40
 804 719 804 719 804 715 c 257,41,-1
 804 0 l 257,42,-1
NamedP: "sh03"
 500 0 l 257,43,-1
NamedP: "sh02"
 500 708 l 257,44,45
 500 793 500 793 491.5 839 c 128,-1,46
 483 885 483 885 452 885 c 257,47,48
NamedP: "sv02"
 423 885 423 885 398.5 866 c 128,-1,49
 374 847 374 847 365 804 c 257,50,-1
 365 0 l 257,0,-1
NamedP: "dh02"
EndSplineSet
PickledDataWithLists: "(dp0
Vcom.adobe.type.autohint
p1
(c_codecs
encode
p2
(Vdata
p3
Vlatin1
p4
tp5
Rp6
g2
(V<data>\\u000a        <hintSetList>\\u000a          <hintset pointTag=\"sh01\">\\u000a            <hstem pos=\"21\" width=\"-21\"/>\\u000a            <hstem pos=\"1121\" width=\"-20\"/>\\u000a            <vstem pos=\"50\" width=\"315\"/>\\u000a            <vstem pos=\"500\" width=\"304\"/>\\u000a            <vstem pos=\"943\" width=\"315\"/>\\u000a          </hintset>\\u000a        </hintSetList>\\u000a      </data>
p7
g4
tp8
Rp9
Ntp10
sVcom.fontlab.ttprogram
p11
(g2
(Vdata
p12
g4
tp13
Rp14
g2
(V<data>\\u000a        <ttProgram>\\u000a          <ttc code=\"doubleh\" point1=\"dh01\" point2=\"dh02\" stem=\"eq X: 199\"/>\\u000a          <ttc code=\"singleh\" point1=\"dh02\" point2=\"sh01\"/>\\u000a          <ttc code=\"singleh\" point1=\"dh02\" point2=\"sh02\" round=\"true\"/>\\u000a          <ttc code=\"singleh\" point1=\"sh02\" point2=\"sh03\" stem=\"eq X: 199\"/>\\u000a          <ttc code=\"interpolateh\" point=\"ih01\" point1=\"sh02\" point2=\"sh03\"/>\\u000a          <ttc code=\"singleh\" point1=\"sh03\" point2=\"sh04\" round=\"true\"/>\\u000a          <ttc code=\"singleh\" point1=\"sh04\" point2=\"sh05\" stem=\"eq X: 199\"/>\\u000a          <ttc code=\"singleh\" point1=\"sh03\" point2=\"sh06\"/>\\u000a          <ttc code=\"singleh\" point1=\"sh05\" point2=\"rsb\" round=\"true\"/>\\u000a          <ttc code=\"alignt\" point=\"sh01\" zone=\"t: x\"/>\\u000a          <ttc code=\"alignt\" point=\"at01\" zone=\"t: x\"/>\\u000a          <ttc code=\"alignt\" point=\"at02\" zone=\"t: x\"/>\\u000a          <ttc code=\"alignb\" point=\"dh02\" zone=\"b: 0\"/>\\u000a          <ttc code=\"alignb\" point=\"sh03\" zone=\"b: 0\"/>\\u000a          <ttc code=\"alignb\" point=\"sh05\" zone=\"b: 0\"/>\\u000a          <ttc code=\"interpolatev\" point=\"iv01\" point1=\"sh01\" point2=\"dh02\"/>\\u000a          <ttc code=\"interpolatev\" point=\"ih01\" point1=\"sh01\" point2=\"dh02\"/>\\u000a          <ttc code=\"singlev\" point1=\"at02\" point2=\"sv01\" stem=\"eq Y: 162\"/>\\u000a          <ttc code=\"singlev\" point1=\"at01\" point2=\"sv02\" stem=\"eq Y: 162\"/>\\u000a        </ttProgram>\\u000a      </data>
p15
g4
tp16
Rp17
Ntp18
s."
EndChar
StartChar: r
Encoding: 404 114 404
GlifName: r
Width: 1300
VWidth: 0
Flags: W
LayerCount: 2
Fore
SplineSet
462 1000 m 257,0,-1
NamedP: "iv01"
 539 1100 l 257,1,2
 593 1115 593 1115 643 1116 c 128,-1,3
 693 1117 693 1117 741 1117 c 257,4,5
NamedP: "at01"
 822 1117 822 1117 882 1108 c 128,-1,6
 942 1099 942 1099 985.5 1085.5 c 128,-1,7
 1029 1072 1029 1072 1057 1057.5 c 128,-1,8
 1085 1043 1085 1043 1102 1032 c 257,9,-1
 1152 735 l 257,10,-1
NamedP: "dh04"
 872 700 l 257,11,-1
NamedP: "dh03"
 823 876 l 257,12,13
NamedP: "ih01"
 803 879 803 879 783 882 c 128,-1,14
 763 885 763 885 743 885 c 257,15,16
NamedP: "sv01"
 646 885 646 885 577 849.5 c 128,-1,17
 508 814 508 814 462 750 c 257,18,-1
 462 0 l 257,19,-1
NamedP: "dh02"
 145 0 l 257,20,-1
NamedP: "dh01"
 145 1100 l 257,21,-1
 462 1120 l 257,22,-1
NamedP: "sh01"
 462 1000 l 257,0,-1
NamedP: "iv01"
EndSplineSet
PickledDataWithLists: "(dp0
Vcom.adobe.type.autohint
p1
(c_codecs
encode
p2
(Vdata
p3
Vlatin1
p4
tp5
Rp6
g2
(V<data>\\u000a        <hintSetList>\\u000a          <hintset pointTag=\"dh04\">\\u000a            <hstem pos=\"21\" width=\"-21\"/>\\u000a            <hstem pos=\"1117\" width=\"-20\"/>\\u000a            <vstem pos=\"145\" width=\"317\"/>\\u000a          </hintset>\\u000a          <hintset pointTag=\"iv01\">\\u000a            <hstem pos=\"21\" width=\"-21\"/>\\u000a            <hstem pos=\"1121\" width=\"-20\"/>\\u000a            <vstem pos=\"145\" width=\"317\"/>\\u000a          </hintset>\\u000a        </hintSetList>\\u000a      </data>
p7
g4
tp8
Rp9
Ntp10
sVcom.fontlab.ttprogram
p11
(g2
(Vdata
p12
g4
tp13
Rp14
g2
(V<data>\\u000a        <ttProgram>\\u000a          <ttc code=\"doubleh\" point1=\"dh01\" point2=\"dh02\" stem=\"eq X: 190\"/>\\u000a          <ttc code=\"doubleh\" point1=\"dh03\" point2=\"dh04\" stem=\"eq X: 190\"/>\\u000a          <ttc code=\"interpolateh\" point=\"ih01\" point1=\"dh02\" point2=\"dh04\"/>\\u000a          <ttc code=\"singleh\" point1=\"dh02\" point2=\"sh01\"/>\\u000a          <ttc code=\"alignt\" point=\"sh01\" zone=\"t: x\"/>\\u000a          <ttc code=\"alignt\" point=\"at01\" zone=\"t: x\"/>\\u000a          <ttc code=\"alignb\" point=\"dh02\" zone=\"b: 0\"/>\\u000a          <ttc code=\"interpolatev\" point=\"iv01\" point1=\"sh01\" point2=\"dh02\"/>\\u000a          <ttc code=\"singlev\" point1=\"at01\" point2=\"sv01\" stem=\"eq Y: 162\"/>\\u000a        </ttProgram>\\u000a      </data>
p15
g4
tp16
Rp17
Ntp18
s."
EndChar
StartChar: s
Encoding: 433 115 433
GlifName: s
Width: 1300
VWidth: 0
Flags: W
LayerCount: 2
Fore
SplineSet
985 802 m 257,0,1
NamedP: "ah02"
 957 820 957 820 926 837 c 128,-1,2
 895 854 895 854 859 867.5 c 128,-1,3
 823 881 823 881 782 889.5 c 128,-1,4
 741 898 741 898 694 898 c 257,5,6
NamedP: "sv01"
 651 898 651 898 605.5 894 c 128,-1,7
 560 890 560 890 523 879.5 c 128,-1,8
 486 869 486 869 462 850.5 c 128,-1,9
 438 832 438 832 438 804 c 257,10,11
NamedP: "sh02"
 438 778 438 778 465 759.5 c 128,-1,12
NamedP: "mh01"
 492 741 492 741 533 727 c 128,-1,13
 574 713 574 713 622.5 703 c 128,-1,14
 671 693 671 693 715 684 c 257,15,16
NamedP: "ih01"
 766 673 766 673 814 662 c 128,-1,17
 862 651 862 651 892 640 c 257,18,19
NamedP: "sv03"
 942 620 942 620 986.5 591 c 128,-1,20
NamedP: "mh02"
 1031 562 1031 562 1064.5 525.5 c 128,-1,21
NamedP: "mh03"
 1098 489 1098 489 1117.5 446 c 128,-1,22
 1137 403 1137 403 1137 355 c 257,23,24
NamedP: "sh03"
 1137 288 1137 288 1110.5 234.5 c 128,-1,25
 1084 181 1084 181 1038.5 140 c 128,-1,26
 993 99 993 99 933.5 69 c 128,-1,27
 874 39 874 39 807.5 20 c 128,-1,28
 741 1 741 1 672 -8 c 128,-1,29
NamedP: "ih02"
 603 -17 603 -17 540 -17 c 257,30,31
NamedP: "ab01"
 480 -17 480 -17 421 -8.5 c 128,-1,32
 362 0 362 0 308 15 c 128,-1,33
 254 30 254 30 207.5 50.5 c 128,-1,34
 161 71 161 71 127 95 c 257,35,-1
 225 305 l 257,36,37
NamedP: "sh04"
 294 263 294 263 371.5 235.5 c 128,-1,38
 449 208 449 208 542 208 c 257,39,40
NamedP: "sv02"
 565 208 565 208 595.5 210.5 c 128,-1,41
 626 213 626 213 658.5 219.5 c 128,-1,42
 691 226 691 226 723 236.5 c 128,-1,43
 755 247 755 247 780 263 c 128,-1,44
 805 279 805 279 820.5 301.5 c 128,-1,45
 836 324 836 324 836 354 c 257,46,47
NamedP: "ah01"
 836 381 836 381 812 400.5 c 128,-1,48
NamedP: "mh04"
 788 420 788 420 751 434 c 128,-1,49
 714 448 714 448 670 457.5 c 128,-1,50
 626 467 626 467 586 475 c 257,51,52
NamedP: "ih03"
 557 481 557 481 527.5 487.5 c 128,-1,53
 498 494 498 494 471 501 c 128,-1,54
 444 508 444 508 421 515.5 c 128,-1,55
 398 523 398 523 382 531 c 257,56,-1
NamedP: "sv04"
 383 531 l 257,57,58
 317 562 317 562 273.5 596.5 c 128,-1,59
 230 631 230 631 204.5 667.5 c 128,-1,60
 179 704 179 704 168.5 743 c 128,-1,61
 158 782 158 782 158 822 c 257,62,63
NamedP: "sh01"
 158 898 158 898 202 953.5 c 128,-1,64
 246 1009 246 1009 319.5 1045.5 c 128,-1,65
 393 1082 393 1082 488.5 1099.5 c 128,-1,66
NamedP: "ih04"
 584 1117 584 1117 688 1117 c 257,67,68
NamedP: "at01"
 744 1117 744 1117 800.5 1108.5 c 128,-1,69
 857 1100 857 1100 908 1086.5 c 128,-1,70
 959 1073 959 1073 1001 1056 c 128,-1,71
 1043 1039 1043 1039 1070 1022 c 257,72,-1
 985 802 l 257,0,1
NamedP: "ah02"
EndSplineSet
PickledDataWithLists: "(dp0
Vcom.adobe.type.autohint
p1
(c_codecs
encode
p2
(Vdata
p3
Vlatin1
p4
tp5
Rp6
g2
(V<data>\\u000a        <hintSetList>\\u000a          <hintset pointTag=\"ah02\">\\u000a            <hstem pos=\"-17\" width=\"225\"/>\\u000a            <hstem pos=\"898\" width=\"219\"/>\\u000a            <vstem pos=\"158\" width=\"280\"/>\\u000a            <vstem pos=\"836\" width=\"301\"/>\\u000a          </hintset>\\u000a        </hintSetList>\\u000a      </data>
p7
g4
tp8
Rp9
Ntp10
sVcom.fontlab.ttprogram
p11
(g2
(Vdata
p12
g4
tp13
Rp14
g2
(V<data>\\u000a        <ttProgram>\\u000a          <ttc align=\"round\" code=\"alignh\" point=\"lsb\"/>\\u000a          <ttc align=\"round\" code=\"alignh\" point=\"ah01\"/>\\u000a          <ttc align=\"round\" code=\"alignh\" point=\"ah02\"/>\\u000a          <ttc code=\"singleh\" point1=\"lsb\" point2=\"sh01\"/>\\u000a          <ttc code=\"singleh\" point1=\"sh01\" point2=\"sh02\" stem=\"eq X: 190\"/>\\u000a          <ttc code=\"mdeltah\" delta=\"8\" point=\"sh02\" ppm1=\"36\" ppm2=\"36\"/>\\u000a          <ttc code=\"mdeltah\" delta=\"4\" point=\"mh01\" ppm1=\"36\" ppm2=\"36\"/>\\u000a          <ttc code=\"singleh\" point1=\"ah01\" point2=\"sh03\" stem=\"eq X: 190\"/>\\u000a          <ttc code=\"interpolateh\" point=\"ih01\" point1=\"sh01\" point2=\"sh03\"/>\\u000a          <ttc code=\"mdeltah\" delta=\"2\" point=\"mh02\" ppm1=\"36\" ppm2=\"36\"/>\\u000a          <ttc code=\"mdeltah\" delta=\"2\" point=\"mh03\" ppm1=\"36\" ppm2=\"36\"/>\\u000a          <ttc code=\"singleh\" point1=\"sh01\" point2=\"sh04\"/>\\u000a          <ttc code=\"interpolateh\" point=\"ih02\" point1=\"sh04\" point2=\"ah02\"/>\\u000a          <ttc code=\"mdeltah\" delta=\"-3\" point=\"mh04\" ppm1=\"36\" ppm2=\"36\"/>\\u000a          <ttc code=\"interpolateh\" point=\"ih03\" point1=\"sh01\" point2=\"sh03\"/>\\u000a          <ttc code=\"interpolateh\" point=\"ih04\" point1=\"ah02\" point2=\"sh04\"/>\\u000a          <ttc code=\"singleh\" point1=\"ah02\" point2=\"rsb\"/>\\u000a          <ttc align=\"round\" code=\"alignv\" point=\"mh04\"/>\\u000a          <ttc align=\"round\" code=\"alignv\" point=\"mh01\"/>\\u000a          <ttc code=\"alignt\" point=\"at01\" zone=\"t: x\"/>\\u000a          <ttc code=\"alignb\" point=\"ab01\" zone=\"b: 0\"/>\\u000a          <ttc code=\"singlev\" point1=\"at01\" point2=\"sv01\" stem=\"eq Y: 171\"/>\\u000a          <ttc code=\"singlev\" point1=\"ab01\" point2=\"sv02\" stem=\"eq Y: 162\"/>\\u000a          <ttc code=\"interpolatev\" point=\"ih01\" point1=\"sv01\" point2=\"sv02\"/>\\u000a          <ttc code=\"singlev\" point1=\"mh04\" point2=\"sv03\" stem=\"eq Y: 171\"/>\\u000a          <ttc code=\"interpolatev\" point=\"ih03\" point1=\"sv02\" point2=\"sv01\"/>\\u000a          <ttc code=\"singlev\" point1=\"mh01\" point2=\"sv04\" stem=\"eq Y: 171\"/>\\u000a        </ttProgram>\\u000a      </data>
p15
g4
tp16
Rp17
Ntp18
s."
EndChar
StartChar: u
Encoding: 539 117 539
GlifName: u
Width: 1300
VWidth: 0
Flags: W
LayerCount: 2
Fore
SplineSet
816 1100 m 257,0,-1
NamedP: "sh02"
 1133 1120 l 257,1,-1
NamedP: "sh03"
 1133 0 l 257,2,-1
NamedP: "ah01"
 816 0 l 257,3,-1
NamedP: "sh01"
 816 100 l 257,4,-1
NamedP: "iv01"
 735 0 l 257,5,6
NamedP: "ah02"
 679 -17 679 -17 614 -17 c 257,7,8
NamedP: "ih01"
 480 -17 480 -17 390 21 c 128,-1,9
 300 59 300 59 245.5 122.5 c 128,-1,10
 191 186 191 186 168 268 c 128,-1,11
 145 350 145 350 145 438 c 257,12,-1
NamedP: "sh04"
 145 1100 l 257,13,-1
NamedP: "ih02"
 461 1120 l 257,14,-1
NamedP: "at01"
 461 438 l 257,15,16
NamedP: "sh05"
 461 386 461 386 469.5 344.5 c 128,-1,17
 478 303 478 303 499 273.5 c 128,-1,18
 520 244 520 244 554.5 228.5 c 128,-1,19
 589 213 589 213 640 213 c 257,20,21
NamedP: "ih03"
 673 213 673 213 701 223 c 128,-1,22
 729 233 729 233 751.5 249 c 128,-1,23
 774 265 774 265 790 283 c 128,-1,24
 806 301 806 301 816 318 c 257,25,-1
 816 1100 l 257,0,-1
NamedP: "sh02"
EndSplineSet
PickledDataWithLists: "(dp0
Vcom.adobe.type.autohint
p1
(c_codecs
encode
p2
(Vdata
p3
Vlatin1
p4
tp5
Rp6
g2
(V<data>\\u000a        <hintSetList>\\u000a          <hintset pointTag=\"ah02\">\\u000a            <hstem pos=\"21\" width=\"-21\"/>\\u000a            <hstem pos=\"1120\" width=\"-20\"/>\\u000a            <vstem pos=\"145\" width=\"316\"/>\\u000a            <vstem pos=\"816\" width=\"317\"/>\\u000a          </hintset>\\u000a        </hintSetList>\\u000a      </data>
p7
g4
tp8
Rp9
Ntp10
sVcom.fontlab.ttprogram
p11
(g2
(Vdata
p12
g4
tp13
Rp14
g2
(V<data>\\u000a        <ttProgram>\\u000a          <ttc align=\"round\" code=\"alignh\" point=\"ah01\"/>\\u000a          <ttc align=\"round\" code=\"alignh\" point=\"lsb\"/>\\u000a          <ttc align=\"round\" code=\"alignh\" point=\"ah02\"/>\\u000a          <ttc code=\"singleh\" point1=\"ah01\" point2=\"sh01\" stem=\"eq X: 190\"/>\\u000a          <ttc code=\"singleh\" point1=\"sh01\" point2=\"sh02\"/>\\u000a          <ttc code=\"singleh\" point1=\"sh02\" point2=\"sh03\" stem=\"eq X: 190\"/>\\u000a          <ttc code=\"interpolateh\" point=\"ih01\" point1=\"ih02\" point2=\"sh03\"/>\\u000a          <ttc code=\"singleh\" point1=\"lsb\" point2=\"sh04\" round=\"true\"/>\\u000a          <ttc code=\"singleh\" point1=\"sh04\" point2=\"sh05\" stem=\"eq X: 190\"/>\\u000a          <ttc code=\"interpolateh\" point=\"ih03\" point1=\"ih02\" point2=\"sh03\"/>\\u000a          <ttc code=\"alignt\" point=\"at01\" zone=\"t: x\"/>\\u000a          <ttc code=\"alignt\" point=\"sh03\" zone=\"t: x\"/>\\u000a          <ttc code=\"alignb\" point=\"sh01\" zone=\"b: 0\"/>\\u000a          <ttc code=\"alignb\" point=\"ih01\" zone=\"b: 0\"/>\\u000a          <ttc code=\"interpolatev\" point=\"iv01\" point1=\"sh03\" point2=\"ih01\"/>\\u000a          <ttc code=\"singlev\" point1=\"ih01\" point2=\"ih03\" stem=\"eq Y: 162\"/>\\u000a        </ttProgram>\\u000a      </data>
p15
g4
tp16
Rp17
Ntp18
s."
EndChar
StartChar: z
Encoding: 584 122 584
GlifName: z
Width: 1300
VWidth: 0
Flags: W
LayerCount: 2
Fore
SplineSet
715 200 m 257,0,-1
NamedP: "hr00"
 1088 200 l 257,1,-1
NamedP: "sv01"
 1115 0 l 257,2,-1
NamedP: "ab01"
 212 0 l 257,3,-1
NamedP: "iv02"
 179 85 l 257,4,-1
 579 757 l 257,5,-1
 790 925 l 257,6,-1
NamedP: "iv01"
 539 900 l 257,7,-1
 265 900 l 257,8,-1
NamedP: "sv03"
 238 1100 l 257,9,-1
NamedP: "sv02"
 1034 1100 l 257,10,-1
NamedP: "at01"
 1066 1017 l 257,11,-1
 671 339 l 257,12,-1
 464 175 l 257,13,-1
NamedP: "iv03"
 715 200 l 257,0,-1
NamedP: "hr00"
EndSplineSet
PickledDataWithLists: "(dp0
Vcom.adobe.type.autohint
p1
(c_codecs
encode
p2
(Vdata
p3
Vlatin1
p4
tp5
Rp6
g2
(V<data>\\u000a        <hintSetList>\\u000a          <hintset pointTag=\"hr00\">\\u000a            <hstem pos=\"0\" width=\"200\"/>\\u000a            <hstem pos=\"900\" width=\"200\"/>\\u000a          </hintset>\\u000a        </hintSetList>\\u000a      </data>
p7
g4
tp8
Rp9
Ntp10
sVcom.fontlab.ttprogram
p11
(g2
(Vdata
p12
g4
tp13
Rp14
g2
(V<data>\\u000a        <ttProgram>\\u000a          <ttc code=\"alignt\" point=\"at01\" zone=\"t: x\"/>\\u000a          <ttc code=\"alignb\" point=\"ab01\" zone=\"b: 0\"/>\\u000a          <ttc code=\"singlev\" point1=\"ab01\" point2=\"sv01\" stem=\"eq Y: 162\"/>\\u000a          <ttc code=\"singlev\" point1=\"at01\" point2=\"sv02\"/>\\u000a          <ttc code=\"interpolatev\" point=\"iv01\" point1=\"iv02\" point2=\"sv02\"/>\\u000a          <ttc code=\"singlev\" point1=\"sv02\" point2=\"sv03\" stem=\"eq Y: 162\"/>\\u000a          <ttc code=\"interpolatev\" point=\"iv03\" point1=\"at01\" point2=\"ab01\"/>\\u000a        </ttProgram>\\u000a      </data>
p15
g4
tp16
Rp17
Ntp18
s."
EndChar
StartChar: braceright
Encoding: 157 125 157
GlifName: braceright
Width: 1300
VWidth: 0
Flags: W
LayerCount: 2
Fore
SplineSet
201 1445 m 257,0,1
NamedP: "ah05"
 234 1461 234 1461 264.5 1474 c 128,-1,2
 295 1487 295 1487 329 1496.5 c 128,-1,3
 363 1506 363 1506 403.5 1511.5 c 128,-1,4
 444 1517 444 1517 496 1517 c 257,5,6
NamedP: "at01"
 609 1517 609 1517 684 1485 c 128,-1,7
 759 1453 759 1453 803.5 1397 c 128,-1,8
 848 1341 848 1341 866.5 1264.5 c 128,-1,9
 885 1188 885 1188 885 1099 c 257,10,-1
 885 864 l 257,11,12
 885 776 885 776 900.5 723.5 c 128,-1,13
 916 671 916 671 962 660 c 257,14,-1
 1100 640 l 257,15,-1
NamedP: "iv01"
 1100 462 l 257,16,-1
NamedP: "ah02"
 962 442 l 257,17,18
 916 432 916 432 900.5 379.5 c 128,-1,19
 885 327 885 327 885 238 c 257,20,-1
 885 -2 l 257,21,22
 885 -91 885 -91 866.5 -167.5 c 128,-1,23
 848 -244 848 -244 803.5 -300 c 128,-1,24
 759 -356 759 -356 684 -388 c 128,-1,25
 609 -420 609 -420 496 -420 c 257,26,27
NamedP: "av01"
 444 -420 444 -420 403.5 -414.5 c 128,-1,28
 363 -409 363 -409 329 -399.5 c 128,-1,29
 295 -390 295 -390 264.5 -376.5 c 128,-1,30
 234 -363 234 -363 201 -348 c 257,31,-1
NamedP: "ah03"
 297 -163 l 257,32,33
NamedP: "sh01"
 331 -183 331 -183 374.5 -195.5 c 128,-1,34
 418 -208 418 -208 453 -208 c 257,35,36
NamedP: "ah04"
 483 -208 483 -208 501 -194 c 128,-1,37
 519 -180 519 -180 528 -153 c 128,-1,38
 537 -126 537 -126 540 -88 c 128,-1,39
 543 -50 543 -50 543 -2 c 257,40,-1
 543 238 l 257,41,42
 543 293 543 293 558.5 341.5 c 128,-1,43
 574 390 574 390 598 430 c 128,-1,44
 622 470 622 470 651 500 c 128,-1,45
 680 530 680 530 707 550 c 257,46,47
NamedP: "ah01"
 680 570 680 570 651 600.5 c 128,-1,48
 622 631 622 631 598 670.5 c 128,-1,49
 574 710 574 710 558.5 759 c 128,-1,50
 543 808 543 808 543 864 c 257,51,-1
 543 1099 l 257,52,53
 543 1147 543 1147 540 1184.5 c 128,-1,54
 537 1222 537 1222 528 1248 c 128,-1,55
 519 1274 519 1274 501 1288.5 c 128,-1,56
 483 1303 483 1303 453 1305 c 257,57,58
NamedP: "ah06"
 418 1305 418 1305 374.5 1292.5 c 128,-1,59
 331 1280 331 1280 297 1260 c 257,60,-1
NamedP: "sh02"
 201 1445 l 257,0,1
NamedP: "ah05"
EndSplineSet
PickledDataWithLists: "(dp0
Vcom.adobe.type.autohint
p1
(c_codecs
encode
p2
(Vdata
p3
Vlatin1
p4
tp5
Rp6
g2
(V<data>\\u000a        <hintSetList>\\u000a          <hintset pointTag=\"ah05\">\\u000a            <hstem pos=\"-420\" width=\"212\"/>\\u000a            <hstem pos=\"1305\" width=\"212\"/>\\u000a            <vstem pos=\"543\" width=\"342\"/>\\u000a          </hintset>\\u000a        </hintSetList>\\u000a      </data>
p7
g4
tp8
Rp9
Ntp10
sVcom.fontlab.ttprogram
p11
(g2
(Vdata
p12
g4
tp13
Rp14
g2
(V<data>\\u000a        <ttProgram>\\u000a          <ttc align=\"round\" code=\"alignh\" point=\"ah01\"/>\\u000a          <ttc align=\"round\" code=\"alignh\" point=\"ah02\"/>\\u000a          <ttc align=\"round\" code=\"alignh\" point=\"ah03\"/>\\u000a          <ttc align=\"round\" code=\"alignh\" point=\"ah04\"/>\\u000a          <ttc align=\"round\" code=\"alignh\" point=\"ah05\"/>\\u000a          <ttc align=\"round\" code=\"alignh\" point=\"ah06\"/>\\u000a          <ttc code=\"singleh\" point1=\"ah03\" point2=\"sh01\" stem=\"eq X: dia Lite\"/>\\u000a          <ttc code=\"singleh\" point1=\"ah05\" point2=\"sh02\" stem=\"eq X: dia Lite\"/>\\u000a          <ttc align=\"round\" code=\"alignv\" point=\"av01\"/>\\u000a          <ttc code=\"alignt\" point=\"at01\" zone=\"t: 1\"/>\\u000a          <ttc code=\"interpolatev\" point=\"iv01\" point1=\"ah05\" point2=\"sh01\"/>\\u000a          <ttc code=\"interpolatev\" point=\"ah02\" point1=\"sh02\" point2=\"ah03\"/>\\u000a        </ttProgram>\\u000a      </data>
p15
g4
tp16
Rp17
Ntp18
s."
EndChar
StartChar: cent
Encoding: 170 162 170
GlifName: cent
Width: 1300
VWidth: 0
Flags: W
LayerCount: 2
Fore
SplineSet
989 814 m 257,0,1
 965 837 965 837 943 852 c 128,-1,2
 921 867 921 867 901 877 c 257,3,-1
 901 223 l 257,4,5
 967 249 967 249 1023 288 c 257,6,-1
 1135 93 l 257,7,8
 1084 58 1084 58 1025.5 32.5 c 128,-1,9
 967 7 967 7 901 -5 c 257,10,-1
 901 -190 l 257,11,-1
NamedP: "sh01"
 611 -190 l 257,12,-1
NamedP: "ah01"
 611 6 l 257,13,14
NamedP: "mv01"
 518 34 518 34 448 90.5 c 128,-1,15
 378 147 378 147 331 222.5 c 128,-1,16
 284 298 284 298 260.5 388.5 c 128,-1,17
 237 479 237 479 237 575 c 257,18,19
NamedP: "sh02"
 237 662 237 662 259.5 744.5 c 128,-1,20
 282 827 282 827 328.5 896.5 c 128,-1,21
 375 966 375 966 445 1017.5 c 128,-1,22
 515 1069 515 1069 611 1095 c 257,23,-1
 611 1302 l 257,24,-1
 901 1340 l 257,25,-1
NamedP: "sh03"
 901 1105 l 257,26,27
NamedP: "hr01"
 968 1090 968 1090 1026.5 1055.5 c 128,-1,28
 1085 1021 1085 1021 1140 961 c 257,29,-1
 989 814 l 257,0,1
521 563 m 257,30,31
NamedP: "sh04"
 521 436 521 436 556.5 353.5 c 128,-1,32
 592 271 592 271 659 232 c 257,33,-1
NamedP: "mh01"
 659 873 l 257,34,35
NamedP: "mh02"
 594 840 594 840 557.5 764.5 c 128,-1,36
 521 689 521 689 521 563 c 257,30,31
NamedP: "sh04"
EndSplineSet
PickledDataWithLists: "(dp0
Vcom.adobe.type.autohint
p1
(c_codecs
encode
p2
(Vdata
p3
Vlatin1
p4
tp5
Rp6
g2
(V<data>\\u000a        <hintSetList>\\u000a          <hintset pointTag=\"hr01\">\\u000a            <hstem pos=\"-169\" width=\"-21\"/>\\u000a            <hstem pos=\"1340\" width=\"-20\"/>\\u000a            <vstem pos=\"237\" width=\"284\"/>\\u000a            <vstem pos=\"659\" width=\"242\"/>\\u000a          </hintset>\\u000a        </hintSetList>\\u000a      </data>
p7
g4
tp8
Rp9
Ntp10
sVcom.fontlab.ttprogram
p11
(g2
(Vdata
p12
g4
tp13
Rp14
g2
(V<data>\\u000a        <ttProgram>\\u000a          <ttc align=\"round\" code=\"alignh\" point=\"lsb\"/>\\u000a          <ttc align=\"round\" code=\"alignh\" point=\"ah01\"/>\\u000a          <ttc code=\"singleh\" point1=\"ah01\" point2=\"sh01\" stem=\"eq X: 176\"/>\\u000a          <ttc code=\"singleh\" point1=\"lsb\" point2=\"sh02\"/>\\u000a          <ttc code=\"singleh\" point1=\"sh01\" point2=\"sh03\"/>\\u000a          <ttc code=\"singleh\" point1=\"sh02\" point2=\"sh04\" stem=\"eq X: 199\"/>\\u000a          <ttc code=\"mdeltah\" delta=\"6\" point=\"mh01\" ppm1=\"12\" ppm2=\"12\"/>\\u000a          <ttc code=\"mdeltah\" delta=\"3\" point=\"mh01\" ppm1=\"13\" ppm2=\"13\"/>\\u000a          <ttc code=\"mdeltah\" delta=\"5\" point=\"mh02\" ppm1=\"12\" ppm2=\"12\"/>\\u000a          <ttc code=\"mdeltah\" delta=\"3\" point=\"mh02\" ppm1=\"13\" ppm2=\"13\"/>\\u000a          <ttc code=\"mdeltav\" delta=\"3\" point=\"mv01\" ppm1=\"12\" ppm2=\"12\"/>\\u000a        </ttProgram>\\u000a      </data>
p15
g4
tp16
Rp17
Ntp18
s."
EndChar
StartChar: sterling
Encoding: 480 163 480
GlifName: sterling
Width: 1300
VWidth: 0
Flags: W
LayerCount: 2
Fore
SplineSet
779 216 m 257,0,-1
NamedP: "hr00"
 1100 216 l 257,1,-1
 1100 0 l 257,2,-1
 151 0 l 257,3,-1
 180 216 l 257,4,-1
 313 216 l 257,5,6
 315 218 315 218 318 224.5 c 128,-1,7
 321 231 321 231 326 249 c 257,8,9
 334 277 334 277 355 378 c 128,-1,10
 376 479 376 479 403 665 c 257,11,-1
 275 665 l 257,12,-1
 275 883 l 257,13,-1
 434 883 l 257,14,-1
 472 1150 l 257,15,16
 484 1229 484 1229 509 1296.5 c 128,-1,17
 534 1364 534 1364 578 1413 c 128,-1,18
 622 1462 622 1462 688 1489.5 c 128,-1,19
 754 1517 754 1517 847 1517 c 257,20,21
 901 1517 901 1517 943.5 1510.5 c 128,-1,22
 986 1504 986 1504 1023 1489.5 c 128,-1,23
 1060 1475 1060 1475 1094.5 1451.5 c 128,-1,24
 1129 1428 1129 1428 1167 1395 c 257,25,-1
 1037 1228 l 257,26,27
 987 1273 987 1273 954 1288 c 128,-1,28
 921 1303 921 1303 891 1303 c 257,29,30
 868 1303 868 1303 851.5 1289.5 c 128,-1,31
 835 1276 835 1276 823.5 1251.5 c 128,-1,32
 812 1227 812 1227 804.5 1192.5 c 128,-1,33
 797 1158 797 1158 791 1116 c 257,34,-1
 758 883 l 257,35,-1
 953 883 l 257,36,-1
 926 665 l 257,37,-1
 728 665 l 257,38,39
 720 601 720 601 714.5 556 c 128,-1,40
 709 511 709 511 703 474.5 c 128,-1,41
 697 438 697 438 690 404.5 c 128,-1,42
 683 371 683 371 673 331 c 257,43,-1
 531 157 l 257,44,-1
 779 216 l 257,0,-1
NamedP: "hr00"
EndSplineSet
PickledDataWithLists: "(dp0
Vcom.adobe.type.autohint
p1
(c_codecs
encode
p2
(Vdata
p3
Vlatin1
p4
tp5
Rp6
g2
(V<data>\\u000a        <hintSetList>\\u000a          <hintset pointTag=\"hr00\">\\u000a            <hstem pos=\"0\" width=\"216\"/>\\u000a            <hstem pos=\"665\" width=\"218\"/>\\u000a            <hstem pos=\"1303\" width=\"214\"/>\\u000a          </hintset>\\u000a        </hintSetList>\\u000a      </data>
p7
g4
tp8
Rp9
Ntp10
s."
EndChar
StartChar: section
Encoding: 437 167 437
GlifName: section
Width: 1300
VWidth: 0
Flags: W
LayerCount: 2
Fore
SplineSet
888 1249 m 257,0,1
 846 1272 846 1272 813 1285.5 c 128,-1,2
 780 1299 780 1299 752 1306.5 c 128,-1,3
 724 1314 724 1314 701 1316 c 128,-1,4
 678 1318 678 1318 657 1318 c 257,5,6
NamedP: "sv01"
 626 1318 626 1318 598 1310.5 c 128,-1,7
 570 1303 570 1303 548.5 1286 c 128,-1,8
 527 1269 527 1269 514.5 1241.5 c 128,-1,9
 502 1214 502 1214 502 1174 c 257,10,11
 502 1135 502 1135 517.5 1105 c 128,-1,12
 533 1075 533 1075 558.5 1050 c 128,-1,13
 584 1025 584 1025 617.5 1002.5 c 128,-1,14
 651 980 651 980 687 958 c 257,15,16
 747 921 747 921 807 880 c 128,-1,17
 867 839 867 839 915.5 788 c 128,-1,18
 964 737 964 737 994.5 673.5 c 128,-1,19
 1025 610 1025 610 1025 527 c 257,20,21
 1025 479 1025 479 1010.5 433.5 c 128,-1,22
 996 388 996 388 970 350 c 128,-1,23
 944 312 944 312 909 282 c 128,-1,24
 874 252 874 252 833 234 c 257,25,26
 870 205 870 205 901.5 173 c 128,-1,27
 933 141 933 141 956 106 c 128,-1,28
 979 71 979 71 992.5 33 c 128,-1,29
 1006 -5 1006 -5 1006 -46 c 257,30,31
 1006 -128 1006 -128 975.5 -193.5 c 128,-1,32
 945 -259 945 -259 886.5 -305 c 128,-1,33
 828 -351 828 -351 743.5 -375.5 c 128,-1,34
 659 -400 659 -400 551 -400 c 257,35,36
NamedP: "av01"
 504 -400 504 -400 460 -395 c 128,-1,37
 416 -390 416 -390 372.5 -378 c 128,-1,38
 329 -366 329 -366 286 -347 c 128,-1,39
 243 -328 243 -328 197 -299 c 257,40,-1
 303 -129 l 257,41,42
 345 -152 345 -152 378 -166 c 128,-1,43
 411 -180 411 -180 439 -187.5 c 128,-1,44
 467 -195 467 -195 490 -197.5 c 128,-1,45
 513 -200 513 -200 534 -200 c 257,46,47
NamedP: "sv02"
 565 -200 565 -200 593 -192 c 128,-1,48
 621 -184 621 -184 642 -166.5 c 128,-1,49
 663 -149 663 -149 675.5 -121 c 128,-1,50
 688 -93 688 -93 688 -54 c 257,51,52
 688 -15 688 -15 673 15 c 128,-1,53
 658 45 658 45 632.5 70.5 c 128,-1,54
 607 96 607 96 573.5 118 c 128,-1,55
 540 140 540 140 504 163 c 257,56,57
 444 200 444 200 384 240.5 c 128,-1,58
 324 281 324 281 275.5 332 c 128,-1,59
 227 383 227 383 196.5 446.5 c 128,-1,60
 166 510 166 510 166 593 c 257,61,62
 166 645 166 645 181 689 c 128,-1,63
 196 733 196 733 222 769 c 128,-1,64
 248 805 248 805 282.5 833.5 c 128,-1,65
 317 862 317 862 357 885 c 257,66,67
 320 915 320 915 288.5 947 c 128,-1,68
 257 979 257 979 234 1014 c 128,-1,69
 211 1049 211 1049 198 1087 c 128,-1,70
 185 1125 185 1125 185 1166 c 257,71,72
 185 1248 185 1248 215.5 1313 c 128,-1,73
 246 1378 246 1378 304.5 1423.5 c 128,-1,74
 363 1469 363 1469 447.5 1493 c 128,-1,75
 532 1517 532 1517 640 1517 c 257,76,77
NamedP: "at01"
 686 1517 686 1517 730 1512.5 c 128,-1,78
 774 1508 774 1508 817 1496.5 c 128,-1,79
 860 1485 860 1485 903.5 1466 c 128,-1,80
 947 1447 947 1447 993 1419 c 257,81,-1
 888 1249 l 257,0,1
548 747 m 257,82,-1
NamedP: "iv04"
 536 737 l 257,83,84
 525 728 525 728 513 714.5 c 128,-1,85
 501 701 501 701 491.5 683.5 c 128,-1,86
 482 666 482 666 475.5 644 c 128,-1,87
 469 622 469 622 469 595 c 257,88,89
 469 561 469 561 482.5 532 c 128,-1,90
 496 503 496 503 517.5 477.5 c 128,-1,91
 539 452 539 452 566 429.5 c 128,-1,92
NamedP: "iv05"
 593 407 593 407 621 387 c 257,93,-1
 643 372 l 257,94,-1
NamedP: "iv02"
 655 383 l 257,95,96
 666 392 666 392 678 405.5 c 128,-1,97
 690 419 690 419 699.5 437 c 128,-1,98
 709 455 709 455 715.5 477 c 128,-1,99
 722 499 722 499 722 525 c 257,100,101
 722 558 722 558 708.5 587 c 128,-1,102
 695 616 695 616 673.5 641.5 c 128,-1,103
 652 667 652 667 625 689 c 128,-1,104
NamedP: "iv06"
 598 711 598 711 571 731 c 257,105,-1
 548 747 l 257,82,-1
NamedP: "iv04"
EndSplineSet
PickledDataWithLists: "(dp0
Vcom.adobe.type.autohint
p1
(c_codecs
encode
p2
(Vdata
p3
Vlatin1
p4
tp5
Rp6
g2
(V<data>\\u000a        <hintSetList/>\\u000a      </data>
p7
g4
tp8
Rp9
Ntp10
sVcom.fontlab.ttprogram
p11
(g2
(Vdata
p12
g4
tp13
Rp14
g2
(V<data>\\u000a        <ttProgram>\\u000a          <ttc align=\"round\" code=\"alignv\" point=\"av01\"/>\\u000a          <ttc code=\"alignt\" point=\"at01\" zone=\"t: 1\"/>\\u000a          <ttc code=\"singlev\" point1=\"at01\" point2=\"sv01\" stem=\"eq Y: 135\"/>\\u000a          <ttc code=\"interpolatev\" point=\"iv01\" point1=\"iv02\" point2=\"sv01\"/>\\u000a          <ttc code=\"singlev\" point1=\"av01\" point2=\"sv02\" stem=\"eq Y: 135\"/>\\u000a          <ttc code=\"interpolatev\" point=\"iv03\" point1=\"sv02\" point2=\"iv04\"/>\\u000a          <ttc code=\"interpolatev\" point=\"iv05\" point1=\"iv04\" point2=\"sv02\"/>\\u000a          <ttc code=\"interpolatev\" point=\"iv06\" point1=\"sv01\" point2=\"iv02\"/>\\u000a        </ttProgram>\\u000a      </data>
p15
g4
tp16
Rp17
Ntp18
sVcom.typemytype.robofont.guides
p19
(lp20
(dp21
Vangle
p22
I90
sVisGlobal
p23
I00
sVmagnetic
p24
I5
sVx
p25
I850
sVy
p26
I0
sas."
EndChar
StartChar: copyright
Encoding: 198 169 198
GlifName: copyright
Width: 1300
VWidth: 0
Flags: W
LayerCount: 2
Fore
SplineSet
650 1517 m 257,0,1
NamedP: "hr00"
 553 1517 553 1517 467.5 1480 c 128,-1,2
 382 1443 382 1443 318 1379 c 128,-1,3
 254 1315 254 1315 217 1229.5 c 128,-1,4
 180 1144 180 1144 180 1047 c 257,5,6
 180 949 180 949 217 863.5 c 128,-1,7
 254 778 254 778 318 714.5 c 128,-1,8
 382 651 382 651 467.5 614 c 128,-1,9
 553 577 553 577 650 577 c 257,10,11
 747 577 747 577 832.5 614 c 128,-1,12
 918 651 918 651 982 714.5 c 128,-1,13
 1046 778 1046 778 1083 863.5 c 128,-1,14
 1120 949 1120 949 1120 1047 c 257,15,16
 1120 1144 1120 1144 1083 1229.5 c 128,-1,17
 1046 1315 1046 1315 982 1379 c 128,-1,18
 918 1443 918 1443 832.5 1480 c 128,-1,19
 747 1517 747 1517 650 1517 c 257,0,1
NamedP: "hr00"
650 701 m 257,20,21
 579 701 579 701 516 729 c 128,-1,22
 453 757 453 757 406 804.5 c 128,-1,23
 359 852 359 852 331.5 914.5 c 128,-1,24
 304 977 304 977 304 1047 c 257,25,26
 304 1119 304 1119 331 1182 c 128,-1,27
 358 1245 358 1245 405 1292 c 128,-1,28
 452 1339 452 1339 515 1366 c 128,-1,29
 578 1393 578 1393 650 1393 c 257,30,31
 722 1393 722 1393 785 1366 c 128,-1,32
 848 1339 848 1339 895 1292 c 128,-1,33
 942 1245 942 1245 969 1182 c 128,-1,34
 996 1119 996 1119 996 1047 c 257,35,36
 996 976 996 976 968 913 c 128,-1,37
 940 850 940 850 892.5 803 c 128,-1,38
 845 756 845 756 782.5 728.5 c 128,-1,39
 720 701 720 701 650 701 c 257,20,21
860 1231 m 257,40,41
 822 1269 822 1269 779 1285.5 c 128,-1,42
 736 1302 736 1302 682 1302 c 257,43,44
 612 1302 612 1302 560.5 1281.5 c 128,-1,45
 509 1261 509 1261 475.5 1227 c 128,-1,46
 442 1193 442 1193 425.5 1149 c 128,-1,47
 409 1105 409 1105 409 1058 c 257,48,49
 409 1006 409 1006 426 958 c 128,-1,50
 443 910 443 910 477 873 c 128,-1,51
 511 836 511 836 561.5 813.5 c 128,-1,52
 612 791 612 791 679 791 c 257,53,54
 733 791 733 791 777 804.5 c 128,-1,55
 821 818 821 818 858 841 c 257,56,-1
 802 929 l 257,57,58
 776 912 776 912 744 900.5 c 128,-1,59
 712 889 712 889 686 889 c 257,60,61
 654 889 654 889 632.5 903 c 128,-1,62
 611 917 611 917 598 939.5 c 128,-1,63
 585 962 585 962 579.5 991.5 c 128,-1,64
 574 1021 574 1021 574 1052 c 257,65,66
 574 1082 574 1082 579.5 1109.5 c 128,-1,67
 585 1137 585 1137 598 1158 c 128,-1,68
 611 1179 611 1179 631.5 1191.5 c 128,-1,69
 652 1204 652 1204 681 1204 c 257,70,71
 705 1204 705 1204 729.5 1197.5 c 128,-1,72
 754 1191 754 1191 785 1165 c 257,73,-1
 860 1231 l 257,40,41
EndSplineSet
PickledDataWithLists: "(dp0
Vcom.adobe.type.autohint
p1
(c_codecs
encode
p2
(Vdata
p3
Vlatin1
p4
tp5
Rp6
g2
(V<data>\\u000a        <hintSetList>\\u000a          <hintset pointTag=\"hr00\">\\u000a            <hstem pos=\"577\" width=\"124\"/>\\u000a            <hstem pos=\"791\" width=\"98\"/>\\u000a            <hstem pos=\"1204\" width=\"98\"/>\\u000a            <hstem pos=\"1393\" width=\"124\"/>\\u000a            <vstem pos=\"180\" width=\"124\"/>\\u000a            <vstem pos=\"409\" width=\"165\"/>\\u000a            <vstem pos=\"996\" width=\"124\"/>\\u000a          </hintset>\\u000a        </hintSetList>\\u000a      </data>
p7
g4
tp8
Rp9
Ntp10
s."
EndChar
StartChar: registered
Encoding: 411 174 411
GlifName: registered
Width: 1300
VWidth: 0
Flags: W
LayerCount: 2
Fore
SplineSet
650 1517 m 257,0,1
 553 1517 553 1517 467.5 1480 c 128,-1,2
 382 1443 382 1443 318 1379 c 128,-1,3
 254 1315 254 1315 217 1229.5 c 128,-1,4
 180 1144 180 1144 180 1047 c 257,5,6
 180 949 180 949 217 863.5 c 128,-1,7
 254 778 254 778 318 714.5 c 128,-1,8
 382 651 382 651 467.5 614 c 128,-1,9
 553 577 553 577 650 577 c 257,10,11
 747 577 747 577 832.5 614 c 128,-1,12
 918 651 918 651 982 714.5 c 128,-1,13
 1046 778 1046 778 1083 863.5 c 128,-1,14
 1120 949 1120 949 1120 1047 c 257,15,16
 1120 1144 1120 1144 1083 1229.5 c 128,-1,17
 1046 1315 1046 1315 982 1379 c 128,-1,18
 918 1443 918 1443 832.5 1480 c 128,-1,19
 747 1517 747 1517 650 1517 c 257,0,1
650 701 m 257,20,21
 579 701 579 701 516 729 c 128,-1,22
 453 757 453 757 406 804.5 c 128,-1,23
 359 852 359 852 331.5 914.5 c 128,-1,24
 304 977 304 977 304 1047 c 257,25,26
 304 1119 304 1119 331 1182 c 128,-1,27
 358 1245 358 1245 405 1292 c 128,-1,28
 452 1339 452 1339 515 1366 c 128,-1,29
 578 1393 578 1393 650 1393 c 257,30,31
 722 1393 722 1393 785 1366 c 128,-1,32
 848 1339 848 1339 895 1292 c 128,-1,33
 942 1245 942 1245 969 1182 c 128,-1,34
 996 1119 996 1119 996 1047 c 257,35,36
 996 976 996 976 968 913 c 128,-1,37
 940 850 940 850 892.5 803 c 128,-1,38
 845 756 845 756 782.5 728.5 c 128,-1,39
 720 701 720 701 650 701 c 257,20,21
601 1231 m 257,40,41
 607 1232 607 1232 611.5 1232 c 128,-1,42
 616 1232 616 1232 628 1232 c 257,43,44
 643 1232 643 1232 657.5 1228.5 c 128,-1,45
 672 1225 672 1225 684 1216 c 128,-1,46
 696 1207 696 1207 703.5 1191.5 c 128,-1,47
 711 1176 711 1176 711 1153 c 257,48,49
 711 1118 711 1118 690.5 1091.5 c 128,-1,50
 670 1065 670 1065 627 1065 c 257,51,-1
 607 1065 l 257,52,-1
 607 1174 l 257,53,-1
NamedP: "hr01"
 601 1231 l 257,40,41
752 800 m 257,54,-1
 869 800 l 257,55,-1
 730 993 l 257,56,-1
NamedP: "hr02"
 685 1004 l 257,57,58
 711 1011 711 1011 735 1023 c 128,-1,59
 759 1035 759 1035 777 1053 c 128,-1,60
 795 1071 795 1071 806 1096.5 c 128,-1,61
 817 1122 817 1122 817 1158 c 257,62,63
 817 1228 817 1228 763 1264 c 128,-1,64
 709 1300 709 1300 621 1300 c 257,65,66
 607 1300 607 1300 589 1299 c 128,-1,67
 571 1298 571 1298 552 1297 c 128,-1,68
 533 1296 533 1296 514.5 1294 c 128,-1,69
 496 1292 496 1292 482 1291 c 257,70,-1
 494 1218 l 257,71,-1
 494 800 l 257,72,-1
 607 800 l 257,73,-1
 607 993 l 257,74,75
 609 993 609 993 613.5 992 c 128,-1,76
 618 991 618 991 622 987 c 257,77,-1
 752 800 l 257,54,-1
EndSplineSet
PickledDataWithLists: "(dp0
Vcom.adobe.type.autohint
p1
(c_codecs
encode
p2
(Vdata
p3
Vlatin1
p4
tp5
Rp6
g2
(V<data>\\u000a        <hintSetList>\\u000a          <hintset pointTag=\"hr01\">\\u000a            <hstem pos=\"577\" width=\"488\"/>\\u000a            <hstem pos=\"1393\" width=\"124\"/>\\u000a            <vstem pos=\"180\" width=\"124\"/>\\u000a            <vstem pos=\"494\" width=\"113\"/>\\u000a            <vstem pos=\"711\" width=\"106\"/>\\u000a            <vstem pos=\"996\" width=\"124\"/>\\u000a          </hintset>\\u000a          <hintset pointTag=\"hr02\">\\u000a            <hstem pos=\"577\" width=\"124\"/>\\u000a            <hstem pos=\"800\" width=\"500\"/>\\u000a            <hstem pos=\"1393\" width=\"124\"/>\\u000a            <vstem pos=\"180\" width=\"124\"/>\\u000a            <vstem pos=\"494\" width=\"113\"/>\\u000a            <vstem pos=\"711\" width=\"106\"/>\\u000a            <vstem pos=\"996\" width=\"124\"/>\\u000a          </hintset>\\u000a        </hintSetList>\\u000a      </data>
p7
g4
tp8
Rp9
Ntp10
s."
EndChar
StartChar: acute
Encoding: 92 180 92
GlifName: acute
Width: 1300
VWidth: 0
Flags: W
LayerCount: 2
Fore
SplineSet
563 1500 m 257,0,-1
NamedP: "ah01"
 900 1520 l 257,1,-1
NamedP: "sh01"
 615 1200 l 257,2,-1
 400 1200 l 257,3,-1
NamedP: "mh01"
 563 1500 l 257,0,-1
NamedP: "ah01"
EndSplineSet
PickledDataWithLists: "(dp0
Vcom.adobe.type.autohint
p1
(c_codecs
encode
p2
(Vdata
p3
Vlatin1
p4
tp5
Rp6
g2
(V<data>\\u000a        <hintSetList>\\u000a          <hintset pointTag=\"sh01\">\\u000a            <hstem pos=\"1520\" width=\"-20\"/>\\u000a          </hintset>\\u000a          <hintset pointTag=\"ah01\">\\u000a            <hstem pos=\"1200\" width=\"310\"/>\\u000a          </hintset>\\u000a        </hintSetList>\\u000a      </data>
p7
g4
tp8
Rp9
Ntp10
sVcom.fontlab.ttprogram
p11
(g2
(Vdata
p12
g4
tp13
Rp14
g2
(V<data>\\u000a        <ttProgram>\\u000a          <ttc align=\"round\" code=\"alignh\" point=\"ah01\"/>\\u000a          <ttc code=\"singleh\" point1=\"ah01\" point2=\"sh01\" stem=\"eq X: dia Fat\"/>\\u000a          <ttc code=\"mdeltah\" delta=\"-7\" point=\"sh01\" ppm1=\"31\" ppm2=\"31\"/>\\u000a          <ttc code=\"mdeltah\" delta=\"-2\" point=\"mh01\" ppm1=\"14\" ppm2=\"14\"/>\\u000a          <ttc code=\"mdeltah\" delta=\"-2\" point=\"mh01\" ppm1=\"24\" ppm2=\"24\"/>\\u000a          <ttc align=\"round\" code=\"alignv\" point=\"mh01\"/>\\u000a          <ttc code=\"alignt\" point=\"sh01\" zone=\"t: 1\"/>\\u000a          <ttc code=\"alignt\" point=\"ah01\" zone=\"t: 1\"/>\\u000a        </ttProgram>\\u000a      </data>
p15
g4
tp16
Rp17
Ntp18
s."
EndChar
StartChar: mu
Encoding: 324 181 324
GlifName: mu
Width: 1300
VWidth: 0
Flags: W
LayerCount: 2
Fore
SplineSet
1269 51 m 257,0,1
NamedP: "hr00"
 1254 37 1254 37 1237 25 c 128,-1,2
 1220 13 1220 13 1195 3.5 c 128,-1,3
 1170 -6 1170 -6 1136.5 -11.5 c 128,-1,4
 1103 -17 1103 -17 1055 -17 c 257,5,6
NamedP: "ab02"
 1021 -17 1021 -17 988 -5 c 128,-1,7
 955 7 955 7 926 32 c 128,-1,8
 897 57 897 57 872.5 96 c 128,-1,9
 848 135 848 135 832 190 c 257,10,-1
NamedP: "ih01"
 785 72 l 257,11,12
 767 56 767 56 743.5 40 c 128,-1,13
 720 24 720 24 690 11.5 c 128,-1,14
 660 -1 660 -1 624 -9 c 128,-1,15
 588 -17 588 -17 545 -17 c 257,16,17
NamedP: "ab01"
 525 -17 525 -17 496 -12 c 128,-1,18
 467 -7 467 -7 437.5 1.5 c 128,-1,19
 408 10 408 10 383 20 c 128,-1,20
 358 30 358 30 346 40 c 257,21,-1
 411 -166 l 257,22,-1
 411 -500 l 257,23,-1
NamedP: "ab03"
 100 -500 l 257,24,-1
 100 1093 l 257,25,-1
NamedP: "sh02"
 411 1125 l 257,26,-1
NamedP: "av01"
 411 362 l 257,27,28
NamedP: "sh03"
 411 324 411 324 423.5 293.5 c 128,-1,29
 436 263 436 263 456.5 242 c 128,-1,30
 477 221 477 221 502.5 210 c 128,-1,31
 528 199 528 199 555 199 c 257,32,33
NamedP: "sv01"
 598 199 598 199 634.5 219.5 c 128,-1,34
 671 240 671 240 700 268 c 257,35,-1
NamedP: "sh04"
 700 1093 l 257,36,-1
NamedP: "ah01"
 1011 1125 l 257,37,-1
NamedP: "sh01"
 1011 365 l 257,38,39
 1011 273 1011 273 1030 236 c 128,-1,40
 1049 199 1049 199 1084 199 c 257,41,42
 1111 199 1111 199 1128 204.5 c 128,-1,43
 1145 210 1145 210 1170 223 c 257,44,-1
 1269 51 l 257,0,1
NamedP: "hr00"
EndSplineSet
PickledDataWithLists: "(dp0
Vcom.adobe.type.autohint
p1
(c_codecs
encode
p2
(Vdata
p3
Vlatin1
p4
tp5
Rp6
g2
(V<data>\\u000a        <hintSetList>\\u000a          <hintset pointTag=\"hr00\">\\u000a            <hstem pos=\"-479\" width=\"-21\"/>\\u000a            <hstem pos=\"-17\" width=\"216\"/>\\u000a            <hstem pos=\"1125\" width=\"-20\"/>\\u000a            <vstem pos=\"100\" width=\"311\"/>\\u000a            <vstem pos=\"700\" width=\"311\"/>\\u000a          </hintset>\\u000a        </hintSetList>\\u000a      </data>
p7
g4
tp8
Rp9
Ntp10
sVcom.fontlab.ttprogram
p11
(g2
(Vdata
p12
g4
tp13
Rp14
g2
(V<data>\\u000a        <ttProgram>\\u000a          <ttc align=\"round\" code=\"alignh\" point=\"lsb\"/>\\u000a          <ttc align=\"round\" code=\"alignh\" point=\"ah01\"/>\\u000a          <ttc code=\"singleh\" point1=\"ah01\" point2=\"sh01\" stem=\"eq X: 190\"/>\\u000a          <ttc code=\"singleh\" point1=\"lsb\" point2=\"sh02\"/>\\u000a          <ttc code=\"interpolateh\" point=\"ih01\" point1=\"sh01\" point2=\"sh02\"/>\\u000a          <ttc code=\"singleh\" point1=\"sh02\" point2=\"sh03\" stem=\"eq X: 190\"/>\\u000a          <ttc code=\"singleh\" point1=\"ah01\" point2=\"sh04\"/>\\u000a          <ttc code=\"singleh\" point1=\"sh01\" point2=\"rsb\"/>\\u000a          <ttc align=\"round\" code=\"alignv\" point=\"sh01\"/>\\u000a          <ttc align=\"round\" code=\"alignv\" point=\"av01\"/>\\u000a          <ttc code=\"alignb\" point=\"ab01\" zone=\"b: 0\"/>\\u000a          <ttc code=\"alignb\" point=\"ab02\" zone=\"b: 0\"/>\\u000a          <ttc code=\"alignb\" point=\"ab03\" zone=\"b: -500\"/>\\u000a          <ttc code=\"interpolatev\" point=\"ih01\" point1=\"ab01\" point2=\"sh01\"/>\\u000a          <ttc code=\"singlev\" point1=\"ab01\" point2=\"sv01\" stem=\"eq Y: 162\"/>\\u000a        </ttProgram>\\u000a      </data>
p15
g4
tp16
Rp17
Ntp18
s."
EndChar
StartChar: cedilla
Encoding: 169 184 169
GlifName: cedilla
Width: 1300
VWidth: 0
Flags: W
LayerCount: 2
Fore
SplineSet
884 0 m 257,0,1
 911 -20 911 -20 933 -46 c 257,2,3
 952 -69 952 -69 967.5 -100.5 c 128,-1,4
 983 -132 983 -132 983 -171 c 257,5,6
 983 -221 983 -221 959.5 -264 c 128,-1,7
 936 -307 936 -307 896 -338.5 c 128,-1,8
 856 -370 856 -370 804 -388.5 c 128,-1,9
 752 -407 752 -407 695 -407 c 257,10,11
 635 -407 635 -407 577.5 -389 c 128,-1,12
 520 -371 520 -371 472 -349 c 257,13,14
 417 -323 417 -323 366 -290 c 257,15,-1
 481 -131 l 257,16,17
 513 -151 513 -151 545 -166 c 257,18,19
 571 -179 571 -179 600.5 -189.5 c 128,-1,20
 630 -200 630 -200 652 -200 c 257,21,22
 675 -200 675 -200 695.5 -187.5 c 128,-1,23
 716 -175 716 -175 716 -147 c 257,24,25
 716 -126 716 -126 704 -102.5 c 128,-1,26
 692 -79 692 -79 676 -58 c 128,-1,27
 660 -37 660 -37 644.5 -21.5 c 128,-1,28
 629 -6 629 -6 622 0 c 257,29,-1
 884 0 l 257,0,1
EndSplineSet
PickledDataWithLists: "(dp0
Vcom.adobe.type.autohint
p1
(c_codecs
encode
p2
(Vdata
p3
Vlatin1
p4
tp5
Rp6
g2
(V<data>\\u000a        <hintSetList/>\\u000a      </data>
p7
g4
tp8
Rp9
Ntp10
s."
EndChar
StartChar: Acircumflex
Encoding: 4 194 4
GlifName: A_circumflex
Width: 1300
VWidth: 0
Flags: W
LayerCount: 2
Fore
SplineSet
50 0 m 257,0,-1
NamedP: "sh02"
 405 1284 l 257,1,-1
 441 1500 l 257,2,-1
 819 1520 l 257,3,-1
NamedP: "at01"
 1250 0 l 257,4,-1
NamedP: "sh04"
 916 0 l 257,5,-1
NamedP: "sh03"
 812 427 l 257,6,-1
NamedP: "dv01"
 470 427 l 257,7,-1
 369 0 l 257,8,-1
NamedP: "sh01"
 50 0 l 257,0,-1
NamedP: "sh02"
643 1331 m 257,9,-1
NamedP: "ah01"
 604 990 l 257,10,-1
 529 646 l 257,11,-1
NamedP: "ih01"
 753 646 l 257,12,-1
NamedP: "ih02"
 681 990 l 257,13,-1
NamedP: "hr03"
 643 1331 l 257,9,-1
NamedP: "ah01"
958 1620 m 257,14,-1
NamedP: "ah03"
 738 1620 l 257,15,-1
NamedP: "sh05"
 668 1723 l 257,16,-1
NamedP: "mv01"
 638 1850 l 257,17,-1
NamedP: "ih03"
 608 1723 l 257,18,-1
NamedP: "mh01"
 527 1620 l 257,19,-1
NamedP: "sh06"
 288 1620 l 257,20,-1
NamedP: "ah02"
 483 1900 l 257,21,-1
NamedP: "ih04"
 773 1920 l 257,22,-1
NamedP: "ih05"
 958 1620 l 257,14,-1
NamedP: "ah03"
EndSplineSet
PickledDataWithLists: "(dp0
Vcom.adobe.type.autohint
p1
(c_codecs
encode
p2
(Vdata
p3
Vlatin1
p4
tp5
Rp6
g2
(V<data>\\u000a        <hintSetList>\\u000a          <hintset pointTag=\"ah03\">\\u000a            <hstem pos=\"1920\" width=\"-20\"/>\\u000a          </hintset>\\u000a          <hintset pointTag=\"ah02\">\\u000a            <hstem pos=\"1620\" width=\"290\"/>\\u000a          </hintset>\\u000a          <hintset pointTag=\"hr03\">\\u000a            <hstem pos=\"1920\" width=\"-20\"/>\\u000a          </hintset>\\u000a        </hintSetList>\\u000a      </data>
p7
g4
tp8
Rp9
Ntp10
sVcom.fontlab.ttprogram
p11
(g2
(Vdata
p12
g4
tp13
Rp14
g2
(V<data>\\u000a        <ttProgram>\\u000a          <ttc align=\"round\" code=\"alignh\" point=\"ah01\"/>\\u000a          <ttc code=\"singleh\" point1=\"ah01\" point2=\"sh01\"/>\\u000a          <ttc code=\"singleh\" point1=\"sh01\" point2=\"sh02\" stem=\"eq X: dia Lite\"/>\\u000a          <ttc code=\"singleh\" point1=\"ah01\" point2=\"sh03\"/>\\u000a          <ttc code=\"singleh\" point1=\"sh03\" point2=\"sh04\" stem=\"eq X: dia Fat\"/>\\u000a          <ttc code=\"interpolateh\" point=\"ih01\" point1=\"ah01\" point2=\"sh01\"/>\\u000a          <ttc code=\"interpolateh\" point=\"ih02\" point1=\"ah01\" point2=\"sh03\"/>\\u000a          <ttc code=\"alignt\" point=\"at01\" zone=\"t: 1\"/>\\u000a          <ttc code=\"alignb\" point=\"sh02\" zone=\"b: 0\"/>\\u000a          <ttc code=\"alignb\" point=\"sh04\" zone=\"b: 0\"/>\\u000a          <ttc code=\"doublev\" point1=\"dv01\" point2=\"ih02\" stem=\"eq Y: 144\"/>\\u000a          <ttc code=\"interpolatev\" point=\"ah01\" point1=\"at01\" point2=\"sh02\"/>\\u000a          <ttc align=\"round\" code=\"alignh\" point=\"ah02\"/>\\u000a          <ttc align=\"round\" code=\"alignh\" point=\"ah03\"/>\\u000a          <ttc code=\"singleh\" point1=\"ah03\" point2=\"sh05\" stem=\"eq X: dia Lite\"/>\\u000a          <ttc code=\"mdeltah\" delta=\"6\" point=\"sh05\" ppm1=\"18\" ppm2=\"18\"/>\\u000a          <ttc code=\"interpolateh\" point=\"ih03\" point1=\"ah02\" point2=\"ah03\"/>\\u000a          <ttc code=\"mdeltah\" delta=\"-4\" point=\"mh01\" ppm1=\"18\" ppm2=\"18\"/>\\u000a          <ttc code=\"singleh\" point1=\"ah02\" point2=\"sh06\" stem=\"eq X: dia Lite\"/>\\u000a          <ttc code=\"mdeltah\" delta=\"-4\" point=\"sh06\" ppm1=\"18\" ppm2=\"18\"/>\\u000a          <ttc code=\"interpolateh\" point=\"ih04\" point1=\"ah03\" point2=\"sh06\"/>\\u000a          <ttc code=\"interpolateh\" point=\"ih05\" point1=\"ah02\" point2=\"sh05\"/>\\u000a          <ttc align=\"round\" code=\"alignv\" point=\"ah02\"/>\\u000a          <ttc align=\"round\" code=\"alignv\" point=\"ah03\"/>\\u000a          <ttc code=\"alignt\" point=\"ih05\" zone=\"t: 1\"/>\\u000a          <ttc code=\"alignt\" point=\"ih04\" zone=\"t: 1\"/>\\u000a          <ttc code=\"mdeltav\" delta=\"2\" point=\"mv01\" ppm1=\"18\" ppm2=\"18\"/>\\u000a          <ttc code=\"mdeltav\" delta=\"-1\" point=\"sh06\" ppm1=\"18\" ppm2=\"18\"/>\\u000a          <ttc code=\"mdeltah\" delta=\"1\" point=\"ah03\" ppm1=\"22\" ppm2=\"22\"/>\\u000a          <ttc code=\"mdeltah\" delta=\"-4\" point=\"sh06\" ppm1=\"17\" ppm2=\"17\"/>\\u000a          <ttc code=\"mdeltav\" delta=\"8\" point=\"ah03\" ppm1=\"22\" ppm2=\"22\"/>\\u000a          <ttc code=\"mdeltav\" delta=\"8\" point=\"sh05\" ppm1=\"12\" ppm2=\"12\"/>\\u000a          <ttc code=\"mdeltav\" delta=\"6\" point=\"sh05\" ppm1=\"22\" ppm2=\"22\"/>\\u000a          <ttc code=\"mdeltav\" delta=\"6\" point=\"ih03\" ppm1=\"12\" ppm2=\"12\"/>\\u000a          <ttc code=\"mdeltav\" delta=\"6\" point=\"sh06\" ppm1=\"17\" ppm2=\"17\"/>\\u000a          <ttc code=\"mdeltav\" delta=\"7\" point=\"sh06\" ppm1=\"12\" ppm2=\"12\"/>\\u000a          <ttc code=\"mdeltav\" delta=\"6\" point=\"sh06\" ppm1=\"22\" ppm2=\"22\"/>\\u000a          <ttc code=\"mdeltav\" delta=\"5\" point=\"sh06\" ppm1=\"20\" ppm2=\"20\"/>\\u000a          <ttc code=\"mdeltav\" delta=\"8\" point=\"ah02\" ppm1=\"22\" ppm2=\"22\"/>\\u000a        </ttProgram>\\u000a      </data>
p15
g4
tp16
Rp17
Ntp18
s."
EndChar
StartChar: Adieresis
Encoding: 5 196 5
GlifName: A_dieresis
Width: 1300
VWidth: 0
Flags: W
LayerCount: 2
Fore
SplineSet
50 0 m 257,0,-1
NamedP: "sh02"
 405 1284 l 257,1,-1
 441 1500 l 257,2,-1
 819 1520 l 257,3,-1
NamedP: "at01"
 1250 0 l 257,4,-1
NamedP: "sh04"
 916 0 l 257,5,-1
NamedP: "sh03"
 812 427 l 257,6,-1
NamedP: "dv01"
 470 427 l 257,7,-1
 369 0 l 257,8,-1
NamedP: "sh01"
 50 0 l 257,0,-1
NamedP: "sh02"
643 1331 m 257,9,-1
NamedP: "ah01"
 604 990 l 257,10,-1
 529 646 l 257,11,-1
NamedP: "ih01"
 753 646 l 257,12,-1
NamedP: "ih02"
 681 990 l 257,13,-1
 643 1331 l 257,9,-1
NamedP: "ah01"
304 1866 m 257,14,-1
NamedP: "ah02"
 580 1866 l 257,15,-1
 580 1600 l 257,16,-1
NamedP: "sv01"
 304 1600 l 257,17,-1
 304 1866 l 257,14,-1
NamedP: "ah02"
704 1866 m 257,18,-1
NamedP: "ah03"
 980 1866 l 257,19,-1
 980 1600 l 257,20,-1
NamedP: "sv02"
 704 1600 l 257,21,-1
 704 1866 l 257,18,-1
NamedP: "ah03"
EndSplineSet
PickledDataWithLists: "(dp0
Vcom.adobe.type.autohint
p1
(c_codecs
encode
p2
(Vdata
p3
Vlatin1
p4
tp5
Rp6
g2
(V<data>\\u000a        <hintSetList>\\u000a          <hintset pointTag=\"ah02\">\\u000a            <hstem pos=\"1600\" width=\"266\"/>\\u000a            <vstem pos=\"304\" width=\"276\"/>\\u000a            <vstem pos=\"704\" width=\"276\"/>\\u000a          </hintset>\\u000a        </hintSetList>\\u000a      </data>
p7
g4
tp8
Rp9
Ntp10
sVcom.fontlab.ttprogram
p11
(g2
(Vdata
p12
g4
tp13
Rp14
g2
(V<data>\\u000a        <ttProgram>\\u000a          <ttc align=\"round\" code=\"alignh\" point=\"ah01\"/>\\u000a          <ttc code=\"singleh\" point1=\"ah01\" point2=\"sh01\"/>\\u000a          <ttc code=\"singleh\" point1=\"sh01\" point2=\"sh02\" stem=\"eq X: dia Lite\"/>\\u000a          <ttc code=\"singleh\" point1=\"ah01\" point2=\"sh03\"/>\\u000a          <ttc code=\"singleh\" point1=\"sh03\" point2=\"sh04\" stem=\"eq X: dia Fat\"/>\\u000a          <ttc code=\"interpolateh\" point=\"ih01\" point1=\"ah01\" point2=\"sh01\"/>\\u000a          <ttc code=\"interpolateh\" point=\"ih02\" point1=\"ah01\" point2=\"sh03\"/>\\u000a          <ttc code=\"alignt\" point=\"at01\" zone=\"t: 1\"/>\\u000a          <ttc code=\"alignb\" point=\"sh02\" zone=\"b: 0\"/>\\u000a          <ttc code=\"alignb\" point=\"sh04\" zone=\"b: 0\"/>\\u000a          <ttc code=\"doublev\" point1=\"dv01\" point2=\"ih02\" stem=\"eq Y: 144\"/>\\u000a          <ttc code=\"interpolatev\" point=\"ah01\" point1=\"at01\" point2=\"sh02\"/>\\u000a          <ttc align=\"round\" code=\"alignh\" point=\"ah02\"/>\\u000a          <ttc align=\"round\" code=\"alignh\" point=\"ah03\"/>\\u000a          <ttc align=\"round\" code=\"alignv\" point=\"ah02\"/>\\u000a          <ttc align=\"round\" code=\"alignv\" point=\"ah03\"/>\\u000a          <ttc code=\"singlev\" point1=\"ah02\" point2=\"sv01\"/>\\u000a          <ttc code=\"singlev\" point1=\"ah03\" point2=\"sv02\"/>\\u000a        </ttProgram>\\u000a      </data>
p15
g4
tp16
Rp17
Ntp18
s."
EndChar
StartChar: Edieresis
Encoding: 20 203 20
GlifName: E_dieresis
Width: 1300
VWidth: 0
Flags: W
LayerCount: 2
Fore
SplineSet
1137 228 m 257,0,-1
NamedP: "dh02"
 1110 0 l 257,1,-1
NamedP: "ab02"
 150 0 l 257,2,-1
NamedP: "ab01"
 167 231 l 257,3,-1
NamedP: "dh03"
 167 1263 l 257,4,-1
 132 1500 l 257,5,-1
NamedP: "at01"
 1100 1500 l 257,6,-1
NamedP: "ah01"
 1100 1272 l 257,7,-1
 503 1272 l 257,8,-1
NamedP: "sv01"
 518 1134 l 257,9,-1
NamedP: "sh01"
 518 916 l 257,10,-1
 1034 916 l 257,11,-1
NamedP: "dv01"
 1034 703 l 257,12,-1
NamedP: "dh01"
 518 703 l 257,13,-1
 518 360 l 257,14,-1
NamedP: "dh04"
 510 228 l 257,15,-1
 1137 228 l 257,0,-1
NamedP: "dh02"
312 1866 m 257,16,-1
NamedP: "ah02"
 588 1866 l 257,17,-1
 588 1600 l 257,18,-1
NamedP: "sv02"
 312 1600 l 257,19,-1
 312 1866 l 257,16,-1
NamedP: "ah02"
712 1866 m 257,20,-1
NamedP: "ah03"
 988 1866 l 257,21,-1
 988 1600 l 257,22,-1
NamedP: "sv03"
 712 1600 l 257,23,-1
 712 1866 l 257,20,-1
NamedP: "ah03"
EndSplineSet
PickledDataWithLists: "(dp0
Vcom.adobe.type.autohint
p1
(c_codecs
encode
p2
(Vdata
p3
Vlatin1
p4
tp5
Rp6
g2
(V<data>\\u000a        <hintSetList>\\u000a          <hintset pointTag=\"ah02\">\\u000a            <hstem pos=\"1600\" width=\"266\"/>\\u000a            <vstem pos=\"312\" width=\"276\"/>\\u000a            <vstem pos=\"712\" width=\"276\"/>\\u000a          </hintset>\\u000a        </hintSetList>\\u000a      </data>
p7
g4
tp8
Rp9
Ntp10
sVcom.fontlab.ttprogram
p11
(g2
(Vdata
p12
g4
tp13
Rp14
g2
(V<data>\\u000a        <ttProgram>\\u000a          <ttc align=\"round\" code=\"alignh\" point=\"ah01\"/>\\u000a          <ttc code=\"doubleh\" point1=\"dh01\" point2=\"dh02\" stem=\"eq X: ecart du B\"/>\\u000a          <ttc code=\"doubleh\" point1=\"dh03\" point2=\"dh04\" stem=\"eq X: 208\"/>\\u000a          <ttc code=\"singleh\" point1=\"dh04\" point2=\"sh01\"/>\\u000a          <ttc code=\"alignt\" point=\"ah01\" zone=\"t: 1\"/>\\u000a          <ttc code=\"alignt\" point=\"at01\" zone=\"t: 1\"/>\\u000a          <ttc code=\"alignb\" point=\"ab01\" zone=\"b: 0\"/>\\u000a          <ttc code=\"alignb\" point=\"ab02\" zone=\"b: 0\"/>\\u000a          <ttc code=\"doublev\" point1=\"dv01\" point2=\"dh01\" stem=\"eq Y: 144\"/>\\u000a          <ttc code=\"singlev\" point1=\"ab01\" point2=\"dh02\" stem=\"eq Y: 171\"/>\\u000a          <ttc code=\"singlev\" point1=\"ah01\" point2=\"sv01\" stem=\"eq Y: 171\"/>\\u000a          <ttc align=\"round\" code=\"alignh\" point=\"ah02\"/>\\u000a          <ttc align=\"round\" code=\"alignh\" point=\"ah03\"/>\\u000a          <ttc align=\"round\" code=\"alignv\" point=\"ah02\"/>\\u000a          <ttc align=\"round\" code=\"alignv\" point=\"ah03\"/>\\u000a          <ttc code=\"singlev\" point1=\"ah02\" point2=\"sv02\"/>\\u000a          <ttc code=\"singlev\" point1=\"ah03\" point2=\"sv03\"/>\\u000a        </ttProgram>\\u000a      </data>
p15
g4
tp16
Rp17
Ntp18
s."
EndChar
StartChar: Icircumflex
Encoding: 32 206 32
GlifName: I_circumflex
Width: 1300
VWidth: 0
Flags: W
LayerCount: 2
Fore
SplineSet
189 1500 m 257,0,-1
NamedP: "mh01"
 1067 1500 l 257,1,-1
NamedP: "ah02"
 1067 1272 l 257,2,-1
NamedP: "mh02"
 794 1272 l 257,3,-1
NamedP: "dh04"
 794 228 l 257,4,-1
NamedP: "dh02"
 1095 228 l 257,5,-1
NamedP: "sh01"
 1060 0 l 257,6,-1
NamedP: "ah03"
 182 0 l 257,7,-1
NamedP: "ah01"
 182 228 l 257,8,-1
NamedP: "mh03"
 460 228 l 257,9,-1
NamedP: "dh01"
 460 1272 l 257,10,-1
NamedP: "dh03"
 154 1272 l 257,11,-1
NamedP: "sh02"
 189 1500 l 257,0,-1
NamedP: "mh01"
955 1624 m 257,12,-1
NamedP: "ah05"
 735 1624 l 257,13,-1
NamedP: "sh03"
 665 1727 l 257,14,-1
NamedP: "mv01"
 635 1854 l 257,15,-1
NamedP: "ih01"
 605 1727 l 257,16,-1
NamedP: "mh04"
 524 1624 l 257,17,-1
NamedP: "sh04"
 285 1624 l 257,18,-1
NamedP: "ah04"
 480 1904 l 257,19,-1
NamedP: "ih02"
 770 1924 l 257,20,-1
NamedP: "ih03"
 955 1624 l 257,12,-1
NamedP: "ah05"
EndSplineSet
PickledDataWithLists: "(dp0
Vcom.adobe.type.autohint
p1
(c_codecs
encode
p2
(Vdata
p3
Vlatin1
p4
tp5
Rp6
g2
(V<data>\\u000a        <hintSetList>\\u000a          <hintset pointTag=\"ah05\">\\u000a            <hstem pos=\"1924\" width=\"-20\"/>\\u000a          </hintset>\\u000a          <hintset pointTag=\"ah04\">\\u000a            <hstem pos=\"1624\" width=\"290\"/>\\u000a          </hintset>\\u000a          <hintset pointTag=\"sh02\">\\u000a            <hstem pos=\"1924\" width=\"-20\"/>\\u000a          </hintset>\\u000a        </hintSetList>\\u000a      </data>
p7
g4
tp8
Rp9
Ntp10
sVcom.fontlab.ttprogram
p11
(g2
(Vdata
p12
g4
tp13
Rp14
g2
(V<data>\\u000a        <ttProgram>\\u000a          <ttc align=\"round\" code=\"alignh\" point=\"ah01\"/>\\u000a          <ttc align=\"round\" code=\"alignh\" point=\"ah02\"/>\\u000a          <ttc align=\"round\" code=\"alignh\" point=\"ah03\"/>\\u000a          <ttc code=\"doubleh\" point1=\"dh01\" point2=\"dh02\" stem=\"eq X: 208\"/>\\u000a          <ttc code=\"doubleh\" point1=\"dh03\" point2=\"dh04\" stem=\"eq X: 208\"/>\\u000a          <ttc code=\"mdeltah\" delta=\"-4\" point=\"mh01\" ppm1=\"22\" ppm2=\"22\"/>\\u000a          <ttc code=\"mdeltah\" delta=\"-8\" point=\"mh01\" ppm1=\"24\" ppm2=\"24\"/>\\u000a          <ttc code=\"mdeltah\" delta=\"8\" point=\"ah02\" ppm1=\"23\" ppm2=\"23\"/>\\u000a          <ttc code=\"mdeltah\" delta=\"-8\" point=\"ah02\" ppm1=\"24\" ppm2=\"24\"/>\\u000a          <ttc code=\"mdeltah\" delta=\"-3\" point=\"mh02\" ppm1=\"24\" ppm2=\"24\"/>\\u000a          <ttc code=\"mdeltah\" delta=\"-4\" point=\"ah01\" ppm1=\"22\" ppm2=\"22\"/>\\u000a          <ttc code=\"mdeltah\" delta=\"-6\" point=\"ah01\" ppm1=\"24\" ppm2=\"24\"/>\\u000a          <ttc code=\"singleh\" point1=\"ah01\" point2=\"sh01\" round=\"true\"/>\\u000a          <ttc code=\"mdeltah\" delta=\"-5\" point=\"sh01\" ppm1=\"17\" ppm2=\"17\"/>\\u000a          <ttc code=\"mdeltah\" delta=\"-5\" point=\"sh01\" ppm1=\"24\" ppm2=\"24\"/>\\u000a          <ttc code=\"mdeltah\" delta=\"-8\" point=\"sh01\" ppm1=\"19\" ppm2=\"19\"/>\\u000a          <ttc code=\"mdeltah\" delta=\"-5\" point=\"ah03\" ppm1=\"24\" ppm2=\"24\"/>\\u000a          <ttc code=\"mdeltah\" delta=\"-4\" point=\"mh03\" ppm1=\"22\" ppm2=\"22\"/>\\u000a          <ttc code=\"mdeltah\" delta=\"-7\" point=\"mh03\" ppm1=\"24\" ppm2=\"24\"/>\\u000a          <ttc code=\"singleh\" point1=\"ah02\" point2=\"sh02\" round=\"true\"/>\\u000a          <ttc code=\"mdeltah\" delta=\"-1\" point=\"sh02\" ppm1=\"24\" ppm2=\"24\"/>\\u000a          <ttc code=\"mdeltah\" delta=\"-5\" point=\"sh02\" ppm1=\"22\" ppm2=\"22\"/>\\u000a          <ttc code=\"singleh\" point1=\"ah01\" point2=\"lsb\" stem=\"eq X: 190\"/>\\u000a          <ttc code=\"singleh\" point1=\"ah03\" point2=\"rsb\" stem=\"eq X: 190\"/>\\u000a          <ttc code=\"alignt\" point=\"mh01\" zone=\"t: 1\"/>\\u000a          <ttc code=\"alignt\" point=\"ah02\" zone=\"t: 1\"/>\\u000a          <ttc code=\"alignb\" point=\"ah01\" zone=\"b: 0\"/>\\u000a          <ttc code=\"alignb\" point=\"ah03\" zone=\"b: 0\"/>\\u000a          <ttc code=\"singlev\" point1=\"ah02\" point2=\"mh02\" stem=\"eq Y: 171\"/>\\u000a          <ttc code=\"singlev\" point1=\"ah03\" point2=\"sh01\" stem=\"eq Y: 171\"/>\\u000a          <ttc code=\"singlev\" point1=\"ah01\" point2=\"mh03\" stem=\"eq Y: 171\"/>\\u000a          <ttc code=\"singlev\" point1=\"mh01\" point2=\"sh02\" stem=\"eq Y: 171\"/>\\u000a          <ttc code=\"mdeltav\" delta=\"1\" point=\"sh02\" ppm1=\"22\" ppm2=\"22\"/>\\u000a          <ttc align=\"round\" code=\"alignh\" point=\"ah04\"/>\\u000a          <ttc align=\"round\" code=\"alignh\" point=\"ah05\"/>\\u000a          <ttc code=\"singleh\" point1=\"ah05\" point2=\"sh03\" stem=\"eq X: dia Lite\"/>\\u000a          <ttc code=\"mdeltah\" delta=\"6\" point=\"sh03\" ppm1=\"18\" ppm2=\"18\"/>\\u000a          <ttc code=\"interpolateh\" point=\"ih01\" point1=\"ah04\" point2=\"ah05\"/>\\u000a          <ttc code=\"mdeltah\" delta=\"-4\" point=\"mh04\" ppm1=\"18\" ppm2=\"18\"/>\\u000a          <ttc code=\"singleh\" point1=\"ah04\" point2=\"sh04\" stem=\"eq X: dia Lite\"/>\\u000a          <ttc code=\"mdeltah\" delta=\"-4\" point=\"sh04\" ppm1=\"18\" ppm2=\"18\"/>\\u000a          <ttc code=\"interpolateh\" point=\"ih02\" point1=\"ah05\" point2=\"sh04\"/>\\u000a          <ttc code=\"interpolateh\" point=\"ih03\" point1=\"ah04\" point2=\"sh03\"/>\\u000a          <ttc align=\"round\" code=\"alignv\" point=\"ah04\"/>\\u000a          <ttc align=\"round\" code=\"alignv\" point=\"ah05\"/>\\u000a          <ttc code=\"alignt\" point=\"ih03\" zone=\"t: 1\"/>\\u000a          <ttc code=\"alignt\" point=\"ih02\" zone=\"t: 1\"/>\\u000a          <ttc code=\"mdeltav\" delta=\"2\" point=\"mv01\" ppm1=\"18\" ppm2=\"18\"/>\\u000a          <ttc code=\"mdeltav\" delta=\"-1\" point=\"sh04\" ppm1=\"18\" ppm2=\"18\"/>\\u000a        </ttProgram>\\u000a      </data>
p15
g4
tp16
Rp17
Ntp18
s."
EndChar
StartChar: Ntilde
Encoding: 46 209 46
GlifName: N_tilde
Width: 1300
VWidth: 0
Flags: W
LayerCount: 2
Fore
SplineSet
884 0 m 257,0,-1
NamedP: "mh01"
 400 950 l 257,1,-1
NamedP: "mh02"
 390 950 l 257,2,-1
NamedP: "mh03"
 452 649 l 257,3,-1
NamedP: "mh04"
 452 0 l 257,4,-1
NamedP: "ab01"
 129 0 l 257,5,-1
NamedP: "ah01"
 129 1263 l 257,6,-1
NamedP: "ah03"
 96 1500 l 257,7,-1
 422 1520 l 257,8,-1
NamedP: "mh05"
 900 600 l 257,9,-1
NamedP: "mh06"
 910 600 l 257,10,-1
NamedP: "mh07"
 851 852 l 257,11,-1
NamedP: "mh08"
 851 1500 l 257,12,-1
 1173 1520 l 257,13,-1
NamedP: "ah04"
 1173 0 l 257,14,-1
NamedP: "ah02"
 884 0 l 257,0,-1
NamedP: "mh01"
274 1627 m 257,15,16
NamedP: "sh01"
 278 1667 278 1667 294 1712.5 c 128,-1,17
 310 1758 310 1758 340 1796 c 128,-1,18
 370 1834 370 1834 416 1859 c 128,-1,19
NamedP: "mv01"
 462 1884 462 1884 525 1884 c 257,20,21
NamedP: "ah05"
 574 1884 574 1884 607.5 1871.5 c 128,-1,22
 641 1859 641 1859 668 1844 c 128,-1,23
 695 1829 695 1829 719.5 1816.5 c 128,-1,24
 744 1804 744 1804 775 1804 c 257,25,26
NamedP: "av03"
 796 1804 796 1804 810 1811 c 128,-1,27
 824 1818 824 1818 833.5 1830 c 128,-1,28
 843 1842 843 1842 848 1858 c 128,-1,29
 853 1874 853 1874 856 1892 c 257,30,-1
 1023 1882 l 257,31,32
NamedP: "av04"
 1020 1838 1020 1838 1006 1791.5 c 128,-1,33
 992 1745 992 1745 963.5 1707 c 128,-1,34
 935 1669 935 1669 890 1644.5 c 128,-1,35
NamedP: "mv02"
 845 1620 845 1620 778 1620 c 257,36,37
NamedP: "av01"
 732 1620 732 1620 700.5 1632.5 c 128,-1,38
 669 1645 669 1645 643 1660 c 128,-1,39
 617 1675 617 1675 590.5 1687.5 c 128,-1,40
 564 1700 564 1700 529 1700 c 257,41,42
NamedP: "av02"
 511 1700 511 1700 499 1693 c 128,-1,43
 487 1686 487 1686 478.5 1675 c 128,-1,44
 470 1664 470 1664 465 1649.5 c 128,-1,45
 460 1635 460 1635 456 1620 c 257,46,-1
NamedP: "sh02"
 274 1627 l 257,15,16
NamedP: "sh01"
EndSplineSet
PickledDataWithLists: "(dp0
Vcom.adobe.type.autohint
p1
(c_codecs
encode
p2
(Vdata
p3
Vlatin1
p4
tp5
Rp6
g2
(V<data>\\u000a        <hintSetList>\\u000a          <hintset pointTag=\"sh01\">\\u000a            <hstem pos=\"1620\" width=\"184\"/>\\u000a            <hstem pos=\"1620\" width=\"184\"/>\\u000a            <hstem pos=\"1620\" width=\"184\"/>\\u000a            <hstem pos=\"1700\" width=\"104\"/>\\u000a            <hstem pos=\"1700\" width=\"184\"/>\\u000a            <hstem pos=\"1892\" width=\"-20\"/>\\u000a            <hstem pos=\"1892\" width=\"-20\"/>\\u000a            <hstem pos=\"1892\" width=\"-20\"/>\\u000a            <hstem pos=\"1892\" width=\"-20\"/>\\u000a          </hintset>\\u000a        </hintSetList>\\u000a      </data>
p7
g4
tp8
Rp9
Ntp10
sVcom.fontlab.ttprogram
p11
(g2
(Vdata
p12
g4
tp13
Rp14
g2
(V<data>\\u000a        <ttProgram>\\u000a          <ttc align=\"round\" code=\"alignh\" point=\"ah01\"/>\\u000a          <ttc align=\"round\" code=\"alignh\" point=\"ah02\"/>\\u000a          <ttc align=\"round\" code=\"alignh\" point=\"ah03\"/>\\u000a          <ttc align=\"round\" code=\"alignh\" point=\"ah04\"/>\\u000a          <ttc code=\"mdeltah\" delta=\"5\" point=\"mh01\" ppm1=\"10\" ppm2=\"10\"/>\\u000a          <ttc code=\"mdeltah\" delta=\"-2\" point=\"mh02\" ppm1=\"25\" ppm2=\"25\"/>\\u000a          <ttc code=\"mdeltah\" delta=\"-1\" point=\"mh02\" ppm1=\"24\" ppm2=\"24\"/>\\u000a          <ttc code=\"mdeltah\" delta=\"-2\" point=\"mh02\" ppm1=\"10\" ppm2=\"10\"/>\\u000a          <ttc code=\"mdeltah\" delta=\"-6\" point=\"mh02\" ppm1=\"22\" ppm2=\"22\"/>\\u000a          <ttc code=\"mdeltah\" delta=\"5\" point=\"mh03\" ppm1=\"24\" ppm2=\"24\"/>\\u000a          <ttc code=\"mdeltah\" delta=\"6\" point=\"mh03\" ppm1=\"25\" ppm2=\"25\"/>\\u000a          <ttc code=\"mdeltah\" delta=\"2\" point=\"mh03\" ppm1=\"10\" ppm2=\"10\"/>\\u000a          <ttc code=\"mdeltah\" delta=\"2\" point=\"mh03\" ppm1=\"22\" ppm2=\"22\"/>\\u000a          <ttc code=\"mdeltah\" delta=\"-1\" point=\"mh04\" ppm1=\"22\" ppm2=\"22\"/>\\u000a          <ttc code=\"mdeltah\" delta=\"-3\" point=\"mh05\" ppm1=\"10\" ppm2=\"10\"/>\\u000a          <ttc code=\"mdeltah\" delta=\"-4\" point=\"mh06\" ppm1=\"24\" ppm2=\"24\"/>\\u000a          <ttc code=\"mdeltah\" delta=\"-7\" point=\"mh07\" ppm1=\"22\" ppm2=\"22\"/>\\u000a          <ttc code=\"mdeltah\" delta=\"-1\" point=\"mh08\" ppm1=\"22\" ppm2=\"22\"/>\\u000a          <ttc code=\"alignt\" point=\"mh05\" zone=\"t: 1\"/>\\u000a          <ttc code=\"alignt\" point=\"ah04\" zone=\"t: 1\"/>\\u000a          <ttc code=\"alignb\" point=\"ah02\" zone=\"b: 0\"/>\\u000a          <ttc code=\"alignb\" point=\"ab01\" zone=\"b: 0\"/>\\u000a          <ttc code=\"singlev\" point1=\"ah02\" point2=\"mh01\"/>\\u000a          <ttc code=\"mdeltav\" delta=\"2\" point=\"mh02\" ppm1=\"10\" ppm2=\"10\"/>\\u000a          <ttc code=\"mdeltav\" delta=\"-5\" point=\"mh02\" ppm1=\"24\" ppm2=\"25\"/>\\u000a          <ttc code=\"mdeltav\" delta=\"-6\" point=\"mh03\" ppm1=\"24\" ppm2=\"24\"/>\\u000a          <ttc code=\"mdeltav\" delta=\"-8\" point=\"mh03\" ppm1=\"25\" ppm2=\"25\"/>\\u000a          <ttc code=\"mdeltav\" delta=\"8\" point=\"mh04\" ppm1=\"10\" ppm2=\"10\"/>\\u000a          <ttc code=\"mdeltav\" delta=\"-2\" point=\"mh04\" ppm1=\"22\" ppm2=\"22\"/>\\u000a          <ttc code=\"mdeltav\" delta=\"4\" point=\"mh06\" ppm1=\"24\" ppm2=\"24\"/>\\u000a          <ttc code=\"mdeltav\" delta=\"3\" point=\"mh07\" ppm1=\"22\" ppm2=\"22\"/>\\u000a          <ttc code=\"mdeltav\" delta=\"4\" point=\"mh08\" ppm1=\"48\" ppm2=\"48\"/>\\u000a          <ttc code=\"mdeltav\" delta=\"1\" point=\"mh08\" ppm1=\"22\" ppm2=\"22\"/>\\u000a          <ttc code=\"mdeltav\" delta=\"-2\" point=\"mh08\" ppm1=\"10\" ppm2=\"10\"/>\\u000a          <ttc align=\"round\" code=\"alignh\" point=\"ah05\"/>\\u000a          <ttc code=\"singleh\" point1=\"ah05\" point2=\"sh01\" stem=\"eq X: 208\"/>\\u000a          <ttc code=\"mdeltah\" delta=\"4\" point=\"mh09\" ppm1=\"21\" ppm2=\"21\"/>\\u000a          <ttc code=\"singleh\" point1=\"sh01\" point2=\"sh02\" stem=\"eq X: ecart du B\"/>\\u000a          <ttc align=\"round\" code=\"alignv\" point=\"ah05\"/>\\u000a          <ttc align=\"round\" code=\"alignv\" point=\"av01\"/>\\u000a          <ttc align=\"round\" code=\"alignv\" point=\"av02\"/>\\u000a          <ttc align=\"round\" code=\"alignv\" point=\"av03\"/>\\u000a          <ttc align=\"round\" code=\"alignv\" point=\"av04\"/>\\u000a          <ttc align=\"round\" code=\"alignv\" point=\"sh01\"/>\\u000a          <ttc code=\"mdeltav\" delta=\"4\" point=\"sh01\" ppm1=\"12\" ppm2=\"12\"/>\\u000a          <ttc code=\"mdeltav\" delta=\"5\" point=\"mv01\" ppm1=\"12\" ppm2=\"12\"/>\\u000a          <ttc code=\"mdeltav\" delta=\"8\" point=\"ah05\" ppm1=\"21\" ppm2=\"21\"/>\\u000a          <ttc code=\"mdeltav\" delta=\"4\" point=\"ah05\" ppm1=\"13\" ppm2=\"13\"/>\\u000a          <ttc code=\"mdeltav\" delta=\"-5\" point=\"av03\" ppm1=\"12\" ppm2=\"12\"/>\\u000a          <ttc code=\"mdeltav\" delta=\"-6\" point=\"av03\" ppm1=\"13\" ppm2=\"13\"/>\\u000a          <ttc code=\"mdeltav\" delta=\"-8\" point=\"av03\" ppm1=\"21\" ppm2=\"21\"/>\\u000a          <ttc code=\"mdeltav\" delta=\"-4\" point=\"mv02\" ppm1=\"12\" ppm2=\"12\"/>\\u000a          <ttc code=\"mdeltav\" delta=\"1\" point=\"av01\" ppm1=\"21\" ppm2=\"21\"/>\\u000a          <ttc code=\"mdeltav\" delta=\"7\" point=\"av02\" ppm1=\"21\" ppm2=\"21\"/>\\u000a          <ttc code=\"mdeltav\" delta=\"5\" point=\"av02\" ppm1=\"12\" ppm2=\"12\"/>\\u000a          <ttc code=\"mdeltav\" delta=\"4\" point=\"sh02\" ppm1=\"12\" ppm2=\"12\"/>\\u000a        </ttProgram>\\u000a      </data>
p15
g4
tp16
Rp17
Ntp18
s."
EndChar
StartChar: Ograve
Encoding: 53 210 53
GlifName: O_grave
Width: 1300
VWidth: 0
Flags: W
LayerCount: 2
Fore
SplineSet
623 -17 m 257,0,1
NamedP: "ab01"
 525 -17 525 -17 442.5 10.5 c 128,-1,2
 360 38 360 38 293.5 88.5 c 128,-1,3
 227 139 227 139 176.5 209 c 128,-1,4
 126 279 126 279 92 364.5 c 128,-1,5
 58 450 58 450 41 547.5 c 128,-1,6
 24 645 24 645 24 750 c 257,7,8
NamedP: "ah01"
 24 907 24 907 61 1047 c 128,-1,9
 98 1187 98 1187 172.5 1291 c 128,-1,10
 247 1395 247 1395 359.5 1456 c 128,-1,11
 472 1517 472 1517 623 1517 c 257,12,13
NamedP: "at01"
 770 1517 770 1517 881.5 1456 c 128,-1,14
 993 1395 993 1395 1068.5 1291 c 128,-1,15
 1144 1187 1144 1187 1182.5 1047 c 128,-1,16
 1221 907 1221 907 1221 750 c 257,17,18
NamedP: "ah02"
 1221 645 1221 645 1204.5 547.5 c 128,-1,19
 1188 450 1188 450 1155 364.5 c 128,-1,20
 1122 279 1122 279 1072.5 209 c 128,-1,21
 1023 139 1023 139 956.5 88.5 c 128,-1,22
 890 38 890 38 806.5 10.5 c 128,-1,23
 723 -17 723 -17 623 -17 c 257,0,1
NamedP: "ab01"
871 721 m 257,24,25
NamedP: "sh01"
 871 783 871 783 867.5 848 c 128,-1,26
 864 913 864 913 854.5 974.5 c 128,-1,27
 845 1036 845 1036 827.5 1090.5 c 128,-1,28
 810 1145 810 1145 781.5 1186 c 128,-1,29
 753 1227 753 1227 712.5 1250.5 c 128,-1,30
 672 1274 672 1274 617 1274 c 257,31,32
NamedP: "sv01"
 565 1274 565 1274 527 1252.5 c 128,-1,33
 489 1231 489 1231 462 1194.5 c 128,-1,34
 435 1158 435 1158 417.5 1109.5 c 128,-1,35
 400 1061 400 1061 390.5 1006.5 c 128,-1,36
 381 952 381 952 377.5 894.5 c 128,-1,37
 374 837 374 837 374 783 c 257,38,39
NamedP: "sh02"
 374 720 374 720 377.5 654.5 c 128,-1,40
 381 589 381 589 391 527 c 128,-1,41
 401 465 401 465 418.5 410.5 c 128,-1,42
 436 356 436 356 464 315 c 128,-1,43
 492 274 492 274 532.5 250 c 128,-1,44
 573 226 573 226 628 226 c 257,45,46
NamedP: "sv02"
 680 226 680 226 718 247.5 c 128,-1,47
 756 269 756 269 783 306.5 c 128,-1,48
 810 344 810 344 827 393 c 128,-1,49
 844 442 844 442 854 497 c 128,-1,50
 864 552 864 552 867.5 609.5 c 128,-1,51
 871 667 871 667 871 721 c 257,24,25
NamedP: "sh01"
800 1600 m 257,52,-1
NamedP: "av01"
 585 1600 l 257,53,-1
 300 1920 l 257,54,-1
NamedP: "iv01"
 637 1900 l 257,55,-1
NamedP: "at02"
 800 1600 l 257,52,-1
NamedP: "av01"
EndSplineSet
PickledDataWithLists: "(dp0
Vcom.adobe.type.autohint
p1
(c_codecs
encode
p2
(Vdata
p3
Vlatin1
p4
tp5
Rp6
g2
(V<data>\\u000a        <hintSetList/>\\u000a      </data>
p7
g4
tp8
Rp9
Ntp10
sVcom.fontlab.ttprogram
p11
(g2
(Vdata
p12
g4
tp13
Rp14
g2
(V<data>\\u000a        <ttProgram>\\u000a          <ttc align=\"round\" code=\"alignh\" point=\"ah01\"/>\\u000a          <ttc align=\"round\" code=\"alignh\" point=\"ah02\"/>\\u000a          <ttc code=\"singleh\" point1=\"ah02\" point2=\"sh01\" stem=\"eq X: 208\"/>\\u000a          <ttc code=\"singleh\" point1=\"ah01\" point2=\"sh02\" stem=\"eq X: 208\"/>\\u000a          <ttc code=\"alignt\" point=\"at01\" zone=\"t: 1\"/>\\u000a          <ttc code=\"alignb\" point=\"ab01\" zone=\"b: 0\"/>\\u000a          <ttc code=\"singlev\" point1=\"at01\" point2=\"sv01\" stem=\"eq Y: 171\"/>\\u000a          <ttc code=\"singlev\" point1=\"ab01\" point2=\"sv02\" stem=\"eq Y: 171\"/>\\u000a          <ttc align=\"round\" code=\"alignv\" point=\"av01\"/>\\u000a          <ttc code=\"alignt\" point=\"at02\" zone=\"t: 1\"/>\\u000a          <ttc code=\"interpolatev\" point=\"iv01\" point1=\"av01\" point2=\"at02\"/>\\u000a        </ttProgram>\\u000a      </data>
p15
g4
tp16
Rp17
Ntp18
s."
EndChar
StartChar: Otilde
Encoding: 58 213 58
GlifName: O_tilde
Width: 1300
VWidth: 0
Flags: W
LayerCount: 2
Fore
SplineSet
623 -17 m 257,0,1
NamedP: "ab01"
 525 -17 525 -17 442.5 10.5 c 128,-1,2
 360 38 360 38 293.5 88.5 c 128,-1,3
 227 139 227 139 176.5 209 c 128,-1,4
 126 279 126 279 92 364.5 c 128,-1,5
 58 450 58 450 41 547.5 c 128,-1,6
 24 645 24 645 24 750 c 257,7,8
NamedP: "ah01"
 24 907 24 907 61 1047 c 128,-1,9
 98 1187 98 1187 172.5 1291 c 128,-1,10
 247 1395 247 1395 359.5 1456 c 128,-1,11
 472 1517 472 1517 623 1517 c 257,12,13
NamedP: "at01"
 770 1517 770 1517 881.5 1456 c 128,-1,14
 993 1395 993 1395 1068.5 1291 c 128,-1,15
 1144 1187 1144 1187 1182.5 1047 c 128,-1,16
 1221 907 1221 907 1221 750 c 257,17,18
NamedP: "ah02"
 1221 645 1221 645 1204.5 547.5 c 128,-1,19
 1188 450 1188 450 1155 364.5 c 128,-1,20
 1122 279 1122 279 1072.5 209 c 128,-1,21
 1023 139 1023 139 956.5 88.5 c 128,-1,22
 890 38 890 38 806.5 10.5 c 128,-1,23
 723 -17 723 -17 623 -17 c 257,0,1
NamedP: "ab01"
871 721 m 257,24,25
NamedP: "sh01"
 871 783 871 783 867.5 848 c 128,-1,26
 864 913 864 913 854.5 974.5 c 128,-1,27
 845 1036 845 1036 827.5 1090.5 c 128,-1,28
 810 1145 810 1145 781.5 1186 c 128,-1,29
 753 1227 753 1227 712.5 1250.5 c 128,-1,30
 672 1274 672 1274 617 1274 c 257,31,32
NamedP: "sv01"
 565 1274 565 1274 527 1252.5 c 128,-1,33
 489 1231 489 1231 462 1194.5 c 128,-1,34
 435 1158 435 1158 417.5 1109.5 c 128,-1,35
 400 1061 400 1061 390.5 1006.5 c 128,-1,36
 381 952 381 952 377.5 894.5 c 128,-1,37
 374 837 374 837 374 783 c 257,38,39
NamedP: "sh02"
 374 720 374 720 377.5 654.5 c 128,-1,40
 381 589 381 589 391 527 c 128,-1,41
 401 465 401 465 418.5 410.5 c 128,-1,42
 436 356 436 356 464 315 c 128,-1,43
 492 274 492 274 532.5 250 c 128,-1,44
 573 226 573 226 628 226 c 257,45,46
NamedP: "sv02"
 680 226 680 226 718 247.5 c 128,-1,47
 756 269 756 269 783 306.5 c 128,-1,48
 810 344 810 344 827 393 c 128,-1,49
 844 442 844 442 854 497 c 128,-1,50
 864 552 864 552 867.5 609.5 c 128,-1,51
 871 667 871 667 871 721 c 257,24,25
NamedP: "sh01"
225 1627 m 257,52,53
NamedP: "sh03"
 229 1667 229 1667 245 1712.5 c 128,-1,54
 261 1758 261 1758 291 1796 c 128,-1,55
 321 1834 321 1834 367 1859 c 128,-1,56
NamedP: "mv01"
 413 1884 413 1884 476 1884 c 257,57,58
NamedP: "ah03"
 525 1884 525 1884 558.5 1871.5 c 128,-1,59
 592 1859 592 1859 619 1844 c 128,-1,60
 646 1829 646 1829 670.5 1816.5 c 128,-1,61
 695 1804 695 1804 726 1804 c 257,62,63
NamedP: "av03"
 747 1804 747 1804 761 1811 c 128,-1,64
 775 1818 775 1818 784.5 1830 c 128,-1,65
 794 1842 794 1842 799 1858 c 128,-1,66
 804 1874 804 1874 807 1892 c 257,67,-1
 974 1882 l 257,68,69
NamedP: "av04"
 971 1838 971 1838 957 1791.5 c 128,-1,70
 943 1745 943 1745 914.5 1707 c 128,-1,71
 886 1669 886 1669 841 1644.5 c 128,-1,72
NamedP: "mv02"
 796 1620 796 1620 729 1620 c 257,73,74
NamedP: "av01"
 683 1620 683 1620 651.5 1632.5 c 128,-1,75
 620 1645 620 1645 594 1660 c 128,-1,76
 568 1675 568 1675 541.5 1687.5 c 128,-1,77
 515 1700 515 1700 480 1700 c 257,78,79
NamedP: "av02"
 462 1700 462 1700 450 1693 c 128,-1,80
 438 1686 438 1686 429.5 1675 c 128,-1,81
 421 1664 421 1664 416 1649.5 c 128,-1,82
 411 1635 411 1635 407 1620 c 257,83,-1
NamedP: "sh04"
 225 1627 l 257,52,53
NamedP: "sh03"
EndSplineSet
PickledDataWithLists: "(dp0
Vcom.adobe.type.autohint
p1
(c_codecs
encode
p2
(Vdata
p3
Vlatin1
p4
tp5
Rp6
g2
(V<data>\\u000a        <hintSetList/>\\u000a      </data>
p7
g4
tp8
Rp9
Ntp10
sVcom.fontlab.ttprogram
p11
(g2
(Vdata
p12
g4
tp13
Rp14
g2
(V<data>\\u000a        <ttProgram>\\u000a          <ttc align=\"round\" code=\"alignh\" point=\"ah01\"/>\\u000a          <ttc align=\"round\" code=\"alignh\" point=\"ah02\"/>\\u000a          <ttc code=\"singleh\" point1=\"ah02\" point2=\"sh01\" stem=\"eq X: 208\"/>\\u000a          <ttc code=\"singleh\" point1=\"ah01\" point2=\"sh02\" stem=\"eq X: 208\"/>\\u000a          <ttc code=\"alignt\" point=\"at01\" zone=\"t: 1\"/>\\u000a          <ttc code=\"alignb\" point=\"ab01\" zone=\"b: 0\"/>\\u000a          <ttc code=\"singlev\" point1=\"at01\" point2=\"sv01\" stem=\"eq Y: 171\"/>\\u000a          <ttc code=\"singlev\" point1=\"ab01\" point2=\"sv02\" stem=\"eq Y: 171\"/>\\u000a          <ttc align=\"round\" code=\"alignh\" point=\"ah03\"/>\\u000a          <ttc code=\"singleh\" point1=\"ah03\" point2=\"sh03\" stem=\"eq X: 208\"/>\\u000a          <ttc code=\"mdeltah\" delta=\"4\" point=\"mh01\" ppm1=\"21\" ppm2=\"21\"/>\\u000a          <ttc code=\"singleh\" point1=\"sh03\" point2=\"sh04\" stem=\"eq X: ecart du B\"/>\\u000a          <ttc align=\"round\" code=\"alignv\" point=\"ah03\"/>\\u000a          <ttc align=\"round\" code=\"alignv\" point=\"av01\"/>\\u000a          <ttc align=\"round\" code=\"alignv\" point=\"av02\"/>\\u000a          <ttc align=\"round\" code=\"alignv\" point=\"av03\"/>\\u000a          <ttc align=\"round\" code=\"alignv\" point=\"av04\"/>\\u000a          <ttc align=\"round\" code=\"alignv\" point=\"sh03\"/>\\u000a          <ttc code=\"mdeltav\" delta=\"4\" point=\"sh03\" ppm1=\"12\" ppm2=\"12\"/>\\u000a          <ttc code=\"mdeltav\" delta=\"5\" point=\"mv01\" ppm1=\"12\" ppm2=\"12\"/>\\u000a          <ttc code=\"mdeltav\" delta=\"8\" point=\"ah03\" ppm1=\"21\" ppm2=\"21\"/>\\u000a          <ttc code=\"mdeltav\" delta=\"4\" point=\"ah03\" ppm1=\"13\" ppm2=\"13\"/>\\u000a          <ttc code=\"mdeltav\" delta=\"-5\" point=\"av03\" ppm1=\"12\" ppm2=\"12\"/>\\u000a          <ttc code=\"mdeltav\" delta=\"-6\" point=\"av03\" ppm1=\"13\" ppm2=\"13\"/>\\u000a          <ttc code=\"mdeltav\" delta=\"-8\" point=\"av03\" ppm1=\"21\" ppm2=\"21\"/>\\u000a          <ttc code=\"mdeltav\" delta=\"-4\" point=\"mv02\" ppm1=\"12\" ppm2=\"12\"/>\\u000a          <ttc code=\"mdeltav\" delta=\"1\" point=\"av01\" ppm1=\"21\" ppm2=\"21\"/>\\u000a          <ttc code=\"mdeltav\" delta=\"7\" point=\"av02\" ppm1=\"21\" ppm2=\"21\"/>\\u000a          <ttc code=\"mdeltav\" delta=\"5\" point=\"av02\" ppm1=\"12\" ppm2=\"12\"/>\\u000a          <ttc code=\"mdeltav\" delta=\"4\" point=\"sh04\" ppm1=\"12\" ppm2=\"12\"/>\\u000a        </ttProgram>\\u000a      </data>
p15
g4
tp16
Rp17
Ntp18
s."
EndChar
StartChar: Yacute
Encoding: 85 221 85
GlifName: Y_acute
Width: 1300
VWidth: 0
Flags: W
LayerCount: 2
Fore
SplineSet
540 1143 m 257,0,-1
 647 773 l 257,1,-1
NamedP: "ih01"
 705 1143 l 257,2,-1
 887 1500 l 257,3,-1
NamedP: "ah02"
 1222 1500 l 257,4,-1
NamedP: "sh01"
 789 650 l 257,5,-1
NamedP: "ih03"
 789 0 l 257,6,-1
NamedP: "sh02"
 438 0 l 257,7,-1
NamedP: "ah01"
 438 650 l 257,8,-1
NamedP: "ih02"
 9 1500 l 257,9,-1
NamedP: "ah03"
 348 1520 l 257,10,-1
NamedP: "sh03"
 540 1143 l 257,0,-1
563 1900 m 257,11,-1
NamedP: "ah04"
 900 1920 l 257,12,-1
NamedP: "sh04"
 615 1600 l 257,13,-1
 400 1600 l 257,14,-1
NamedP: "mh01"
 563 1900 l 257,11,-1
NamedP: "ah04"
EndSplineSet
PickledDataWithLists: "(dp0
Vcom.adobe.type.autohint
p1
(c_codecs
encode
p2
(Vdata
p3
Vlatin1
p4
tp5
Rp6
g2
(V<data>\\u000a        <hintSetList>\\u000a          <hintset pointTag=\"ah04\">\\u000a            <hstem pos=\"1600\" width=\"310\"/>\\u000a          </hintset>\\u000a          <hintset pointTag=\"sh04\">\\u000a            <hstem pos=\"1920\" width=\"-20\"/>\\u000a          </hintset>\\u000a          <hintset pointTag=\"sh03\">\\u000a            <hstem pos=\"1600\" width=\"310\"/>\\u000a          </hintset>\\u000a        </hintSetList>\\u000a      </data>
p7
g4
tp8
Rp9
Ntp10
sVcom.fontlab.ttprogram
p11
(g2
(Vdata
p12
g4
tp13
Rp14
g2
(V<data>\\u000a        <ttProgram>\\u000a          <ttc align=\"round\" code=\"alignh\" point=\"ah01\"/>\\u000a          <ttc align=\"round\" code=\"alignh\" point=\"ah02\"/>\\u000a          <ttc align=\"round\" code=\"alignh\" point=\"ah03\"/>\\u000a          <ttc code=\"interpolateh\" point=\"ih01\" point1=\"ih02\" point2=\"ih03\"/>\\u000a          <ttc code=\"mdeltah\" delta=\"-1\" point=\"ih01\" ppm1=\"34\" ppm2=\"34\"/>\\u000a          <ttc code=\"singleh\" point1=\"ah02\" point2=\"sh01\" stem=\"eq X: dia Lite\"/>\\u000a          <ttc code=\"singleh\" point1=\"ah01\" point2=\"sh02\" stem=\"eq X: dia Lite\"/>\\u000a          <ttc code=\"singleh\" point1=\"ah03\" point2=\"sh03\" stem=\"eq X: dia Fat\"/>\\u000a          <ttc code=\"alignt\" point=\"sh03\" zone=\"t: 1\"/>\\u000a          <ttc code=\"alignt\" point=\"ah02\" zone=\"t: 1\"/>\\u000a          <ttc code=\"alignt\" point=\"sh01\" zone=\"t: 1\"/>\\u000a          <ttc code=\"alignt\" point=\"ah03\" zone=\"t: 1\"/>\\u000a          <ttc code=\"alignb\" point=\"ah01\" zone=\"b: 0\"/>\\u000a          <ttc code=\"mdeltav\" delta=\"8\" point=\"ih01\" ppm1=\"34\" ppm2=\"34\"/>\\u000a          <ttc code=\"mdeltav\" delta=\"8\" point=\"ih01\" ppm1=\"48\" ppm2=\"48\"/>\\u000a          <ttc code=\"fdeltav\" delta=\"3\" point=\"ih01\" ppm1=\"19\" ppm2=\"19\"/>\\u000a          <ttc code=\"fdeltav\" delta=\"6\" point=\"ih01\" ppm1=\"17\" ppm2=\"17\"/>\\u000a          <ttc align=\"round\" code=\"alignh\" point=\"ah04\"/>\\u000a          <ttc code=\"singleh\" point1=\"ah04\" point2=\"sh04\" stem=\"eq X: dia Fat\"/>\\u000a          <ttc code=\"mdeltah\" delta=\"-7\" point=\"sh04\" ppm1=\"31\" ppm2=\"31\"/>\\u000a          <ttc code=\"mdeltah\" delta=\"-2\" point=\"mh01\" ppm1=\"14\" ppm2=\"14\"/>\\u000a          <ttc code=\"mdeltah\" delta=\"-2\" point=\"mh01\" ppm1=\"24\" ppm2=\"24\"/>\\u000a          <ttc align=\"round\" code=\"alignv\" point=\"mh01\"/>\\u000a          <ttc code=\"alignt\" point=\"sh04\" zone=\"t: 1\"/>\\u000a          <ttc code=\"alignt\" point=\"ah04\" zone=\"t: 1\"/>\\u000a        </ttProgram>\\u000a      </data>
p15
g4
tp16
Rp17
Ntp18
s."
EndChar
StartChar: germandbls
Encoding: 266 223 266
GlifName: germandbls
Width: 1300
VWidth: 0
Flags: W
LayerCount: 2
Fore
SplineSet
470 -17 m 257,0,-1
NamedP: "sh01"
 127 0 l 257,1,-1
NamedP: "ah01"
 127 1073 l 257,2,3
 127 1176 127 1176 162.5 1254 c 128,-1,4
 198 1332 198 1332 262.5 1384.5 c 128,-1,5
 327 1437 327 1437 416 1463 c 128,-1,6
 505 1489 505 1489 613 1489 c 257,7,8
NamedP: "av01"
 844 1489 844 1489 954 1373 c 257,9,10
 979 1346 979 1346 1000 1319.5 c 128,-1,11
 1021 1293 1021 1293 1036 1263.5 c 128,-1,12
 1051 1234 1051 1234 1059.5 1200.5 c 128,-1,13
 1068 1167 1068 1167 1068 1127 c 257,14,15
NamedP: "sh02"
 1068 1074 1068 1074 1053 1027 c 128,-1,16
 1038 980 1038 980 1010.5 940 c 128,-1,17
 983 900 983 900 944.5 867.5 c 128,-1,18
 906 835 906 835 859 811 c 257,19,20
NamedP: "sh03"
 922 790 922 790 977.5 759 c 128,-1,21
 1033 728 1033 728 1074 686 c 128,-1,22
 1115 644 1115 644 1138.5 589.5 c 128,-1,23
 1162 535 1162 535 1162 466 c 257,24,25
NamedP: "sh04"
 1162 380 1162 380 1138 312 c 128,-1,26
 1114 244 1114 244 1073 192 c 128,-1,27
 1032 140 1032 140 977.5 103.5 c 128,-1,28
 923 67 923 67 860.5 44 c 128,-1,29
 798 21 798 21 731.5 10.5 c 128,-1,30
 665 0 665 0 601 0 c 257,31,-1
NamedP: "ab01"
 520 224 l 257,32,33
NamedP: "sv01"
 666 227 666 227 746 283 c 128,-1,34
 826 339 826 339 826 457 c 257,35,36
NamedP: "ah03"
 826 516 826 516 809 558.5 c 128,-1,37
 792 601 792 601 761 628 c 128,-1,38
 730 655 730 655 688 668 c 128,-1,39
 646 681 646 681 595 681 c 257,40,-1
NamedP: "ah02"
 500 902 l 257,41,42
NamedP: "dv01"
 554 907 554 907 598.5 921.5 c 128,-1,43
 643 936 643 936 674.5 961 c 128,-1,44
 706 986 706 986 723 1022 c 128,-1,45
 740 1058 740 1058 740 1107 c 257,46,47
NamedP: "ah04"
 740 1142 740 1142 729 1173 c 128,-1,48
 718 1204 718 1204 700 1227 c 128,-1,49
 682 1250 682 1250 658.5 1263 c 128,-1,50
 635 1276 635 1276 610 1276 c 257,51,52
NamedP: "sv02"
 539 1276 539 1276 504.5 1239.5 c 128,-1,53
 470 1203 470 1203 470 1119 c 257,54,-1
NamedP: "sh05"
 470 -17 l 257,0,-1
NamedP: "sh01"
EndSplineSet
PickledDataWithLists: "(dp0
Vcom.adobe.type.autohint
p1
(c_codecs
encode
p2
(Vdata
p3
Vlatin1
p4
tp5
Rp6
g2
(V<data>\\u000a        <hintSetList/>\\u000a      </data>
p7
g4
tp8
Rp9
Ntp10
sVcom.fontlab.ttprogram
p11
(g2
(Vdata
p12
g4
tp13
Rp14
g2
(V<data>\\u000a        <ttProgram>\\u000a          <ttc align=\"round\" code=\"alignh\" point=\"ah01\"/>\\u000a          <ttc align=\"round\" code=\"alignh\" point=\"ah02\"/>\\u000a          <ttc align=\"round\" code=\"alignh\" point=\"ah03\"/>\\u000a          <ttc align=\"round\" code=\"alignh\" point=\"ah04\"/>\\u000a          <ttc code=\"singleh\" point1=\"ah01\" point2=\"sh01\" stem=\"eq X: 208\"/>\\u000a          <ttc code=\"singleh\" point1=\"ah04\" point2=\"sh02\" stem=\"eq X: 208\"/>\\u000a          <ttc code=\"singleh\" point1=\"ah02\" point2=\"sh03\" stem=\"eq X: 208\"/>\\u000a          <ttc code=\"singleh\" point1=\"ah03\" point2=\"sh04\" stem=\"eq X: 208\"/>\\u000a          <ttc code=\"singleh\" point1=\"sh01\" point2=\"sh05\"/>\\u000a          <ttc align=\"round\" code=\"alignv\" point=\"av01\"/>\\u000a          <ttc code=\"alignb\" point=\"sh01\" zone=\"b: 0\"/>\\u000a          <ttc code=\"alignb\" point=\"ab01\" zone=\"b: 0\"/>\\u000a          <ttc code=\"doublev\" point1=\"dv01\" point2=\"ah02\" stem=\"eq Y: 171\"/>\\u000a          <ttc code=\"interpolatev\" point=\"sh03\" point1=\"av01\" point2=\"ab01\"/>\\u000a          <ttc code=\"singlev\" point1=\"ab01\" point2=\"sv01\" stem=\"eq Y: 171\"/>\\u000a          <ttc code=\"singlev\" point1=\"av01\" point2=\"sv02\" stem=\"eq Y: 171\"/>\\u000a        </ttProgram>\\u000a      </data>
p15
g4
tp16
Rp17
Ntp18
s."
EndChar
StartChar: divide
Encoding: 211 247 211
GlifName: divide
Width: 1300
VWidth: 0
Flags: W
LayerCount: 2
Fore
SplineSet
509 287 m 257,0,1
NamedP: "ah03"
 509 316 509 316 520 341.5 c 128,-1,2
 531 367 531 367 550.5 386.5 c 128,-1,3
 570 406 570 406 595 417 c 128,-1,4
 620 428 620 428 649 428 c 257,5,6
NamedP: "mh01"
 678 428 678 428 703 417 c 128,-1,7
 728 406 728 406 747.5 386.5 c 128,-1,8
 767 367 767 367 778 341.5 c 128,-1,9
 789 316 789 316 789 287 c 257,10,11
NamedP: "ah04"
 789 259 789 259 778 233 c 128,-1,12
 767 207 767 207 748.5 187.5 c 128,-1,13
 730 168 730 168 704.5 156 c 128,-1,14
 679 144 679 144 650 144 c 257,15,16
NamedP: "av04"
 622 144 622 144 596 156 c 128,-1,17
 570 168 570 168 550.5 187.5 c 128,-1,18
 531 207 531 207 520 233 c 128,-1,19
 509 259 509 259 509 287 c 257,0,1
NamedP: "ah03"
509 940 m 257,20,21
NamedP: "ah01"
 509 969 509 969 520 994.5 c 128,-1,22
 531 1020 531 1020 550.5 1039.5 c 128,-1,23
 570 1059 570 1059 595 1070 c 128,-1,24
 620 1081 620 1081 649 1081 c 257,25,26
NamedP: "av03"
 678 1081 678 1081 703 1070 c 128,-1,27
 728 1059 728 1059 747.5 1039.5 c 128,-1,28
 767 1020 767 1020 778 994.5 c 128,-1,29
 789 969 789 969 789 940 c 257,30,31
NamedP: "ah02"
 789 912 789 912 778 886 c 128,-1,32
 767 860 767 860 748.5 840.5 c 128,-1,33
 730 821 730 821 704.5 809 c 128,-1,34
 679 797 679 797 650 797 c 257,35,36
NamedP: "av02"
 622 797 622 797 596 809 c 128,-1,37
 570 821 570 821 550.5 840.5 c 128,-1,38
 531 860 531 860 520 886 c 128,-1,39
 509 912 509 912 509 940 c 257,20,21
NamedP: "ah01"
200 724 m 257,40,-1
NamedP: "av01"
 1100 724 l 257,41,-1
NamedP: "sv01"
 1100 500 l 257,42,-1
 200 500 l 257,43,-1
NamedP: "sv02"
 200 724 l 257,40,-1
NamedP: "av01"
EndSplineSet
PickledDataWithLists: "(dp0
Vcom.adobe.type.autohint
p1
(c_codecs
encode
p2
(Vdata
p3
Vlatin1
p4
tp5
Rp6
g2
(V<data>\\u000a        <hintSetList>\\u000a          <hintset pointTag=\"ah03\">\\u000a            <hstem pos=\"144\" width=\"284\"/>\\u000a            <hstem pos=\"500\" width=\"224\"/>\\u000a            <hstem pos=\"797\" width=\"284\"/>\\u000a            <vstem pos=\"509\" width=\"280\"/>\\u000a          </hintset>\\u000a        </hintSetList>\\u000a      </data>
p7
g4
tp8
Rp9
Ntp10
sVcom.fontlab.ttprogram
p11
(g2
(Vdata
p12
g4
tp13
Rp14
g2
(V<data>\\u000a        <ttProgram>\\u000a          <ttc align=\"round\" code=\"alignh\" point=\"ah01\"/>\\u000a          <ttc align=\"round\" code=\"alignh\" point=\"ah02\"/>\\u000a          <ttc align=\"round\" code=\"alignh\" point=\"ah03\"/>\\u000a          <ttc align=\"round\" code=\"alignh\" point=\"ah04\"/>\\u000a          <ttc code=\"mdeltah\" delta=\"4\" point=\"mh01\" ppm1=\"12\" ppm2=\"12\"/>\\u000a          <ttc code=\"mdeltah\" delta=\"1\" point=\"mh01\" ppm1=\"14\" ppm2=\"14\"/>\\u000a          <ttc align=\"round\" code=\"alignv\" point=\"av01\"/>\\u000a          <ttc align=\"round\" code=\"alignv\" point=\"av02\"/>\\u000a          <ttc align=\"round\" code=\"alignv\" point=\"av03\"/>\\u000a          <ttc align=\"round\" code=\"alignv\" point=\"mh01\"/>\\u000a          <ttc align=\"round\" code=\"alignv\" point=\"av04\"/>\\u000a          <ttc code=\"mdeltav\" delta=\"-4\" point=\"mh01\" ppm1=\"20\" ppm2=\"21\"/>\\u000a          <ttc code=\"mdeltav\" delta=\"-3\" point=\"mh01\" ppm1=\"14\" ppm2=\"14\"/>\\u000a          <ttc code=\"mdeltav\" delta=\"-2\" point=\"mh01\" ppm1=\"22\" ppm2=\"22\"/>\\u000a          <ttc code=\"mdeltav\" delta=\"-3\" point=\"mh01\" ppm1=\"12\" ppm2=\"12\"/>\\u000a          <ttc code=\"mdeltav\" delta=\"-4\" point=\"mh01\" ppm1=\"15\" ppm2=\"15\"/>\\u000a          <ttc code=\"mdeltav\" delta=\"-5\" point=\"mh01\" ppm1=\"13\" ppm2=\"13\"/>\\u000a          <ttc code=\"mdeltav\" delta=\"-6\" point=\"mh01\" ppm1=\"17\" ppm2=\"17\"/>\\u000a          <ttc code=\"mdeltav\" delta=\"5\" point=\"av02\" ppm1=\"16\" ppm2=\"16\"/>\\u000a          <ttc code=\"mdeltav\" delta=\"5\" point=\"av02\" ppm1=\"13\" ppm2=\"13\"/>\\u000a          <ttc code=\"mdeltav\" delta=\"4\" point=\"av02\" ppm1=\"21\" ppm2=\"21\"/>\\u000a          <ttc code=\"mdeltav\" delta=\"3\" point=\"av02\" ppm1=\"18\" ppm2=\"18\"/>\\u000a          <ttc code=\"singlev\" point1=\"av01\" point2=\"sv01\"/>\\u000a          <ttc code=\"singlev\" point1=\"av01\" point2=\"sv02\" stem=\"eq Y: 171\"/>\\u000a        </ttProgram>\\u000a      </data>
p15
g4
tp16
Rp17
Ntp18
s."
EndChar
StartChar: ugrave
Encoding: 543 249 543
GlifName: ugrave
Width: 1300
VWidth: 0
Flags: W
LayerCount: 2
Fore
SplineSet
815 1100 m 257,0,-1
NamedP: "sh02"
 1132 1120 l 257,1,-1
NamedP: "sh03"
 1132 0 l 257,2,-1
NamedP: "ah01"
 815 0 l 257,3,-1
NamedP: "sh01"
 815 100 l 257,4,-1
NamedP: "iv01"
 734 0 l 257,5,6
NamedP: "ah02"
 678 -17 678 -17 613 -17 c 257,7,8
NamedP: "ih01"
 479 -17 479 -17 389 21 c 128,-1,9
 299 59 299 59 244.5 122.5 c 128,-1,10
 190 186 190 186 167 268 c 128,-1,11
 144 350 144 350 144 438 c 257,12,-1
NamedP: "sh04"
 144 1100 l 257,13,-1
NamedP: "ih02"
 460 1120 l 257,14,-1
NamedP: "at01"
 460 438 l 257,15,16
NamedP: "sh05"
 460 386 460 386 468.5 344.5 c 128,-1,17
 477 303 477 303 498 273.5 c 128,-1,18
 519 244 519 244 553.5 228.5 c 128,-1,19
 588 213 588 213 639 213 c 257,20,21
NamedP: "ih03"
 672 213 672 213 700 223 c 128,-1,22
 728 233 728 233 750.5 249 c 128,-1,23
 773 265 773 265 789 283 c 128,-1,24
 805 301 805 301 815 318 c 257,25,-1
 815 1100 l 257,0,-1
NamedP: "sh02"
816 1200 m 257,26,-1
NamedP: "av01"
 601 1200 l 257,27,-1
 316 1520 l 257,28,-1
NamedP: "iv02"
 653 1500 l 257,29,-1
NamedP: "at02"
 816 1200 l 257,26,-1
NamedP: "av01"
EndSplineSet
PickledDataWithLists: "(dp0
Vcom.adobe.type.autohint
p1
(c_codecs
encode
p2
(Vdata
p3
Vlatin1
p4
tp5
Rp6
g2
(V<data>\\u000a        <hintSetList>\\u000a          <hintset pointTag=\"ah02\">\\u000a            <hstem pos=\"21\" width=\"-21\"/>\\u000a            <hstem pos=\"1120\" width=\"-20\"/>\\u000a            <hstem pos=\"1200\" width=\"310\"/>\\u000a            <hstem pos=\"1520\" width=\"-20\"/>\\u000a            <hstem pos=\"1520\" width=\"-20\"/>\\u000a            <vstem pos=\"144\" width=\"316\"/>\\u000a            <vstem pos=\"815\" width=\"317\"/>\\u000a          </hintset>\\u000a        </hintSetList>\\u000a      </data>
p7
g4
tp8
Rp9
Ntp10
sVcom.fontlab.ttprogram
p11
(g2
(Vdata
p12
g4
tp13
Rp14
g2
(V<data>\\u000a        <ttProgram>\\u000a          <ttc align=\"round\" code=\"alignh\" point=\"ah01\"/>\\u000a          <ttc align=\"round\" code=\"alignh\" point=\"lsb\"/>\\u000a          <ttc align=\"round\" code=\"alignh\" point=\"ah02\"/>\\u000a          <ttc code=\"singleh\" point1=\"ah01\" point2=\"sh01\" stem=\"eq X: 190\"/>\\u000a          <ttc code=\"singleh\" point1=\"sh01\" point2=\"sh02\"/>\\u000a          <ttc code=\"singleh\" point1=\"sh02\" point2=\"sh03\" stem=\"eq X: 190\"/>\\u000a          <ttc code=\"interpolateh\" point=\"ih01\" point1=\"ih02\" point2=\"sh03\"/>\\u000a          <ttc code=\"singleh\" point1=\"lsb\" point2=\"sh04\" round=\"true\"/>\\u000a          <ttc code=\"singleh\" point1=\"sh04\" point2=\"sh05\" stem=\"eq X: 190\"/>\\u000a          <ttc code=\"interpolateh\" point=\"ih03\" point1=\"ih02\" point2=\"sh03\"/>\\u000a          <ttc code=\"alignt\" point=\"at01\" zone=\"t: x\"/>\\u000a          <ttc code=\"alignt\" point=\"sh03\" zone=\"t: x\"/>\\u000a          <ttc code=\"alignb\" point=\"sh01\" zone=\"b: 0\"/>\\u000a          <ttc code=\"alignb\" point=\"ih01\" zone=\"b: 0\"/>\\u000a          <ttc code=\"interpolatev\" point=\"iv01\" point1=\"sh03\" point2=\"ih01\"/>\\u000a          <ttc code=\"singlev\" point1=\"ih01\" point2=\"ih03\" stem=\"eq Y: 162\"/>\\u000a          <ttc align=\"round\" code=\"alignv\" point=\"av01\"/>\\u000a          <ttc code=\"alignt\" point=\"at02\" zone=\"t: 1\"/>\\u000a          <ttc code=\"interpolatev\" point=\"iv02\" point1=\"av01\" point2=\"at02\"/>\\u000a        </ttProgram>\\u000a      </data>
p15
g4
tp16
Rp17
Ntp18
s."
EndChar
StartChar: Scaron
Encoding: 67 352 67
GlifName: S_caron
Width: 1300
VWidth: 0
Flags: W
LayerCount: 2
Fore
SplineSet
975 1178 m 257,0,1
NamedP: "mh01"
 929 1205 929 1205 891.5 1223.5 c 128,-1,2
 854 1242 854 1242 822 1253 c 128,-1,3
 790 1264 790 1264 761.5 1269 c 128,-1,4
 733 1274 733 1274 705 1274 c 257,5,6
NamedP: "sv01"
 668 1274 668 1274 631.5 1267 c 128,-1,7
 595 1260 595 1260 566 1243 c 128,-1,8
 537 1226 537 1226 519 1197 c 128,-1,9
 501 1168 501 1168 501 1125 c 257,10,11
NamedP: "sh02"
 501 1084 501 1084 521.5 1054.5 c 128,-1,12
NamedP: "sv02"
 542 1025 542 1025 575.5 1002 c 128,-1,13
 609 979 609 979 651.5 960 c 128,-1,14
NamedP: "mv01"
 694 941 694 941 738 921 c 257,15,16
NamedP: "sh03"
 813 886 813 886 890 845.5 c 128,-1,17
NamedP: "sv04"
 967 805 967 805 1029 750 c 128,-1,18
 1091 695 1091 695 1130.5 621.5 c 128,-1,19
 1170 548 1170 548 1170 448 c 257,20,21
NamedP: "sh04"
 1170 332 1170 332 1122 245 c 128,-1,22
 1074 158 1074 158 994.5 100 c 128,-1,23
 915 42 915 42 811.5 12.5 c 128,-1,24
 708 -17 708 -17 598 -17 c 257,25,26
NamedP: "ab01"
 472 -17 472 -17 365.5 18.5 c 128,-1,27
NamedP: "mv03"
 259 54 259 54 152 121 c 257,28,-1
NamedP: "mh03"
 290 348 l 257,29,30
 317 330 317 330 354 310 c 128,-1,31
 391 290 391 290 432.5 273.5 c 128,-1,32
 474 257 474 257 516 246.5 c 128,-1,33
 558 236 558 236 596 236 c 257,34,35
NamedP: "sv03"
 640 236 640 236 683 245.5 c 128,-1,36
 726 255 726 255 759.5 277.5 c 128,-1,37
 793 300 793 300 813.5 337 c 128,-1,38
 834 374 834 374 834 430 c 257,39,40
NamedP: "ah01"
 834 484 834 484 809.5 523 c 128,-1,41
NamedP: "av01"
 785 562 785 562 745.5 591.5 c 128,-1,42
 706 621 706 621 656 645 c 128,-1,43
NamedP: "iv01"
 606 669 606 669 555 693 c 257,44,45
NamedP: "ah02"
 483 727 483 727 415 765 c 128,-1,46
NamedP: "av02"
 347 803 347 803 293.5 851 c 128,-1,47
 240 899 240 899 207.5 959 c 128,-1,48
 175 1019 175 1019 175 1097 c 257,49,50
NamedP: "sh01"
 175 1198 175 1198 218 1276.5 c 128,-1,51
 261 1355 261 1355 332 1408.5 c 128,-1,52
 403 1462 403 1462 494 1489.5 c 128,-1,53
 585 1517 585 1517 681 1517 c 257,54,55
NamedP: "at01"
 799 1517 799 1517 906 1480.5 c 128,-1,56
 1013 1444 1013 1444 1125 1369 c 257,57,-1
NamedP: "mh04"
 975 1178 l 257,0,1
NamedP: "mh01"
779 1596 m 257,58,-1
 483 1625 l 257,59,-1
 310 1900 l 257,60,-1
NamedP: "at02"
 540 1900 l 257,61,-1
 615 1807 l 257,62,-1
 651 1680 l 257,63,-1
 685 1807 l 257,64,-1
 761 1900 l 257,65,-1
NamedP: "at03"
 966 1900 l 257,66,-1
 779 1596 l 257,58,-1
EndSplineSet
PickledDataWithLists: "(dp0
Vcom.adobe.type.autohint
p1
(c_codecs
encode
p2
(Vdata
p3
Vlatin1
p4
tp5
Rp6
g2
(V<data>\\u000a        <hintSetList/>\\u000a      </data>
p7
g4
tp8
Rp9
Ntp10
sVcom.fontlab.ttprogram
p11
(g2
(Vdata
p12
g4
tp13
Rp14
g2
(V<data>\\u000a        <ttProgram>\\u000a          <ttc align=\"round\" code=\"alignh\" point=\"lsb\"/>\\u000a          <ttc align=\"round\" code=\"alignh\" point=\"ah01\"/>\\u000a          <ttc align=\"round\" code=\"alignh\" point=\"ah02\"/>\\u000a          <ttc code=\"mdeltah\" delta=\"3\" point=\"mh01\" ppm1=\"25\" ppm2=\"25\"/>\\u000a          <ttc code=\"singleh\" point1=\"lsb\" point2=\"sh01\" round=\"true\"/>\\u000a          <ttc code=\"singleh\" point1=\"sh01\" point2=\"sh02\" stem=\"eq X: 208\"/>\\u000a          <ttc code=\"singleh\" point1=\"ah02\" point2=\"sh03\" stem=\"eq X: 208\"/>\\u000a          <ttc code=\"singleh\" point1=\"ah01\" point2=\"sh04\" stem=\"eq X: 208\"/>\\u000a          <ttc code=\"mdeltah\" delta=\"-7\" point=\"mh02\" ppm1=\"25\" ppm2=\"25\"/>\\u000a          <ttc code=\"mdeltah\" delta=\"4\" point=\"mh03\" ppm1=\"25\" ppm2=\"25\"/>\\u000a          <ttc code=\"mdeltah\" delta=\"4\" point=\"mh03\" ppm1=\"20\" ppm2=\"20\"/>\\u000a          <ttc code=\"mdeltah\" delta=\"3\" point=\"mh03\" ppm1=\"19\" ppm2=\"19\"/>\\u000a          <ttc code=\"mdeltah\" delta=\"2\" point=\"mh03\" ppm1=\"18\" ppm2=\"18\"/>\\u000a          <ttc code=\"mdeltah\" delta=\"-1\" point=\"mh04\" ppm1=\"20\" ppm2=\"20\"/>\\u000a          <ttc code=\"mdeltah\" delta=\"-1\" point=\"mh04\" ppm1=\"18\" ppm2=\"18\"/>\\u000a          <ttc code=\"mdeltah\" delta=\"-4\" point=\"mh04\" ppm1=\"19\" ppm2=\"19\"/>\\u000a          <ttc code=\"mdeltah\" delta=\"-6\" point=\"mh04\" ppm1=\"25\" ppm2=\"25\"/>\\u000a          <ttc code=\"singleh\" point1=\"sh04\" point2=\"rsb\" round=\"true\"/>\\u000a          <ttc align=\"round\" code=\"alignv\" point=\"av01\"/>\\u000a          <ttc align=\"round\" code=\"alignv\" point=\"av02\"/>\\u000a          <ttc code=\"alignt\" point=\"at01\" zone=\"t: 1\"/>\\u000a          <ttc code=\"alignb\" point=\"ab01\" zone=\"b: 0\"/>\\u000a          <ttc code=\"mdeltav\" delta=\"-3\" point=\"mh01\" ppm1=\"20\" ppm2=\"20\"/>\\u000a          <ttc code=\"singlev\" point1=\"at01\" point2=\"sv01\" stem=\"eq Y: 162\"/>\\u000a          <ttc code=\"singlev\" point1=\"av02\" point2=\"sv02\" stem=\"eq Y: 162\"/>\\u000a          <ttc code=\"mdeltav\" delta=\"6\" point=\"mv01\" ppm1=\"27\" ppm2=\"27\"/>\\u000a          <ttc code=\"singlev\" point1=\"ab01\" point2=\"sv03\" stem=\"eq Y: 162\"/>\\u000a          <ttc code=\"interpolatev\" point=\"sh03\" point1=\"sv01\" point2=\"sv03\"/>\\u000a          <ttc code=\"mdeltav\" delta=\"8\" point=\"sh03\" ppm1=\"27\" ppm2=\"27\"/>\\u000a          <ttc code=\"mdeltav\" delta=\"2\" point=\"mv02\" ppm1=\"27\" ppm2=\"27\"/>\\u000a          <ttc code=\"singlev\" point1=\"av01\" point2=\"sv04\" stem=\"eq Y: 162\"/>\\u000a          <ttc code=\"mdeltav\" delta=\"-3\" point=\"mv03\" ppm1=\"28\" ppm2=\"28\"/>\\u000a          <ttc code=\"interpolatev\" point=\"iv01\" point1=\"sv03\" point2=\"sv01\"/>\\u000a          <ttc code=\"alignt\" point=\"at02\" zone=\"t: 1\"/>\\u000a          <ttc code=\"alignt\" point=\"at03\" zone=\"t: 1\"/>\\u000a        </ttProgram>\\u000a      </data>
p15
g4
tp16
Rp17
Ntp18
s."
EndChar
StartChar: Ydieresis
Encoding: 86 376 86
GlifName: Y_dieresis
Width: 1300
VWidth: 0
Flags: W
LayerCount: 2
Fore
SplineSet
574 1143 m 257,0,-1
 681 773 l 257,1,-1
NamedP: "ih01"
 739 1143 l 257,2,-1
 921 1500 l 257,3,-1
NamedP: "ah02"
 1256 1500 l 257,4,-1
NamedP: "sh01"
 823 650 l 257,5,-1
NamedP: "ih03"
 823 0 l 257,6,-1
NamedP: "sh02"
 472 0 l 257,7,-1
NamedP: "ah01"
 472 650 l 257,8,-1
NamedP: "ih02"
 43 1500 l 257,9,-1
NamedP: "ah03"
 382 1520 l 257,10,-1
NamedP: "sh03"
 574 1143 l 257,0,-1
341 1866 m 257,11,-1
NamedP: "ah04"
 617 1866 l 257,12,-1
 617 1600 l 257,13,-1
NamedP: "sv01"
 341 1600 l 257,14,-1
 341 1866 l 257,11,-1
NamedP: "ah04"
741 1866 m 257,15,-1
NamedP: "ah05"
 1017 1866 l 257,16,-1
 1017 1600 l 257,17,-1
NamedP: "sv02"
 741 1600 l 257,18,-1
 741 1866 l 257,15,-1
NamedP: "ah05"
EndSplineSet
PickledDataWithLists: "(dp0
Vcom.adobe.type.autohint
p1
(c_codecs
encode
p2
(Vdata
p3
Vlatin1
p4
tp5
Rp6
g2
(V<data>\\u000a        <hintSetList>\\u000a          <hintset pointTag=\"ah04\">\\u000a            <hstem pos=\"1600\" width=\"266\"/>\\u000a            <vstem pos=\"341\" width=\"276\"/>\\u000a            <vstem pos=\"741\" width=\"276\"/>\\u000a          </hintset>\\u000a        </hintSetList>\\u000a      </data>
p7
g4
tp8
Rp9
Ntp10
sVcom.fontlab.ttprogram
p11
(g2
(Vdata
p12
g4
tp13
Rp14
g2
(V<data>\\u000a        <ttProgram>\\u000a          <ttc align=\"round\" code=\"alignh\" point=\"ah01\"/>\\u000a          <ttc align=\"round\" code=\"alignh\" point=\"ah02\"/>\\u000a          <ttc align=\"round\" code=\"alignh\" point=\"ah03\"/>\\u000a          <ttc code=\"interpolateh\" point=\"ih01\" point1=\"ih02\" point2=\"ih03\"/>\\u000a          <ttc code=\"mdeltah\" delta=\"-1\" point=\"ih01\" ppm1=\"34\" ppm2=\"34\"/>\\u000a          <ttc code=\"singleh\" point1=\"ah02\" point2=\"sh01\" stem=\"eq X: dia Lite\"/>\\u000a          <ttc code=\"singleh\" point1=\"ah01\" point2=\"sh02\" stem=\"eq X: dia Lite\"/>\\u000a          <ttc code=\"singleh\" point1=\"ah03\" point2=\"sh03\" stem=\"eq X: dia Fat\"/>\\u000a          <ttc code=\"alignt\" point=\"sh03\" zone=\"t: 1\"/>\\u000a          <ttc code=\"alignt\" point=\"ah02\" zone=\"t: 1\"/>\\u000a          <ttc code=\"alignt\" point=\"sh01\" zone=\"t: 1\"/>\\u000a          <ttc code=\"alignt\" point=\"ah03\" zone=\"t: 1\"/>\\u000a          <ttc code=\"alignb\" point=\"ah01\" zone=\"b: 0\"/>\\u000a          <ttc code=\"mdeltav\" delta=\"8\" point=\"ih01\" ppm1=\"34\" ppm2=\"34\"/>\\u000a          <ttc code=\"mdeltav\" delta=\"8\" point=\"ih01\" ppm1=\"48\" ppm2=\"48\"/>\\u000a          <ttc code=\"fdeltav\" delta=\"3\" point=\"ih01\" ppm1=\"19\" ppm2=\"19\"/>\\u000a          <ttc code=\"fdeltav\" delta=\"6\" point=\"ih01\" ppm1=\"17\" ppm2=\"17\"/>\\u000a          <ttc align=\"round\" code=\"alignh\" point=\"ah04\"/>\\u000a          <ttc align=\"round\" code=\"alignh\" point=\"ah05\"/>\\u000a          <ttc align=\"round\" code=\"alignv\" point=\"ah04\"/>\\u000a          <ttc align=\"round\" code=\"alignv\" point=\"ah05\"/>\\u000a          <ttc code=\"singlev\" point1=\"ah04\" point2=\"sv01\"/>\\u000a          <ttc code=\"singlev\" point1=\"ah05\" point2=\"sv02\"/>\\u000a        </ttProgram>\\u000a      </data>
p15
g4
tp16
Rp17
Ntp18
s."
EndChar
StartChar: florin
Encoding: 258 402 258
GlifName: florin
Width: 1300
VWidth: 0
Flags: W
LayerCount: 2
Fore
SplineSet
1121 846 m 257,0,-1
NamedP: "hr00"
 1064 628 l 257,1,-1
 911 628 l 257,2,-1
 872 700 l 257,3,4
 857 623 857 623 839 533 c 128,-1,5
 821 443 821 443 801.5 346 c 128,-1,6
 782 249 782 249 761.5 147.5 c 128,-1,7
 741 46 741 46 720 -54 c 257,8,9
 702 -125 702 -125 682 -188 c 128,-1,10
 662 -251 662 -251 624 -298.5 c 128,-1,11
 586 -346 586 -346 522.5 -374 c 128,-1,12
 459 -402 459 -402 355 -402 c 257,13,14
 270 -402 270 -402 185 -378 c 128,-1,15
 100 -354 100 -354 34 -309 c 257,16,-1
 108 -100 l 257,17,18
 140 -126 140 -126 181.5 -138.5 c 128,-1,19
 223 -151 223 -151 261 -151 c 257,20,21
 306 -151 306 -151 343.5 -108 c 128,-1,22
 381 -65 381 -65 404 26 c 257,23,-1
 404 25 l 257,24,-1
 528 628 l 257,25,-1
 300 628 l 257,26,-1
NamedP: "mh01"
 357 846 l 257,27,-1
 512 846 l 257,28,-1
 552 777 l 257,29,-1
 625 1162 l 257,30,31
 641 1250 641 1250 673.5 1312 c 128,-1,32
 706 1374 706 1374 750 1413.5 c 128,-1,33
 794 1453 794 1453 846.5 1471 c 128,-1,34
 899 1489 899 1489 955 1489 c 257,35,36
 984 1489 984 1489 1021.5 1486.5 c 128,-1,37
 1059 1484 1059 1484 1099.5 1474.5 c 128,-1,38
 1140 1465 1140 1465 1181.5 1446.5 c 128,-1,39
 1223 1428 1223 1428 1260 1397 c 257,40,-1
 1220 1200 l 257,41,42
 1181 1231 1181 1231 1140 1251.5 c 128,-1,43
 1099 1272 1099 1272 1051 1272 c 257,44,45
 1024 1272 1024 1272 999 1252.5 c 128,-1,46
 974 1233 974 1233 966 1191 c 257,47,-1
 898 846 l 257,48,-1
 1121 846 l 257,0,-1
NamedP: "hr00"
EndSplineSet
PickledDataWithLists: "(dp0
Vcom.adobe.type.autohint
p1
(c_codecs
encode
p2
(Vdata
p3
Vlatin1
p4
tp5
Rp6
g2
(V<data>\\u000a        <hintSetList>\\u000a          <hintset pointTag=\"hr00\">\\u000a            <hstem pos=\"-402\" width=\"251\"/>\\u000a            <hstem pos=\"628\" width=\"218\"/>\\u000a            <hstem pos=\"1272\" width=\"217\"/>\\u000a          </hintset>\\u000a        </hintSetList>\\u000a      </data>
p7
g4
tp8
Rp9
Ntp10
sVcom.fontlab.ttprogram
p11
(g2
(Vdata
p12
g4
tp13
Rp14
g2
(V<data>\\u000a        <ttProgram>\\u000a          <ttc code=\"mdeltah\" delta=\"3\" point=\"mh01\" ppm1=\"30\" ppm2=\"30\"/>\\u000a          <ttc code=\"mdeltah\" delta=\"2\" point=\"mh01\" ppm1=\"16\" ppm2=\"16\"/>\\u000a          <ttc code=\"mdeltah\" delta=\"-2\" point=\"mh01\" ppm1=\"23\" ppm2=\"23\"/>\\u000a          <ttc code=\"mdeltav\" delta=\"-1\" point=\"mh01\" ppm1=\"30\" ppm2=\"30\"/>\\u000a        </ttProgram>\\u000a      </data>
p15
g4
tp16
Rp17
Ntp18
s."
EndChar
StartChar: caron
Encoding: 166 711 166
GlifName: caron
Width: 1300
VWidth: 0
Flags: W
LayerCount: 2
Fore
SplineSet
728 1216 m 257,0,-1
NamedP: "hr00"
 432 1245 l 257,1,-1
 259 1520 l 257,2,-1
NamedP: "at01"
 489 1520 l 257,3,-1
 564 1427 l 257,4,-1
 600 1300 l 257,5,-1
 634 1427 l 257,6,-1
 710 1520 l 257,7,-1
NamedP: "at02"
 915 1520 l 257,8,-1
 728 1216 l 257,0,-1
NamedP: "hr00"
EndSplineSet
PickledDataWithLists: "(dp0
Vcom.adobe.type.autohint
p1
(c_codecs
encode
p2
(Vdata
p3
Vlatin1
p4
tp5
Rp6
g2
(V<data>\\u000a        <hintSetList>\\u000a          <hintset pointTag=\"hr00\">\\u000a            <hstem pos=\"1237\" width=\"-21\"/>\\u000a            <hstem pos=\"1520\" width=\"-20\"/>\\u000a          </hintset>\\u000a        </hintSetList>\\u000a      </data>
p7
g4
tp8
Rp9
Ntp10
sVcom.fontlab.ttprogram
p11
(g2
(Vdata
p12
g4
tp13
Rp14
g2
(V<data>\\u000a        <ttProgram>\\u000a          <ttc code=\"alignt\" point=\"at01\" zone=\"t: 1\"/>\\u000a          <ttc code=\"alignt\" point=\"at02\" zone=\"t: 1\"/>\\u000a        </ttProgram>\\u000a      </data>
p15
g4
tp16
Rp17
Ntp18
s."
EndChar
StartChar: breve
Encoding: 160 728 160
GlifName: breve
Width: 1300
VWidth: 0
Flags: W
LayerCount: 2
Fore
SplineSet
467 1519 m 257,0,1
NamedP: "dh01"
 469 1488 469 1488 482 1464 c 257,2,3
 493 1444 493 1444 516.5 1427 c 128,-1,4
 540 1410 540 1410 584 1410 c 257,5,6
 628 1410 628 1410 652 1427 c 128,-1,7
 676 1444 676 1444 689 1464 c 257,8,9
 703 1488 703 1488 708 1519 c 257,10,-1
NamedP: "dh02"
 929 1519 l 257,11,-1
 929 1469 l 257,12,13
 929 1446 929 1446 910 1410 c 128,-1,14
 891 1374 891 1374 850 1339 c 128,-1,15
 809 1304 809 1304 743 1279 c 128,-1,16
 677 1254 677 1254 584 1254 c 257,17,18
 491 1254 491 1254 426 1279 c 128,-1,19
 361 1304 361 1304 321 1338.5 c 128,-1,20
 281 1373 281 1373 263 1409 c 128,-1,21
 245 1445 245 1445 245 1468 c 257,22,-1
 245 1519 l 257,23,-1
NamedP: "mv01"
 467 1519 l 257,0,1
NamedP: "dh01"
EndSplineSet
PickledDataWithLists: "(dp0
Vcom.adobe.type.autohint
p1
(c_codecs
encode
p2
(Vdata
p3
Vlatin1
p4
tp5
Rp6
g2
(V<data>\\u000a        <hintSetList/>\\u000a      </data>
p7
g4
tp8
Rp9
Ntp10
sVcom.fontlab.ttprogram
p11
(g2
(Vdata
p12
g4
tp13
Rp14
g2
(V<data>\\u000a        <ttProgram>\\u000a          <ttc code=\"doubleh\" point1=\"dh01\" point2=\"dh02\" stem=\"eq X: 208\"/>\\u000a          <ttc code=\"mdeltav\" delta=\"3\" point=\"mv01\" ppm1=\"15\" ppm2=\"15\"/>\\u000a        </ttProgram>\\u000a      </data>
p15
g4
tp16
Rp17
Ntp18
s."
EndChar
StartChar: ogonek
Encoding: 343 731 343
GlifName: ogonek
Width: 1300
VWidth: 0
Flags: W
LayerCount: 2
Fore
SplineSet
416 0 m 257,0,1
 389 -20 389 -20 367 -46 c 257,2,3
 348 -69 348 -69 332.5 -100.5 c 128,-1,4
 317 -132 317 -132 317 -171 c 257,5,6
 317 -221 317 -221 340.5 -264 c 128,-1,7
 364 -307 364 -307 404 -338.5 c 128,-1,8
 444 -370 444 -370 496 -388.5 c 128,-1,9
 548 -407 548 -407 605 -407 c 257,10,11
 665 -407 665 -407 722.5 -389 c 128,-1,12
 780 -371 780 -371 828 -349 c 257,13,14
 883 -323 883 -323 934 -290 c 257,15,-1
 819 -131 l 257,16,17
 787 -151 787 -151 755 -166 c 257,18,19
 729 -179 729 -179 699.5 -189.5 c 128,-1,20
 670 -200 670 -200 648 -200 c 257,21,22
 625 -200 625 -200 604.5 -187.5 c 128,-1,23
 584 -175 584 -175 584 -147 c 257,24,25
 584 -126 584 -126 596 -102.5 c 128,-1,26
 608 -79 608 -79 624 -58 c 128,-1,27
 640 -37 640 -37 655.5 -21.5 c 128,-1,28
 671 -6 671 -6 678 0 c 257,29,-1
 416 0 l 257,0,1
EndSplineSet
PickledDataWithLists: "(dp0
Vcom.adobe.type.autohint
p1
(c_codecs
encode
p2
(Vdata
p3
Vlatin1
p4
tp5
Rp6
g2
(V<data>\\u000a        <hintSetList/>\\u000a      </data>
p7
g4
tp8
Rp9
Ntp10
s."
EndChar
StartChar: tilde
Encoding: 527 732 527
GlifName: tilde
Width: 1300
VWidth: 0
Flags: W
LayerCount: 2
Fore
SplineSet
318 1307 m 257,0,1
NamedP: "sh01"
 322 1347 322 1347 338 1392.5 c 128,-1,2
 354 1438 354 1438 384 1476 c 128,-1,3
 414 1514 414 1514 460 1539 c 128,-1,4
NamedP: "mv01"
 506 1564 506 1564 569 1564 c 257,5,6
NamedP: "ah01"
 618 1564 618 1564 651.5 1551.5 c 128,-1,7
 685 1539 685 1539 712 1524 c 128,-1,8
 739 1509 739 1509 763.5 1496.5 c 128,-1,9
 788 1484 788 1484 819 1484 c 257,10,11
NamedP: "av03"
 840 1484 840 1484 854 1491 c 128,-1,12
 868 1498 868 1498 877.5 1510 c 128,-1,13
 887 1522 887 1522 892 1538 c 128,-1,14
 897 1554 897 1554 900 1572 c 257,15,-1
 1067 1562 l 257,16,17
NamedP: "av04"
 1064 1518 1064 1518 1050 1471.5 c 128,-1,18
 1036 1425 1036 1425 1007.5 1387 c 128,-1,19
 979 1349 979 1349 934 1324.5 c 128,-1,20
NamedP: "mv02"
 889 1300 889 1300 822 1300 c 257,21,22
NamedP: "av01"
 776 1300 776 1300 744.5 1312.5 c 128,-1,23
 713 1325 713 1325 687 1340 c 128,-1,24
 661 1355 661 1355 634.5 1367.5 c 128,-1,25
 608 1380 608 1380 573 1380 c 257,26,27
NamedP: "av02"
 555 1380 555 1380 543 1373 c 128,-1,28
 531 1366 531 1366 522.5 1355 c 128,-1,29
 514 1344 514 1344 509 1329.5 c 128,-1,30
 504 1315 504 1315 500 1300 c 257,31,-1
NamedP: "sh02"
 318 1307 l 257,0,1
NamedP: "sh01"
EndSplineSet
PickledDataWithLists: "(dp0
Vcom.adobe.type.autohint
p1
(c_codecs
encode
p2
(Vdata
p3
Vlatin1
p4
tp5
Rp6
g2
(V<data>\\u000a        <hintSetList/>\\u000a      </data>
p7
g4
tp8
Rp9
Ntp10
sVcom.fontlab.ttprogram
p11
(g2
(Vdata
p12
g4
tp13
Rp14
g2
(V<data>\\u000a        <ttProgram>\\u000a          <ttc align=\"round\" code=\"alignh\" point=\"ah01\"/>\\u000a          <ttc code=\"singleh\" point1=\"ah01\" point2=\"sh01\" stem=\"eq X: 208\"/>\\u000a          <ttc code=\"mdeltah\" delta=\"4\" point=\"mh01\" ppm1=\"21\" ppm2=\"21\"/>\\u000a          <ttc code=\"singleh\" point1=\"sh01\" point2=\"sh02\" stem=\"eq X: ecart du B\"/>\\u000a          <ttc align=\"round\" code=\"alignv\" point=\"ah01\"/>\\u000a          <ttc align=\"round\" code=\"alignv\" point=\"av01\"/>\\u000a          <ttc align=\"round\" code=\"alignv\" point=\"av02\"/>\\u000a          <ttc align=\"round\" code=\"alignv\" point=\"av03\"/>\\u000a          <ttc align=\"round\" code=\"alignv\" point=\"av04\"/>\\u000a          <ttc align=\"round\" code=\"alignv\" point=\"sh01\"/>\\u000a          <ttc code=\"mdeltav\" delta=\"4\" point=\"sh01\" ppm1=\"12\" ppm2=\"12\"/>\\u000a          <ttc code=\"mdeltav\" delta=\"5\" point=\"mv01\" ppm1=\"12\" ppm2=\"12\"/>\\u000a          <ttc code=\"mdeltav\" delta=\"8\" point=\"ah01\" ppm1=\"21\" ppm2=\"21\"/>\\u000a          <ttc code=\"mdeltav\" delta=\"4\" point=\"ah01\" ppm1=\"13\" ppm2=\"13\"/>\\u000a          <ttc code=\"mdeltav\" delta=\"-5\" point=\"av03\" ppm1=\"12\" ppm2=\"12\"/>\\u000a          <ttc code=\"mdeltav\" delta=\"-6\" point=\"av03\" ppm1=\"13\" ppm2=\"13\"/>\\u000a          <ttc code=\"mdeltav\" delta=\"-8\" point=\"av03\" ppm1=\"21\" ppm2=\"21\"/>\\u000a          <ttc code=\"mdeltav\" delta=\"-4\" point=\"mv02\" ppm1=\"12\" ppm2=\"12\"/>\\u000a          <ttc code=\"mdeltav\" delta=\"1\" point=\"av01\" ppm1=\"21\" ppm2=\"21\"/>\\u000a          <ttc code=\"mdeltav\" delta=\"7\" point=\"av02\" ppm1=\"21\" ppm2=\"21\"/>\\u000a          <ttc code=\"mdeltav\" delta=\"5\" point=\"av02\" ppm1=\"12\" ppm2=\"12\"/>\\u000a          <ttc code=\"mdeltav\" delta=\"4\" point=\"sh02\" ppm1=\"12\" ppm2=\"12\"/>\\u000a        </ttProgram>\\u000a      </data>
p15
g4
tp16
Rp17
Ntp18
s."
EndChar
StartChar: Gamma
Encoding: 28 915 28
GlifName: G_amma
Width: 1300
VWidth: 0
Flags: W
LayerCount: 2
Fore
SplineSet
521 1131 m 257,0,-1
NamedP: "sh02"
 521 0 l 257,1,-1
NamedP: "sh01"
 179 0 l 257,2,-1
NamedP: "ah01"
 179 1269 l 257,3,-1
NamedP: "sh03"
 160 1500 l 257,4,-1
NamedP: "at01"
 1109 1500 l 257,5,-1
NamedP: "sv01"
 1109 1282 l 257,6,-1
NamedP: "sv02"
 509 1282 l 257,7,-1
 521 1131 l 257,0,-1
NamedP: "sh02"
EndSplineSet
PickledDataWithLists: "(dp0
Vcom.adobe.type.autohint
p1
(c_codecs
encode
p2
(Vdata
p3
Vlatin1
p4
tp5
Rp6
g2
(V<data>\\u000a        <hintSetList>\\u000a          <hintset pointTag=\"sh02\">\\u000a            <hstem pos=\"21\" width=\"-21\"/>\\u000a            <hstem pos=\"1282\" width=\"218\"/>\\u000a            <vstem pos=\"179\" width=\"342\"/>\\u000a          </hintset>\\u000a        </hintSetList>\\u000a      </data>
p7
g4
tp8
Rp9
Ntp10
sVcom.fontlab.ttprogram
p11
(g2
(Vdata
p12
g4
tp13
Rp14
g2
(V<data>\\u000a        <ttProgram>\\u000a          <ttc align=\"round\" code=\"alignh\" point=\"ah01\"/>\\u000a          <ttc code=\"singleh\" point1=\"ah01\" point2=\"sh01\" stem=\"eq X: 208\"/>\\u000a          <ttc code=\"singleh\" point1=\"sh01\" point2=\"sh02\"/>\\u000a          <ttc code=\"singleh\" point1=\"ah01\" point2=\"sh03\"/>\\u000a          <ttc code=\"alignt\" point=\"at01\" zone=\"t: 1\"/>\\u000a          <ttc code=\"alignb\" point=\"ah01\" zone=\"b: 0\"/>\\u000a          <ttc code=\"singlev\" point1=\"ah01\" point2=\"sh01\"/>\\u000a          <ttc code=\"singlev\" point1=\"sh01\" point2=\"sh02\" round=\"true\"/>\\u000a          <ttc code=\"singlev\" point1=\"at01\" point2=\"sv01\"/>\\u000a          <ttc code=\"singlev\" point1=\"sv01\" point2=\"sv02\" stem=\"eq Y: 171\"/>\\u000a        </ttProgram>\\u000a      </data>
p15
g4
tp16
Rp17
Ntp18
s."
EndChar
StartChar: Deltagreek
Encoding: 16 916 16
GlifName: D_eltagreek
Width: 1300
VWidth: 0
Flags: W
LayerCount: 2
Fore
SplineSet
477 1500 m 257,0,-1
NamedP: "dh01"
 809 1520 l 257,1,-1
NamedP: "dh02"
 1294 0 l 257,2,-1
NamedP: "ih03"
 5 0 l 257,3,-1
NamedP: "ih02"
 477 1500 l 257,0,-1
NamedP: "dh01"
402 228 m 257,4,-1
NamedP: "sv01"
 897 228 l 257,5,-1
NamedP: "sv02"
 650 1117 l 257,6,-1
NamedP: "ih01"
 402 228 l 257,4,-1
NamedP: "sv01"
EndSplineSet
PickledDataWithLists: "(dp0
Vcom.adobe.type.autohint
p1
(c_codecs
encode
p2
(Vdata
p3
Vlatin1
p4
tp5
Rp6
g2
(V<data>\\u000a        <hintSetList>\\u000a          <hintset pointTag=\"dh01\">\\u000a            <hstem pos=\"0\" width=\"228\"/>\\u000a            <hstem pos=\"1520\" width=\"-20\"/>\\u000a          </hintset>\\u000a        </hintSetList>\\u000a      </data>
p7
g4
tp8
Rp9
Ntp10
sVcom.fontlab.ttprogram
p11
(g2
(Vdata
p12
g4
tp13
Rp14
g2
(V<data>\\u000a        <ttProgram>\\u000a          <ttc code=\"doubleh\" point1=\"dh01\" point2=\"dh02\" stem=\"eq X: 208\"/>\\u000a          <ttc code=\"interpolateh\" point=\"ih01\" point1=\"ih02\" point2=\"ih03\"/>\\u000a          <ttc code=\"alignt\" point=\"dh02\" zone=\"t: 1\"/>\\u000a          <ttc code=\"alignb\" point=\"ih02\" zone=\"b: 0\"/>\\u000a          <ttc code=\"singlev\" point1=\"ih02\" point2=\"sv01\" stem=\"eq Y: 171\"/>\\u000a          <ttc code=\"singlev\" point1=\"sv01\" point2=\"sv02\"/>\\u000a          <ttc code=\"singlev\" point1=\"sv02\" point2=\"ih03\" stem=\"eq Y: 171\"/>\\u000a          <ttc code=\"singlev\" point1=\"dh02\" point2=\"ih01\" round=\"true\"/>\\u000a        </ttProgram>\\u000a      </data>
p15
g4
tp16
Rp17
Ntp18
s."
EndChar
StartChar: Lambda
Encoding: 41 923 41
GlifName: L_ambda
Width: 1300
VWidth: 0
Flags: W
LayerCount: 2
Fore
SplineSet
342 1 m 257,0,-1
 560 801 l 257,1,-1
 629 1241 l 257,2,-1
 723 801 l 257,3,-1
 938 0 l 257,4,-1
NamedP: "hr01"
 1267 0 l 257,5,-1
 811 1520 l 257,6,-1
 431 1500 l 257,7,-1
 392 1267 l 257,8,-1
 32 1 l 257,9,-1
NamedP: "hr02"
 342 1 l 257,0,-1
EndSplineSet
PickledDataWithLists: "(dp0
Vcom.adobe.type.autohint
p1
(c_codecs
encode
p2
(Vdata
p3
Vlatin1
p4
tp5
Rp6
g2
(V<data>\\u000a        <hintSetList>\\u000a          <hintset pointTag=\"hr01\">\\u000a            <hstem pos=\"21\" width=\"-21\"/>\\u000a            <hstem pos=\"1520\" width=\"-20\"/>\\u000a          </hintset>\\u000a          <hintset pointTag=\"hr02\">\\u000a            <hstem pos=\"22\" width=\"-21\"/>\\u000a            <hstem pos=\"1520\" width=\"-20\"/>\\u000a          </hintset>\\u000a        </hintSetList>\\u000a      </data>
p7
g4
tp8
Rp9
Ntp10
s."
EndChar
StartChar: Xi
Encoding: 83 926 83
GlifName: X_i
Width: 1300
VWidth: 0
Flags: W
LayerCount: 2
Fore
SplineSet
165 916 m 257,0,-1
NamedP: "hr00"
 1037 916 l 257,1,-1
 1037 675 l 257,2,-1
 165 675 l 257,3,-1
 165 916 l 257,0,-1
NamedP: "hr00"
70 241 m 257,4,-1
 1131 241 l 257,5,-1
 1131 0 l 257,6,-1
 70 0 l 257,7,-1
 70 241 l 257,4,-1
70 1500 m 257,8,-1
 1131 1500 l 257,9,-1
 1131 1259 l 257,10,-1
 70 1259 l 257,11,-1
 70 1500 l 257,8,-1
EndSplineSet
PickledDataWithLists: "(dp0
Vcom.adobe.type.autohint
p1
(c_codecs
encode
p2
(Vdata
p3
Vlatin1
p4
tp5
Rp6
g2
(V<data>\\u000a        <hintSetList>\\u000a          <hintset pointTag=\"hr00\">\\u000a            <hstem pos=\"0\" width=\"241\"/>\\u000a            <hstem pos=\"675\" width=\"241\"/>\\u000a            <hstem pos=\"1259\" width=\"241\"/>\\u000a          </hintset>\\u000a        </hintSetList>\\u000a      </data>
p7
g4
tp8
Rp9
Ntp10
s."
EndChar
StartChar: Sigma
Encoding: 68 931 68
GlifName: S_igma
Width: 1300
VWidth: 0
Flags: W
LayerCount: 2
Fore
SplineSet
943 699 m 257,0,-1
NamedP: "dv01"
 564 300 l 257,1,-1
 434 200 l 257,2,-1
NamedP: "sh01"
 594 217 l 257,3,-1
 1200 217 l 257,4,-1
NamedP: "sv02"
 1200 0 l 257,5,-1
NamedP: "sv01"
 75 0 l 257,6,-1
NamedP: "ab01"
 98 216 l 257,7,-1
NamedP: "ah02"
 554 690 l 257,8,-1
 764 750 l 257,9,-1
NamedP: "ih01"
 554 810 l 257,10,-1
NamedP: "ih02"
 98 1284 l 257,11,-1
NamedP: "ah01"
 75 1500 l 257,12,-1
NamedP: "at01"
 1200 1500 l 257,13,-1
NamedP: "sv03"
 1200 1283 l 257,14,-1
NamedP: "sv04"
 594 1283 l 257,15,-1
 434 1300 l 257,16,-1
NamedP: "sh02"
 564 1200 l 257,17,-1
 943 801 l 257,18,-1
NamedP: "ih03"
 943 699 l 257,0,-1
NamedP: "dv01"
EndSplineSet
PickledDataWithLists: "(dp0
Vcom.adobe.type.autohint
p1
(c_codecs
encode
p2
(Vdata
p3
Vlatin1
p4
tp5
Rp6
g2
(V<data>\\u000a        <hintSetList>\\u000a          <hintset pointTag=\"dv01\">\\u000a            <hstem pos=\"0\" width=\"217\"/>\\u000a            <hstem pos=\"1283\" width=\"217\"/>\\u000a          </hintset>\\u000a        </hintSetList>\\u000a      </data>
p7
g4
tp8
Rp9
Ntp10
sVcom.fontlab.ttprogram
p11
(g2
(Vdata
p12
g4
tp13
Rp14
g2
(V<data>\\u000a        <ttProgram>\\u000a          <ttc align=\"round\" code=\"alignh\" point=\"ah01\"/>\\u000a          <ttc align=\"round\" code=\"alignh\" point=\"ah02\"/>\\u000a          <ttc code=\"singleh\" point1=\"ah02\" point2=\"sh01\" stem=\"eq X: 208\"/>\\u000a          <ttc code=\"interpolateh\" point=\"ih01\" point1=\"ih02\" point2=\"ih03\"/>\\u000a          <ttc code=\"singleh\" point1=\"ah01\" point2=\"sh02\" stem=\"eq X: 208\"/>\\u000a          <ttc code=\"alignt\" point=\"at01\" zone=\"t: 1\"/>\\u000a          <ttc code=\"alignb\" point=\"ab01\" zone=\"b: 0\"/>\\u000a          <ttc code=\"doublev\" point1=\"ih03\" point2=\"dv01\" stem=\"eq Y: 135\"/>\\u000a          <ttc code=\"singlev\" point1=\"ab01\" point2=\"sv01\"/>\\u000a          <ttc code=\"singlev\" point1=\"sv01\" point2=\"sv02\" stem=\"eq Y: 171\"/>\\u000a          <ttc code=\"interpolatev\" point=\"ih01\" point1=\"at01\" point2=\"ab01\"/>\\u000a          <ttc code=\"singlev\" point1=\"at01\" point2=\"sv03\"/>\\u000a          <ttc code=\"singlev\" point1=\"sv03\" point2=\"sv04\" stem=\"eq Y: 171\"/>\\u000a        </ttProgram>\\u000a      </data>
p15
g4
tp16
Rp17
Ntp18
s."
EndChar
StartChar: Phi
Encoding: 60 934 60
GlifName: P_hi
Width: 1300
VWidth: 0
Flags: W
LayerCount: 2
Fore
SplineSet
477 204 m 257,0,1
NamedP: "iv04"
 456 209 456 209 437 213.5 c 128,-1,2
 418 218 418 218 399 224 c 257,3,-1
 400 224 l 257,4,5
 213 281 213 281 117.5 411.5 c 128,-1,6
 22 542 22 542 22 750 c 257,7,8
NamedP: "ah02"
 22 956 22 956 117.5 1088 c 128,-1,9
 213 1220 213 1220 400 1276 c 257,10,-1
 399 1276 l 257,11,12
 418 1282 418 1282 437 1286.5 c 128,-1,13
 456 1291 456 1291 477 1296 c 257,14,-1
NamedP: "iv03"
 477 1500 l 257,15,-1
NamedP: "ah01"
 818 1520 l 257,16,-1
NamedP: "sh01"
 818 1296 l 257,17,18
NamedP: "iv01"
 839 1291 839 1291 858.5 1286.5 c 128,-1,19
 878 1282 878 1282 897 1276 c 257,20,-1
 896 1276 l 257,21,22
 1082 1220 1082 1220 1178.5 1088 c 128,-1,23
 1275 956 1275 956 1275 750 c 257,24,25
NamedP: "ah03"
 1275 542 1275 542 1179 411.5 c 128,-1,26
 1083 281 1083 281 897 224 c 257,27,-1
 898 224 l 257,28,29
 879 218 879 218 858.5 213.5 c 128,-1,30
 838 209 838 209 818 204 c 257,31,-1
NamedP: "iv02"
 818 0 l 257,32,-1
NamedP: "sh04"
 477 0 l 257,33,-1
NamedP: "sh07"
 477 204 l 257,0,1
NamedP: "iv04"
818 444 m 257,34,35
NamedP: "sh03"
 851 462 851 462 879.5 489.5 c 128,-1,36
 908 517 908 517 929 555.5 c 128,-1,37
 950 594 950 594 962 642.5 c 128,-1,38
 974 691 974 691 974 750 c 257,39,40
NamedP: "sh08"
 974 810 974 810 962 858.5 c 128,-1,41
 950 907 950 907 929 944.5 c 128,-1,42
 908 982 908 982 879.5 1009.5 c 128,-1,43
 851 1037 851 1037 818 1055 c 257,44,-1
NamedP: "sh02"
 818 444 l 257,34,35
NamedP: "sh03"
477 1055 m 257,45,46
NamedP: "sh05"
 408 1020 408 1020 365.5 945 c 128,-1,47
 323 870 323 870 323 750 c 257,48,49
NamedP: "sh09"
 323 630 323 630 366 554.5 c 128,-1,50
 409 479 409 479 477 445 c 257,51,-1
NamedP: "sh06"
 477 1055 l 257,45,46
NamedP: "sh05"
EndSplineSet
PickledDataWithLists: "(dp0
Vcom.adobe.type.autohint
p1
(c_codecs
encode
p2
(Vdata
p3
Vlatin1
p4
tp5
Rp6
g2
(V<data>\\u000a        <hintSetList>\\u000a          <hintset pointTag=\"iv04\">\\u000a            <hstem pos=\"21\" width=\"-21\"/>\\u000a            <hstem pos=\"1520\" width=\"-20\"/>\\u000a            <vstem pos=\"22\" width=\"301\"/>\\u000a            <vstem pos=\"477\" width=\"341\"/>\\u000a            <vstem pos=\"974\" width=\"301\"/>\\u000a          </hintset>\\u000a        </hintSetList>\\u000a      </data>
p7
g4
tp8
Rp9
Ntp10
sVcom.fontlab.ttprogram
p11
(g2
(Vdata
p12
g4
tp13
Rp14
g2
(V<data>\\u000a        <ttProgram>\\u000a          <ttc align=\"round\" code=\"alignh\" point=\"ah01\"/>\\u000a          <ttc align=\"round\" code=\"alignh\" point=\"ah02\"/>\\u000a          <ttc align=\"round\" code=\"alignh\" point=\"ah03\"/>\\u000a          <ttc code=\"singleh\" point1=\"ah01\" point2=\"sh01\" stem=\"eq X: 208\"/>\\u000a          <ttc code=\"singleh\" point1=\"sh01\" point2=\"sh02\"/>\\u000a          <ttc code=\"singleh\" point1=\"sh02\" point2=\"sh03\"/>\\u000a          <ttc code=\"singleh\" point1=\"sh03\" point2=\"sh04\"/>\\u000a          <ttc code=\"singleh\" point1=\"ah01\" point2=\"sh05\"/>\\u000a          <ttc code=\"singleh\" point1=\"sh05\" point2=\"sh06\"/>\\u000a          <ttc code=\"singleh\" point1=\"sh06\" point2=\"sh07\"/>\\u000a          <ttc code=\"singleh\" point1=\"ah03\" point2=\"sh08\" stem=\"eq X: 208\"/>\\u000a          <ttc code=\"singleh\" point1=\"ah02\" point2=\"sh09\" stem=\"eq X: 208\"/>\\u000a          <ttc code=\"alignt\" point=\"sh01\" zone=\"t: 1\"/>\\u000a          <ttc code=\"alignb\" point=\"sh04\" zone=\"b: 0\"/>\\u000a          <ttc code=\"interpolatev\" point=\"ah02\" point1=\"iv01\" point2=\"iv02\"/>\\u000a          <ttc code=\"interpolatev\" point=\"ah03\" point1=\"iv03\" point2=\"iv04\"/>\\u000a          <ttc code=\"interpolatev\" point=\"sh08\" point1=\"sh02\" point2=\"sh03\"/>\\u000a          <ttc code=\"interpolatev\" point=\"sh09\" point1=\"sh05\" point2=\"sh06\"/>\\u000a        </ttProgram>\\u000a      </data>
p15
g4
tp16
Rp17
Ntp18
s."
EndChar
StartChar: Omegagreek
Encoding: 55 937 55
GlifName: O_megagreek
Width: 1300
VWidth: 0
Flags: W
LayerCount: 2
Fore
SplineSet
35 228 m 257,0,-1
NamedP: "ih03"
 216 228 l 257,1,-1
NamedP: "sh01"
 206 237 l 257,2,3
 172 270 172 270 144.5 324.5 c 128,-1,4
 117 379 117 379 97.5 449.5 c 128,-1,5
 78 520 78 520 67 603 c 128,-1,6
 56 686 56 686 56 774 c 257,7,8
NamedP: "ah03"
 56 939 56 939 80 1075.5 c 128,-1,9
 104 1212 104 1212 168 1310.5 c 128,-1,10
 232 1409 232 1409 344 1463 c 128,-1,11
 456 1517 456 1517 632 1517 c 257,12,13
NamedP: "ih01"
 804 1517 804 1517 915.5 1463 c 128,-1,14
 1027 1409 1027 1409 1091.5 1310.5 c 128,-1,15
 1156 1212 1156 1212 1181.5 1075.5 c 128,-1,16
 1207 939 1207 939 1207 774 c 257,17,18
NamedP: "ah04"
 1207 687 1207 687 1196 605 c 128,-1,19
 1185 523 1185 523 1165.5 453 c 128,-1,20
 1146 383 1146 383 1120 328 c 128,-1,21
 1094 273 1094 273 1064 241 c 257,22,-1
 1049 228 l 257,23,-1
NamedP: "sh02"
 1227 228 l 257,24,-1
NamedP: "ih04"
 1227 0 l 257,25,-1
NamedP: "ab02"
 690 0 l 257,26,-1
NamedP: "dh02"
 690 236 l 257,27,28
NamedP: "ah02"
 757 283 757 283 791.5 334.5 c 128,-1,29
 826 386 826 386 841 447 c 128,-1,30
 856 508 856 508 857 581 c 128,-1,31
 858 654 858 654 858 744 c 257,32,33
NamedP: "sh03"
 858 850 858 850 848.5 947 c 128,-1,34
 839 1044 839 1044 813 1117.5 c 128,-1,35
 787 1191 787 1191 742 1235 c 128,-1,36
 697 1279 697 1279 626 1279 c 257,37,38
NamedP: "ih02"
 560 1279 560 1279 517.5 1240.5 c 128,-1,39
 475 1202 475 1202 450.5 1137 c 128,-1,40
 426 1072 426 1072 416 986.5 c 128,-1,41
 406 901 406 901 406 807 c 257,42,43
NamedP: "sh04"
 406 703 406 703 406.5 619.5 c 128,-1,44
 407 536 407 536 421 467 c 128,-1,45
 435 398 435 398 470 341.5 c 128,-1,46
 505 285 505 285 573 235 c 257,47,-1
NamedP: "ah01"
 573 0 l 257,48,-1
NamedP: "dh01"
 35 0 l 257,49,-1
NamedP: "ab01"
 35 228 l 257,0,-1
NamedP: "ih03"
EndSplineSet
PickledDataWithLists: "(dp0
Vcom.adobe.type.autohint
p1
(c_codecs
encode
p2
(Vdata
p3
Vlatin1
p4
tp5
Rp6
g2
(V<data>\\u000a        <hintSetList>\\u000a          <hintset pointTag=\"ih03\">\\u000a            <hstem pos=\"0\" width=\"228\"/>\\u000a            <hstem pos=\"1279\" width=\"238\"/>\\u000a            <vstem pos=\"56\" width=\"350\"/>\\u000a            <vstem pos=\"858\" width=\"349\"/>\\u000a          </hintset>\\u000a        </hintSetList>\\u000a      </data>
p7
g4
tp8
Rp9
Ntp10
sVcom.fontlab.ttprogram
p11
(g2
(Vdata
p12
g4
tp13
Rp14
g2
(V<data>\\u000a        <ttProgram>\\u000a          <ttc align=\"round\" code=\"alignh\" point=\"ah01\"/>\\u000a          <ttc align=\"round\" code=\"alignh\" point=\"ah02\"/>\\u000a          <ttc align=\"round\" code=\"alignh\" point=\"ah03\"/>\\u000a          <ttc align=\"round\" code=\"alignh\" point=\"ah04\"/>\\u000a          <ttc code=\"doubleh\" point1=\"dh01\" point2=\"dh02\" stem=\"eq X: dia Lite\"/>\\u000a          <ttc code=\"singleh\" point1=\"ah01\" point2=\"sh01\" stem=\"eq X: 208\"/>\\u000a          <ttc code=\"interpolateh\" point=\"ih01\" point1=\"ah01\" point2=\"ah02\"/>\\u000a          <ttc code=\"singleh\" point1=\"ah02\" point2=\"sh02\" stem=\"eq X: 208\"/>\\u000a          <ttc code=\"singleh\" point1=\"ah04\" point2=\"sh03\" stem=\"eq X: 208\"/>\\u000a          <ttc code=\"interpolateh\" point=\"ih02\" point1=\"ih03\" point2=\"ih04\"/>\\u000a          <ttc code=\"singleh\" point1=\"ah03\" point2=\"sh04\" stem=\"eq X: 208\"/>\\u000a          <ttc code=\"alignt\" point=\"ih01\" zone=\"t: 1\"/>\\u000a          <ttc code=\"alignb\" point=\"ab01\" zone=\"b: 0\"/>\\u000a          <ttc code=\"alignb\" point=\"ab02\" zone=\"b: 0\"/>\\u000a          <ttc code=\"singlev\" point1=\"ab01\" point2=\"ih03\" stem=\"eq Y: 171\"/>\\u000a          <ttc code=\"singlev\" point1=\"ab02\" point2=\"ih04\" stem=\"eq Y: 171\"/>\\u000a          <ttc code=\"singlev\" point1=\"ab02\" point2=\"dh02\"/>\\u000a          <ttc code=\"singlev\" point1=\"dh02\" point2=\"ah02\" stem=\"eq Y: 171\"/>\\u000a          <ttc code=\"singlev\" point1=\"ih01\" point2=\"ih02\" stem=\"eq Y: 171\"/>\\u000a          <ttc code=\"singlev\" point1=\"ab01\" point2=\"dh01\"/>\\u000a          <ttc code=\"singlev\" point1=\"dh01\" point2=\"ah01\" stem=\"eq Y: 171\"/>\\u000a        </ttProgram>\\u000a      </data>
p15
g4
tp16
Rp17
Ntp18
s."
EndChar
StartChar: gamma
Encoding: 265 947 265
GlifName: gamma
Width: 1300
VWidth: 0
Flags: W
LayerCount: 2
Fore
SplineSet
80 1117 m 257,0,1
NamedP: "ah01"
 137 1116 137 1116 197.5 1112 c 128,-1,2
 258 1108 258 1108 312.5 1089.5 c 128,-1,3
 367 1071 367 1071 412 1033 c 128,-1,4
 457 995 457 995 482 927 c 257,5,-1
 587 641 l 257,6,-1
 667 220 l 257,7,-1
NamedP: "ih01"
 746 643 l 257,8,-1
 914 1100 l 257,9,-1
NamedP: "sh01"
 1224 1120 l 257,10,-1
NamedP: "ah02"
 828 21 l 257,11,-1
NamedP: "sh03"
 828 -500 l 257,12,-1
NamedP: "sh02"
 500 -500 l 257,13,-1
NamedP: "ah03"
 500 -7 l 257,14,-1
 194 834 l 257,15,16
 183 864 183 864 164 881.5 c 128,-1,17
 145 899 145 899 126 907 c 257,18,19
 104 917 104 917 80 920 c 257,20,-1
NamedP: "sv01"
 80 1117 l 257,0,1
NamedP: "ah01"
EndSplineSet
PickledDataWithLists: "(dp0
Vcom.adobe.type.autohint
p1
(c_codecs
encode
p2
(Vdata
p3
Vlatin1
p4
tp5
Rp6
g2
(V<data>\\u000a        <hintSetList>\\u000a          <hintset pointTag=\"sh03\">\\u000a            <hstem pos=\"-479\" width=\"-21\"/>\\u000a            <hstem pos=\"1116\" width=\"-20\"/>\\u000a            <vstem pos=\"500\" width=\"328\"/>\\u000a          </hintset>\\u000a        </hintSetList>\\u000a      </data>
p7
g4
tp8
Rp9
Ntp10
sVcom.fontlab.ttprogram
p11
(g2
(Vdata
p12
g4
tp13
Rp14
g2
(V<data>\\u000a        <ttProgram>\\u000a          <ttc align=\"round\" code=\"alignh\" point=\"ah01\"/>\\u000a          <ttc align=\"round\" code=\"alignh\" point=\"ah02\"/>\\u000a          <ttc align=\"round\" code=\"alignh\" point=\"ah03\"/>\\u000a          <ttc code=\"interpolateh\" point=\"ih01\" point1=\"ah01\" point2=\"ah02\"/>\\u000a          <ttc code=\"singleh\" point1=\"ah02\" point2=\"sh01\" stem=\"eq X: 208\"/>\\u000a          <ttc code=\"singleh\" point1=\"ah03\" point2=\"sh02\" stem=\"eq X: 208\"/>\\u000a          <ttc code=\"singleh\" point1=\"sh02\" point2=\"sh03\"/>\\u000a          <ttc code=\"alignt\" point=\"ah01\" zone=\"t: x\"/>\\u000a          <ttc code=\"alignt\" point=\"ah02\" zone=\"t: x\"/>\\u000a          <ttc code=\"alignb\" point=\"ah03\" zone=\"b: -500\"/>\\u000a          <ttc code=\"interpolatev\" point=\"ih01\" point1=\"ah01\" point2=\"ah03\"/>\\u000a          <ttc code=\"singlev\" point1=\"ah01\" point2=\"sv01\" stem=\"eq Y: 171\"/>\\u000a        </ttProgram>\\u000a      </data>
p15
g4
tp16
Rp17
Ntp18
s."
EndChar
